<svg xmlns="http://www.w3.org/2000/svg" width="16" height="16" fill="none"><path fill="#5BAFD4" fill-rule="evenodd" d="M1 6.5c0-1.4 0-2.1.272-2.635a2.5 2.5 0 0 1 1.093-1.093C2.9 2.5 3.6 2.5 5 2.5h6c1.4 0 2.1 0 2.635.272a2.5 2.5 0 0 1 1.092 1.093C15 4.4 15 5.1 15 6.5V10c0 1.4 0 2.1-.273 2.635a2.5 2.5 0 0 1-1.092 1.092C13.1 14 12.4 14 11 14H5c-1.4 0-2.1 0-2.635-.273a2.5 2.5 0 0 1-1.093-1.092C1 12.1 1 11.4 1 10zm4 0L2.5 9v1.9c0 .56 0 .84.109 1.054a1 1 0 0 0 .437.437c.214.109.494.109 1.054.109H12c.466 0 .699 0 .883-.076a1 1 0 0 0 .54-.541c.077-.184.077-.417.077-.883L11 8.5l-2 2zm6.5.5a1.5 1.5 0 1 0 0-3 1.5 1.5 0 0 0 0 3" clip-rule="evenodd"/></svg>