<svg xmlns="http://www.w3.org/2000/svg" width="16" height="16" version="1.2"><path d="M4.2 3c-1.1 0-1.7 0-2.1.2q-.6.3-.9.9c-.2.4-.2 1-.2 2.1v3.6c0 1.1 0 1.7.2 2.1q.3.6.9.9c.4.2 1 .2 2.1.2h7.6c1.1 0 1.7 0 2.1-.2q.6-.3.9-.9c.2-.4.2-1 .2-2.1V6.2c0-1.1 0-1.7-.2-2.1q-.3-.6-.9-.9c-.4-.2-1-.2-2.1-.2zm-.5 1.7q.5 0 .8.2.3.3.4.8l.5 2.5.4-2.5q.1-.5.4-.8.3-.2.8-.2.4 0 .6.1.3.1.4.3.2.3.2.6 0 .1.1.5V7q.1.4.1 1 .1.5.1 1 .1.5.1 1 0 .4.1.7v.4q0 .5-.3.7-.2.3-.6.3-.9 0-1-1.1l-.1-3.6-.5 2.7q-.1.5-.3.7t-.5.2q-.399 0-.6-.2t-.3-.7L4 7.3 3.8 11q0 .5-.2.8t-.7.3q-.399 0-.6-.3-.3-.2-.3-.7v-.4q.1-.3.1-.8 0-.4.1-.9 0-.6.1-1.1 0-.5.1-1v-.7q.1-.4.1-.5 0-.3.2-.6.1-.2.4-.3.2-.1.6-.1m8.5 0c.3 0 .5.2.5.5v4.314L13 8.8l.2-.4.2-.202a.9.9 0 0 1 .4-.1q.3 0 .5.202.2.099.2.398 0 .101-.1.201l-1.2 2.6a1.6 1.6 0 0 1-.4.3q-.2.2-.5.2h-.2a.68.68 0 0 1-.5-.2q-.3-.1-.4-.3L10 8.9q-.1-.1-.1-.2 0-.3.2-.4a.68.68 0 0 1 .5-.2q.2 0 .4.1l.2.2.2.4.3.712V5.199c0-.3.2-.5.5-.5" style="fill:#5bafd4"/></svg>