<svg xmlns="http://www.w3.org/2000/svg" width="16" height="16" version="1.2"><path d="M7.8 3v2.2c0 .4 0 .5-.1.7q0 .3-.2.4c-.1.2-.2.2-.6.4L4.2 8.3c-.3.1-.4.2-.7.2q-.2.2-.4 0a1 1 0 0 1-.1-.008V11c0 1.4 0 2.1.3 2.6.2.5.6.9 1.1 1.1.5.3 1.2.3 2.6.3h4c1.4 0 2.1 0 2.6-.3.5-.2.9-.6 1.1-1.1.3-.5.3-1.2.3-2.6V7c0-1.4 0-2.1-.3-2.6-.2-.5-.6-.9-1.1-1.1C13.1 3 12.4 3 11 3Zm.1 5.4q.7 0 .7.9v2.4q0 .9-.3 1.4t-.8.8q-.5.2-1.1.2t-1.1-.2a1.8 1.8 0 0 1-.8-.6q-.3-.4-.3-1.1 0-.3.2-.4a.68.68 0 0 1 .5-.2q.3 0 .5.2.2.201.3.6 0 .2.1.4l.2.2h.4a.9.9 0 0 0 .4-.1q.2-.1.3-.4.1-.4.1-.9V9.3q0-.9.7-.9m4.4 0q.5 0 1 .1.4.1.8.4l.3.3q.1.2.1.4t-.2.4a.9.9 0 0 1-.4.1q-.3 0-.5-.1a1.2 1.2 0 0 0-.3-.2.65.65 0 0 0-.3-.3q-.2-.1-.5-.1t-.5.1q-.1 0-.2.2-.1.1-.1.2 0 .2.2.4.3.2.9.3.6.2 1.1.4.4.2.7.5.3.4.3.9 0 .501-.3.9a2.7 2.7 0 0 1-.9.6q-.5.2-1.3.2-.6 0-1.1-.2-.5-.1-.8-.4-.4-.3-.4-.7 0-.2.1-.4t.4-.2.5.1a.65.65 0 0 1 .3.3q.2.2.5.3.2.1.6.1h.4a1.2 1.2 0 0 0 .3-.2q.2-.2.2-.3 0-.3-.3-.5-.3-.1-.9-.2-1.1-.3-1.6-.7-.4-.5-.4-1.2 0-.4.3-.8.3-.3.8-.5.6-.2 1.2-.2" style="fill:#f5aa52"/><path fill-rule="evenodd" d="M3.2 0c-.2 0-.3.1-.5.2l-2 1.2c-.3.1-.4.1-.4.3q-.2.1-.3.3v3.3q.1.2.3.3c0 .1.1.1.4.3l2 1.2c.2.1.3.1.5.1q.1.1.3 0c.2 0 .3 0 .5-.1l2-1.2c.3-.2.4-.2.4-.3q.2-.1.2-.3c.1-.2.1-.2.1-.6V2.6c0-.4 0-.5-.1-.6q0-.2-.2-.3c0-.2-.1-.2-.4-.3L4 .2C3.8.1 3.7 0 3.5 0zm.1 4.9c-.6 0-1.2-.6-1.2-1.3s.6-1.2 1.2-1.2c.7 0 1.3.5 1.3 1.2S4 4.9 3.3 4.9" style="fill:#8080a0"/></svg>