<svg xmlns="http://www.w3.org/2000/svg" id="svg3" width="48" height="48" version="1.2"><style id="style1">.s1{fill:#5bafd4}</style><g id="Layer 1"><path id="path1" d="M33.8 44h-6.507a5.54 5.54 22.5 0 1-3.915-1.622l-7.213-7.213a3.06 3.06 90 0 1 0-4.33L20 27l14.737 14.737A1.325 1.325 112.5 0 1 33.8 44" style="fill:#7380f9"/><path id="path2" d="M7.304 21.696 23.721 5.279A4.37 4.37 157.5 0 1 26.81 4h6.268a1.625 1.625 67.5 0 1 1.15 2.774L12.642 28.357a2.324 2.324 0 0 1-3.286 0l-2.053-2.053a3.26 3.26 90 0 1 0-4.608" class="s1"/><path id="path3" d="M35.04 23.96 20 39l-4.16-4.16a2.6 2.6 90 0 1 0-3.68l8.066-8.066A3.74 3.74 157.5 0 1 26.548 22h7.679a1.149 1.149 67.5 0 1 .812 1.96" class="s1"/></g></svg>