<svg xmlns="http://www.w3.org/2000/svg" width="24" height="24" version="1.2"><path d="M18 4h.2q.1.1.2.1t.2.1l.2.2.1.1 3 5q0 .1.1.2v.6q-.1.1-.2.3l-.1.1-8.5 9.5-.2.2q-.2.1-.3.2-.2 0-.4.1H12q-.6 0-1.1-.4l-.1-.1-8.5-9.5q-.1-.1-.2-.3-.1-.1-.1-.2v-.3q0-.2.1-.3v-.1l3.1-5v-.1l.1-.1.1-.1h.1l.1-.1h.1l.1-.1H6zM9.1 7.9q-.2-.1-.4-.1h-.3L8 8q-.2.1-.3.3l-.6 1v.1q-.1.1-.1.3v.3q0 .1.1.2.1.2.2.3l2 2.2.1.1q.1.1.3.1.1.1.3.1t.4-.1q.1 0 .3-.2l.1-.1q.1-.1.1-.3.1-.1.1-.3t-.1-.4q0-.1-.2-.3L9.2 9.7l.3-.4v-.1q.1-.2.1-.3v-.4q-.1-.2-.2-.3-.1-.2-.3-.3" style="fill:#f1667f"/></svg>