<svg xmlns="http://www.w3.org/2000/svg" width="16" height="16" version="1.2"><path d="M4.2 3c-1.1 0-1.7 0-2.1.2q-.6.3-.9.9c-.2.4-.2 1-.2 2.1v3.6c0 1.1 0 1.7.2 2.1q.3.6.9.9c.4.2 1 .2 2.1.2h7.6c1.1 0 1.7 0 2.1-.2q.6-.3.9-.9c.2-.4.2-1 .2-2.1V6.2c0-1.1 0-1.7-.2-2.1q-.3-.6-.9-.9c-.4-.2-1-.2-2.1-.2zM2.743 4.344h3.7l.2.2q.1 0 .1.1v1.001q0 .099-.1.199-.1.001-.2.101h-.401q-.1-.1-.2-.101-.099-.1-.099-.2v-.199h-.6v4q-.1.1-.101.2-.1.1-.2.1h-.4q-.099 0-.199-.1t-.1-.2q-.1-.1-.101-.2v-3.8h-.5q0 .1-.1.2 0 .099-.1.199l-.099.101h-.5l-.1-.101-.2-.2v-1q.1-.1.2-.1 0-.1.1-.2m7.1 0h.401l.099.101q.1 0 .1.1l.099.1.885 1.408.916-1.408q0-.1.1-.2t.2-.101h.2q.099.001.199.101.1 0 .201.1 0 .1.1.2v.2q-.1.1-.1.2l-1.18 1.921 1.18 1.88q0 .099.1.199v.199q-.1.1-.1.2l-.201.2h-.398q-.101 0-.202-.1-.1.001-.1-.1l-.915-1.439-.885 1.44q-.1.1-.2.1-.099.1-.198.1h-.401q-.1-.1-.1-.2-.1-.101-.101-.201v-.399l1.223-1.879-1.223-1.921v-.4q0-.1.102-.2-.001-.1.1-.1.099-.001.099-.101m-3.301 2.2h2.601q.1.101.2.1.1.1.1.2.099.1.099.2t-.1.2q0 .101-.1.201-.099.1-.198.1-.101.1-.202.1h-1.6v1h1.1q.101-.001.202.1.099 0 .199.099 0 .1.1.2v.401q-.1.1-.1.2-.1.1-.2.1h-1.3v1.099h1.6q.1.001.2.101.1 0 .2.1t.1.2q.099.1.099.2t-.1.2q0 .099-.1.199-.099.001-.198.101H6.543l-.1-.101-.199-.2v-4.8l.2-.2z" style="fill:#a67cf8"/></svg>