<svg xmlns="http://www.w3.org/2000/svg" width="16" height="16" version="1.2"><path d="M6 2c-1.4 0-2.1 0-2.6.3-.5.2-.9.6-1.1 1.1C2 3.9 2 4.6 2 6v4c0 1.4 0 2.1.3 2.6.2.5.6.9 1.1 1.1.5.3 1.2.3 2.6.3h4c1.4 0 2.1 0 2.6-.3.5-.2.9-.6 1.1-1.1.3-.5.3-1.2.3-2.6V6c0-1.4 0-2.1-.3-2.6-.2-.5-.6-.9-1.1-1.1C12.1 2 11.4 2 10 2zm-.6 1.9q.3 0 .5.1.2.2.2.5v.4q.4 0 .8.1t.6.3q.3.2.3.5a.68.68 0 0 1-.2.5q-.3.2-.6.2-.1 0-.3-.1-.1 0-.3-.1a.9.9 0 0 1-.4-.1q-.2-.1-.6-.1h-.2q-.2 0-.3.1-.1 0-.2.1v.2q0 .1.1.2t.4.1q.2.1.6.1a5.3 5.3 0 0 1 1.1.3q.6.2.8.5.3.3.3.9 0 .5-.2.8-.3.4-.8.6a3.6 3.6 0 0 1-.9.3v.3q0 .4-.2.5a.68.68 0 0 1-.5.2.68.68 0 0 1-.5-.2q-.2-.1-.2-.5v-.3l-1-.2q-.4-.1-.7-.4-.3-.2-.3-.5t.3-.5q.2-.2.5-.2.1 0 .3.1.2 0 .3.1l.4.2q.2 0 .4.1H6q.2-.1.2-.4 0-.1-.1-.2a.9.9 0 0 1-.4-.1q-.3-.1-.6-.1-.7-.1-1.2-.4-.5-.2-.7-.5a1.46 1.46 0 0 1-.3-.9q0-.5.2-.8.3-.3.7-.5.4-.1.9-.2v-.4q0-.3.2-.5.2-.1.5-.1m4.2 6.2h1.7q.5 0 .7.2t.2.5-.2.5-.7.2H9.6q-.5 0-.7-.2a.68.68 0 0 1-.2-.5q0-.3.2-.5t.7-.2" style="fill:#8cc162"/></svg>