<svg xmlns="http://www.w3.org/2000/svg" width="16" height="16" fill="none"><path fill="#A67CF8" d="M1 9V7.5A1.5 1.5 0 0 0 2.5 6v-.5a3 3 0 0 1 3-3H6V4h-.5A1.5 1.5 0 0 0 4 5.5V6a3 3 0 0 1-3 3m14 0V7.5A1.5 1.5 0 0 1 13.5 6v-.5a3 3 0 0 0-3-3H10V4h.5A1.5 1.5 0 0 1 12 5.5V6a3 3 0 0 0 3 3"/><path fill="#A67CF8" d="M1 7.5V9a1.5 1.5 0 0 1 1.5 1.5v.5a3 3 0 0 0 3 3H6v-1.5h-.5A1.5 1.5 0 0 1 4 11v-.5a3 3 0 0 0-3-3m14 0V9a1.5 1.5 0 0 0-1.5 1.5v.5a3 3 0 0 1-3 3H10v-1.5h.5A1.5 1.5 0 0 0 12 11v-.5a3 3 0 0 1 3-3"/><circle cx="8" cy="6" r="1" fill="#A67CF8"/><path fill="#A67CF8" d="M7.5 12H7v-2a1 1 0 0 1 2 0v.086a1 1 0 0 1-.293.707z"/></svg>