<svg xmlns="http://www.w3.org/2000/svg" id="svg1" width="16" height="16" version="1.2"><style id="style1">.s0{fill:#f5aa52}</style><path id="path1" d="M6 2c-1.4 0-2.1 0-2.6.3-.5.2-.9.6-1.1 1.1C2 3.9 2 4.6 2 6v4c0 1.4 0 2.1.3 2.6.2.5.6.9 1.1 1.1.5.3 1.2.3 2.6.3h4c1.4 0 2.1 0 2.6-.3.5-.2.9-.6 1.1-1.1.3-.5.3-1.2.3-2.6V6c0-1.4 0-2.1-.3-2.6-.2-.5-.6-.9-1.1-1.1C12.1 2 11.4 2 10 2H8.9c0 .5-.4.9-.9.9s-.9-.4-.9-.9zm-.2 2.3h4.5c.4 0 .7.3.7.7s-.3.8-.7.8H5.8c-.5 0-.8-.4-.8-.8s.3-.7.8-.7m-.1 3h4.5c.5 0 .8.3.8.7s-.3.8-.8.8H5.7c-.4 0-.7-.4-.7-.8s.3-.7.7-.7m0 3h2.6c.4 0 .7.3.7.7s-.3.7-.7.7H5.7c-.4 0-.7-.3-.7-.7s.3-.7.7-.7" class="s0"/><path id="Forma 1" d="M8 .3c-.9 0-1.7.8-1.7 1.7S7.1 3.7 8 3.7 9.7 2.9 9.7 2 8.9.3 8 .3m0 .8c.5 0 .9.4.9.9s-.4.9-.9.9-.9-.4-.9-.9.4-.9.9-.9" class="s0"/></svg>