<svg xmlns="http://www.w3.org/2000/svg" width="16" height="16" version="1.2"><path d="M6 2c-1.4 0-2.1 0-2.6.3-.5.2-.9.6-1.1 1.1C2 3.9 2 4.6 2 6v4c0 1.4 0 2.1.3 2.6.2.5.6.9 1.1 1.1.5.3 1.2.3 2.6.3h4c1.4 0 2.1 0 2.6-.3.5-.2.9-.6 1.1-1.1.3-.5.3-1.2.3-2.6V6c0-1.4 0-2.1-.3-2.6-.2-.5-.6-.9-1.1-1.1C12.1 2 11.4 2 10 2ZM5 4h1c.6 0 1 .4 1 1s-.4 1-1 1H5c-.6 0-1-.4-1-1s.4-1 1-1m5 0h1c.6 0 1 .4 1 1s-.4 1-1 1h-1c-.6 0-1-.4-1-1s.4-1 1-1M5 7h1c.6 0 1 .4 1 1s-.4 1-1 1H5c-.6 0-1-.4-1-1s.4-1 1-1m5 0h1c.6 0 1 .4 1 1s-.4 1-1 1h-1c-.6 0-1-.4-1-1s.4-1 1-1m-5 3h1c.6 0 1 .4 1 1s-.4 1-1 1H5c-.6 0-1-.4-1-1s.4-1 1-1m5 0h1c.6 0 1 .4 1 1s-.4 1-1 1h-1c-.6 0-1-.4-1-1s.4-1 1-1" style="fill:#8cc162"/></svg>