<svg xmlns="http://www.w3.org/2000/svg" width="16" height="16" fill="none"><path fill="#F17F66" d="M15 13.044v.585a.62.62 0 0 1-.62.621h-.255l-.023-.067a1.82 1.82 0 0 0-1.727-1.245l-1.694.592A7.643 7.643 0 0 1 1 9h.875a12.4 12.4 0 0 0 5.56 1.313H8L2.827 5.538c-.19-.175-.284-.263-.352-.367a1 1 0 0 1-.132-.301c-.03-.12-.03-.25-.03-.508v-.175h.362c.19 0 .285 0 .377.018a1 1 0 0 1 .236.075c.084.04.162.095.317.206L6.25 6.375l-1.817-2.18c-.137-.165-.206-.247-.255-.34a1 1 0 0 1-.094-.26c-.021-.102-.021-.21-.021-.424v-.296h.252c.23 0 .345 0 .454.025a1 1 0 0 1 .276.107c.097.055.182.133.351.289l4.792 4.392v-.074a9.2 9.2 0 0 0-1.313-4.739V2l1.151.493a6.354 6.354 0 0 1 3.662 7.382c.84.84 1.312 1.98 1.312 3.169"/></svg>