<svg xmlns="http://www.w3.org/2000/svg" width="16" height="16" fill="none"><path fill="#7380F9" fill-rule="evenodd" d="M7.5 7h1.9c.56 0 .84 0 1.054-.109a1 1 0 0 0 .437-.437C11 6.24 11 5.96 11 5.4v-.7c0-1.117 0-1.675-.147-2.127A3 3 0 0 0 8.927.647C8.475.5 7.917.5 6.8.5c-.745 0-1.117 0-1.418.098a2 2 0 0 0-1.284 1.284C4 2.183 4 2.555 4 3.3v.2h3.5v1H4.714A3.714 3.714 0 0 0 1 8.214V8.5A2.5 2.5 0 0 0 3.5 11c0-1.4 0-2.1.272-2.635a2.5 2.5 0 0 1 1.093-1.093C5.4 7 6.1 7 7.5 7m-1-4.75a.75.75 0 1 0-1.5 0 .75.75 0 0 0 1.5 0" clip-rule="evenodd"/><path fill="#F5AA52" fill-rule="evenodd" d="M8.5 8.5H6.6c-.56 0-.84 0-1.054.109a1 1 0 0 0-.437.437C5 9.26 5 9.54 5 10.1v.7c0 1.117 0 1.675.147 2.127a3 3 0 0 0 1.926 1.926C7.525 15 8.083 15 9.2 15c.745 0 1.117 0 1.418-.098a2 2 0 0 0 1.284-1.284C12 13.317 12 12.944 12 12.2V12H8.5v-1h2.786A3.714 3.714 0 0 0 15 7.286V7a2.5 2.5 0 0 0-2.5-2.5c0 1.4 0 2.1-.273 2.635a2.5 2.5 0 0 1-1.092 1.093C10.6 8.5 9.9 8.5 8.5 8.5m1 4.75a.75.75 0 1 0 1.5 0 .75.75 0 0 0-1.5 0" clip-rule="evenodd"/></svg>