<svg xmlns="http://www.w3.org/2000/svg" width="16" height="16" version="1.2"><path fill-rule="evenodd" d="M4.9.5c.1 0 .2.1.4.3a2.413 2.413 0 0 0 3.4 0c.2-.2.3-.3.4-.3q.1-.1.3-.1s.1.1.3.1q.8.4 1.5.9.3.15.3.3.1.1.1.2c0 .1 0 .2-.1.5-.1.6-.1 1.3.3 1.9.3.5.8.9 1.4 1.1.3.1.4.1.5.2q.1 0 .2.1v.4q.1.2.1.5-.1-.1-.2-.1H8.9C8.7 5.6 7.9 5 7 5c-1.1 0-2 .9-2 2v.4q-.7.5-1.1 1.3c-.2.5-.3 1-.4 1.5v2.9q-.4-.3-.7-.5-.3-.15-.3-.3-.1-.1-.1-.2c0-.1 0-.2.1-.5.1-.6.1-1.3-.3-1.9-.3-.5-.8-.9-1.4-1.1-.3-.1-.4-.1-.5-.2q-.1 0-.2-.1v-.4Q0 7.5 0 7t.1-.9v-.4q.1-.1.2-.1c.1-.1.2-.1.5-.2.6-.2 1.1-.6 1.4-1.1.4-.6.4-1.3.3-1.9-.1-.3-.1-.4-.1-.5q0-.1.1-.2 0-.15.3-.3.7-.5 1.5-.9c.2 0 .3-.1.3-.1q.2 0 .3.1" style="fill:#8080a0"/><path d="M9 8c-1.4 0-2.1 0-2.6.3-.5.2-.9.6-1.1 1.1C5 9.9 5 10.6 5 12s0 2.1.3 2.6c.2.5.6.9 1.1 1.1.5.3 1.2.3 2.6.3h3c1.4 0 2.1 0 2.6-.3.5-.2.9-.6 1.1-1.1.3-.5.3-1.2.3-2.6s0-2.1-.3-2.6c-.2-.5-.6-.9-1.1-1.1C14.1 8 13.4 8 12 8zm0 1.4q.7 0 .7.9v2.4q0 .9-.2 1.4-.3.5-.8.8-.6.2-1.2.2t-1.1-.2a1.8 1.8 0 0 1-.8-.6q-.3-.4-.3-1.1 0-.3.2-.4a.68.68 0 0 1 .5-.2q.3 0 .5.2.2.201.3.6 0 .2.1.4.1.1.3.2h.3q.3 0 .4-.1.2-.1.3-.4.1-.4.1-.9v-2.3q0-.9.7-.9m4.4 0q.5 0 1 .1t.8.4a.65.65 0 0 1 .3.3q.1.2.1.4t-.2.4q-.1.1-.4.1t-.4-.1a1.2 1.2 0 0 1-.3-.2 1.6 1.6 0 0 0-.4-.3q-.2-.1-.5-.1t-.4.1q-.2 0-.3.2-.1.1-.1.2 0 .2.3.4.2.2.8.3.6.2 1.1.4t.7.5q.3.4.3.9 0 .501-.3.9-.3.4-.9.6-.5.2-1.2.2t-1.2-.2q-.5-.1-.8-.4-.4-.3-.4-.7 0-.2.1-.4a.68.68 0 0 1 .5-.2q.2 0 .4.1a.65.65 0 0 1 .3.3q.2.2.5.3.201.1.6.1h.4l.4-.2q.1-.2.1-.3 0-.3-.3-.5-.3-.1-.9-.2-1.101-.3-1.5-.7a1.64 1.64 0 0 1-.5-1.2q0-.4.3-.8.3-.3.8-.5.6-.2 1.2-.2" style="fill:#f5aa52"/></svg>