<svg xmlns="http://www.w3.org/2000/svg" width="16" height="16" fill="none"><path fill="#8CC162" fill-rule="evenodd" d="M2 6c0-1.4 0-2.1.272-2.635a2.5 2.5 0 0 1 1.093-1.093C3.9 2 4.6 2 6 2v.4c0 .56 0 .84.109 1.054a1 1 0 0 0 .437.437C6.76 4 7.04 4 7.6 4H8v2H7a1 1 0 0 0 0 2h1v2H7a1 1 0 1 0 0 2h1v2H6c-1.4 0-2.1 0-2.635-.273a2.5 2.5 0 0 1-1.093-1.092C2 12.1 2 11.4 2 10zm6 6v-2h1a1 1 0 0 0 0-2H8V6h1a1 1 0 0 0 0-2H8V2h2c1.4 0 2.1 0 2.635.272a2.5 2.5 0 0 1 1.092 1.093C14 3.9 14 4.6 14 6v4c0 1.4 0 2.1-.273 2.635a2.5 2.5 0 0 1-1.092 1.092C12.1 14 11.4 14 10 14v-.4c0-.56 0-.84-.109-1.054a1 1 0 0 0-.437-.437C9.24 12 8.96 12 8.4 12z" clip-rule="evenodd"/></svg>