<svg xmlns="http://www.w3.org/2000/svg" width="16" height="16" version="1.2"><path d="M8 1.35q-.2 0-.4.05c-.3 0-.6.2-1.2.5L3.6 3.6c-.6.3-.9.5-1.1.7q-.3.3-.4.7c-.1.3-.1.7-.1 1.3v3.4c0 .225.002.416.008.591q.044.115.092.209a.66.66 0 0 0 .3.3h.4q.3 0 .5-.1.2-.201.3-.6.2-.4.2-1V6.2q0-1 .8-1 1 0 1 1v3q0 1.1-.4 1.7-.4.7-1 .9-.494.246-1.122.29C4.192 12.8 6.4 14.1 6.4 14.1c.6.3.9.5 1.2.5q.4.099.8 0c.3 0 .6-.2 1.2-.5l2.8-1.7c.6-.3.9-.5 1.1-.7q.3-.3.4-.7c.1-.3.1-.7.1-1.3V6.3c0-.6 0-1-.1-1.3q-.1-.4-.4-.7c-.2-.2-.5-.4-1.1-.7L9.6 1.9c-.6-.3-.9-.5-1.2-.5a1.7 1.7 0 0 0-.4-.05m2.1 3.75q.6 0 1.1.2.6.1 1 .4l.4.4q.1.2.1.5t-.2.5a.68.68 0 0 1-.5.2q-.3 0-.6-.2a.65.65 0 0 1-.3-.3 1.6 1.6 0 0 0-.4-.3q-.3-.1-.7-.1-.3 0-.5.1l-.4.2Q9 6.8 9 7q0 .3.4.5.3.2 1 .4.8.2 1.3.4.6.3.9.7t.3 1-.3 1.1q-.4.5-1.1.8-.7.2-1.5.2t-1.4-.2-1-.5q-.5-.4-.5-.9 0-.2.1-.5.2-.2.6-.2.3 0 .5.1l.4.4.6.4q.3.1.7.1h.6q.2-.1.4-.3a.9.9 0 0 0 .1-.4q0-.3-.4-.5-.3-.2-1-.3-1.3-.3-1.9-.9T7.2 7q0-.6.4-1 .3-.4 1-.6.699-.3 1.5-.3" style="fill:#8cc162"/></svg>