<?xml version="1.0" encoding="UTF-8" standalone="no"?>
<svg
   version="1.2"
   viewBox="0 0 16 16"
   width="16"
   height="16"
   id="svg1"
   xmlns="http://www.w3.org/2000/svg"
   xmlns:svg="http://www.w3.org/2000/svg">
  <defs
     id="defs1" />
  <title
     id="title1">hexagon-svg</title>
  <style
     id="style1">
		.s0 { fill: #F1667F }
		.s1 { fill: #000000 }
	</style>
  <path
     id="path1"
     class="s0"
     d="m 8.0253906,0.34960938 c -0.1833333,0 -0.3587239,0.0174479 -0.5253906,0.0507812 -0.4,0.1 -0.7003906,0.29921875 -1.4003906,0.69921882 L 3,2.9003906 c -0.7,0.4 -1.1007813,0.6003907 -1.3007812,0.9003906 -0.2666667,0.2666667 -0.4333334,0.5651042 -0.5,0.8984376 C 0.99921875,5.0992187 1,5.5007813 1,6.3007812 v 3.3984376 c 0,0.8000002 -3.9063e-4,1.3011722 0.099609,1.7011722 0.1333333,0.333333 0.3329427,0.633724 0.5996094,0.90039 0.2,0.3 0.6007812,0.498438 1.3007812,0.898438 l 3,1.701172 c 0.7,0.4 1.1003906,0.599218 1.4003906,0.699218 0.4,0.06667 0.7662761,0.06667 1.0996094,0 0.4,-0.1 0.7003906,-0.299218 1.4003906,-0.699218 L 13,13.099609 c 0.7,-0.4 1.100781,-0.60039 1.300781,-0.90039 0.266667,-0.266667 0.433334,-0.565104 0.5,-0.898438 C 15.000781,10.900781 15,10.499219 15,9.6992188 V 6.3007812 c 0,-0.8 3.91e-4,-1.3011718 -0.09961,-1.7011718 C 14.767057,4.266276 14.567448,3.9658854 14.300781,3.6992188 14.100781,3.3992187 13.7,3.2007812 13,2.8007812 L 10,1.0996094 C 9.3,0.69960938 8.8996094,0.50039062 8.5996094,0.40039062 8.3996094,0.36705729 8.208724,0.34960938 8.0253906,0.34960938 Z M 8.1631,4.5778703 c 0.3333334,0 0.6317709,0.067838 0.8984376,0.2011718 0.3333333,0.066667 0.6007812,0.1654948 0.8007812,0.2988282 0.2666672,0.2 0.4662762,0.3996094 0.5996092,0.5996094 0.133334,0.2 0.201172,0.4345052 0.201172,0.7011718 0,0.2 -0.100781,0.3666667 -0.300781,0.5 -0.133333,0.1333334 -0.3,0.1992188 -0.5000002,0.1992188 -0.2666667,0 -0.4333333,-0.032943 -0.5,-0.099609 C 9.2289855,6.8449276 9.1282042,6.7112036 9.0615376,6.5778703 c 0,-0.1333334 -0.032943,-0.2321615 -0.099609,-0.2988282 L 8.6631,5.9782609 c -0.1333333,-0.066667 -0.2999999,-0.099609 -0.5,-0.099609 -0.2666666,0 -0.5011718,0.065885 -0.7011718,0.1992188 C 7.1952615,6.2112036 6.9956521,6.4457088 6.8623188,6.7790421 6.7289855,7.1123755 6.6631,7.5445369 6.6631,8.0778703 c 1e-7,0.5333333 0.065886,0.9674479 0.1992188,1.3007812 0.1333333,0.3333334 0.3329427,0.5658854 0.5996094,0.6992185 0.2,0.133334 0.4345052,0.201172 0.7011718,0.201172 0.2000001,0 0.3666667,-0.0349 0.5,-0.101562 0.066667,-0.06667 0.1654948,-0.132552 0.2988282,-0.1992191 0.066667,-0.133333 0.099609,-0.267057 0.099609,-0.400391 0.066667,-0.133333 0.1674479,-0.2321611 0.3007812,-0.2988278 0.066667,-0.1333333 0.2333333,-0.2011718 0.5,-0.2011718 0.2000006,0 0.3666676,0.067839 0.5000006,0.2011718 0.2,0.1333334 0.300781,0.3329428 0.300781,0.5996098 0,0.2000001 -0.06784,0.3996091 -0.201172,0.5996091 -0.133333,0.266667 -0.332942,0.466276 -0.5996096,0.599609 -0.2,0.133334 -0.4674479,0.267058 -0.8007812,0.400391 -0.2666667,0.06667 -0.5469317,0.09474 -0.8984376,0.09961 -0.3515059,0.0049 -0.8011718,-0.03294 -1.2011718,-0.09961 -0.3333334,-0.133333 -0.6666667,-0.332943 -1,-0.599609 C 5.6285948,10.611985 5.3631,10.245709 5.1631,9.7790419 4.9631001,9.3123755 4.8623188,8.7445369 4.8623188,8.0778703 4.8623188,7.4112036 4.9631,6.8453182 5.1631,6.3786515 c 0.2000001,-0.4666666 0.4654948,-0.8 0.7988282,-1 0.3333333,-0.2666666 0.6666666,-0.466276 1,-0.5996094 0.4,-0.1333333 0.8011719,-0.2011718 1.2011718,-0.2011718 z" />
</svg>
