<svg xmlns="http://www.w3.org/2000/svg" width="16" height="16" version="1.2"><path d="M8.025.35Q7.751.35 7.5.4c-.4.1-.7.3-1.4.7L3 2.9c-.7.4-1.1.6-1.3.9a1.74 1.74 0 0 0-.5.9c-.2.4-.2.8-.2 1.6v3.4c0 .8 0 1.3.1 1.7q.2.501.6.9c.2.3.6.5 1.3.9l3 1.7c.7.4 1.1.6 1.4.7q.6.099 1.1 0c.4-.1.7-.3 1.4-.7l3.1-1.8c.7-.4 1.1-.6 1.3-.9q.4-.4.5-.9c.2-.4.2-.8.2-1.6V6.3c0-.8 0-1.3-.1-1.7a2.7 2.7 0 0 0-.6-.9c-.2-.3-.6-.5-1.3-.9l-3-1.7C9.3.7 8.9.5 8.6.4Q8.3.35 8.025.35m.138 4.228q.499 0 .899.201.5.1.8.299.4.3.6.6t.201.7q0 .3-.3.5-.2.2-.5.2-.4 0-.5-.1a1.6 1.6 0 0 1-.301-.4q0-.199-.1-.299l-.299-.3q-.2-.1-.5-.1-.4 0-.701.199-.4.2-.6.701t-.199 1.299q0 .8.2 1.3.199.5.599.7.3.2.701.201.3 0 .5-.102.1-.099.299-.199a.9.9 0 0 0 .1-.4.65.65 0 0 1 .3-.299q.1-.2.5-.201.3 0 .5.201.3.2.301.6 0 .3-.201.6a1.3 1.3 0 0 1-.6.599q-.3.2-.8.4a4 4 0 0 1-.899.1 7 7 0 0 1-1.201-.1 4 4 0 0 1-1-.6q-.5-.399-.799-1.099t-.3-1.701q0-1 .3-1.7t.799-1a4 4 0 0 1 1-.599q.6-.2 1.201-.201" style="fill:#f5aa52"/></svg>