<svg version="1.2" xmlns="http://www.w3.org/2000/svg" viewBox="0 0 16 16" width="16" height="16">
	<title>yarnlock</title>
	<style>
		.s0 { fill: #f1667f } 
	</style>
	<g id="Layer 1">
		<path fill-rule="evenodd" class="s0" d="m4.4 5.6v1.4c-0.7 0.5-1.2 1.4-1.2 2.3v1.9c0 1.5 1.2 2.7 2.8 2.7h4.3c1.5 0 2.8-1.2 2.8-2.7v-1.9c0-0.9-0.5-1.8-1.3-2.3v-1.4c0-1.5-1.2-2.8-2.8-2.8h-1.8c-1.5 0-2.8 1.3-2.8 2.8zm4.6-0.7h-1.8c-0.4 0-0.7 0.3-0.7 0.7v0.9h3.2v-0.9c0-0.4-0.3-0.7-0.7-0.7zm0.4 4.1c0 0.5-0.3 0.9-0.7 1.1v1.4c0 0.3-0.2 0.6-0.6 0.6-0.3 0-0.6-0.3-0.6-0.6v-1.4c-0.4-0.2-0.6-0.6-0.6-1.1 0-0.7 0.5-1.2 1.2-1.2 0.7 0 1.3 0.5 1.3 1.2z"/>
	</g>
</svg>