<svg xmlns="http://www.w3.org/2000/svg" width="16" height="16" fill="none"><path fill="#A67CF8" fill-rule="evenodd" d="M2 7c0-1.4 0-2.1.272-2.635a2.5 2.5 0 0 1 1.093-1.093c.389-.197.864-.252 1.632-.266L3.5 6H5l1.5-3H8L6.5 6H8l1.5-3h.5q.568-.001.997.005L9.5 6H11l1.411-2.823q.118.042.224.095a2.5 2.5 0 0 1 1.092 1.093C14 4.9 14 5.6 14 7v3c0 1.4 0 2.1-.273 2.635a2.5 2.5 0 0 1-1.092 1.092C12.1 14 11.4 14 10 14H6c-1.4 0-2.1 0-2.635-.273a2.5 2.5 0 0 1-1.093-1.092C2 12.1 2 11.4 2 10zm4 4.14c0 .448 0 .671.094.802a.5.5 0 0 0 .348.205c.16.019.356-.09.747-.307L9.24 10.7c.411-.229.617-.343.685-.494a.5.5 0 0 0 0-.412c-.068-.15-.274-.265-.685-.493L7.19 8.16c-.391-.218-.587-.327-.747-.308a.5.5 0 0 0-.348.205C6 8.188 6 8.412 6 8.86z" clip-rule="evenodd"/></svg>