<svg xmlns="http://www.w3.org/2000/svg" width="24" height="24" fill="none" color="#F17F66"><path d="M14.5 2.25c-1.312 0-2.292.839-2.93 1.76-.637.92-1.023 1.98-1.28 2.754a1 1 0 0 0-.026.09c-.167.835-.482 1.14-.776 1.302a1.2 1.2 0 0 1-.771.11c-.313-.115-.423-.281-.5-.594-.074-.299-.036-.676.012-.91l.24-.364a2.01 2.01 0 0 0-.463-2.707 2.01 2.01 0 0 0-2.861.49l-.047.069H4C2.49 4.25 1.25 5.49 1.25 7c0 .958.792 1.75 1.75 1.75h.87c.128 1.03.451 2.148 1.13 3.166a5 5 0 0 0 3.355 2.145l.838 3.765L7.9 19.551a.75.75 0 0 0 .6 1.199H12a.75.75 0 0 0 .75-.75v-5.291a7.75 7.75 0 0 0 4.1.33l.377 2.832-.897 1.793A.75.75 0 0 0 17 20.75h3a.75.75 0 0 0 .75-.75v-9.99c.278.458.5 1.045.5 1.99a.75.75 0 1 0 1.5 0c0-1.943-.799-3.204-1.621-3.889-.702-.584-1.244-.677-1.445-.724-.278-.349-.541-.72-.86-.998-.84-.736-1.35-1.636-1.892-2.453-.272-.41-.551-.803-.938-1.127A2.35 2.35 0 0 0 14.5 2.25" style="fill:currentColor;stroke-linecap:round;stroke-linejoin:round"/></svg>