<svg xmlns="http://www.w3.org/2000/svg" width="16" height="16" version="1.2"><path fill-rule="evenodd" d="M8 15c-3.9 0-7-3.1-7-7s3.1-7 7-7 7 3.1 7 7-3.1 7-7 7M6.8 8.8q.1.9.2 1.7 0 .3.1.5c.3 1 .6 1.6.9 1.6s.6-.6.9-1.6q.1-.2.1-.5.1-.8.2-1.7zM9 7.2H6.8q0-.9.1-1.7.1-.3.1-.5c.2-1 .5-1.6.9-1.6s.7.6.9 1.6q0 .2.1.5.1.8.1 1.7m2 1.6q0 1.7-.3 3-.1.3-.3.6c1.3-.7 2.3-2.1 2.5-3.6zm1.9-1.6H11c-.1-1.1-.2-2.1-.4-3q0-.3-.1-.6c1.3.7 2.1 2.1 2.4 3.6m-8.1 0H2.9C3.2 5.7 4 4.3 5.3 3.6q0 .3-.1.6c-.2.9-.3 1.9-.4 3m.4 4.6q.1.3.1.6c-1.3-.7-2.1-2.1-2.4-3.6h1.9c.1 1.1.2 2.1.4 3" style="fill:#5bafd4"/></svg>