<svg xmlns="http://www.w3.org/2000/svg" width="16" height="16" version="1.2"><path d="M6 2c-1.4 0-2.1 0-2.6.3-.5.2-.9.6-1.1 1.1C2 3.9 2 4.6 2 6v4c0 1.4 0 2.1.3 2.6.2.5.6.9 1.1 1.1.5.3 1.2.3 2.6.3h4c1.4 0 2.1 0 2.6-.3.5-.2.9-.6 1.1-1.1.3-.5.3-1.2.3-2.6V6c0-1.4 0-2.1-.3-2.6-.2-.5-.6-.9-1.1-1.1C12.1 2 11.4 2 10 2zM3.9 5.7h.2l3 1.5q.2.1.4.3.1.3.1.7v.1q0 .4-.1.7a1.6 1.6 0 0 1-.4.3l-3 1.5h-.2a.68.68 0 0 1-.5-.2.68.68 0 0 1-.2-.5q0-.3.1-.5.2-.1.3-.2.2-.2.4-.2l2.088-.95L4 7.3a.9.9 0 0 1-.4-.1l-.3-.3a1.1 1.1 0 0 1-.1-.5q0-.3.2-.5a.68.68 0 0 1 .5-.2m5.7 4.4h1.7q.5 0 .7.2t.2.5-.2.5-.7.2H9.6q-.5 0-.7-.2a.68.68 0 0 1-.2-.5q0-.3.2-.5t.7-.2" style="fill:#5bafd4"/></svg>