<svg xmlns="http://www.w3.org/2000/svg" width="16" height="16" version="1.2"><path d="M6.2 3c-1.1 0-1.7 0-2.1.2q-.6.3-.9.9c-.2.4-.2 1-.2 2.1v3.6c0 1.1 0 1.7.2 2.1q.3.6.9.9c.4.2 1 .2 2.1.2h3.6c1.1 0 1.7 0 2.1-.2q.6-.3.9-.9c.2-.4.2-1 .2-2.1V6.2c0-1.1 0-1.7-.2-2.1q-.3-.6-.9-.9c-.4-.2-1-.2-2.1-.2zm.4 3.1q.2 0 .3.2.2.1.2.4 0 .2-.1.3l-.2.2q-.2.1-.3.1L4.9 8l1.6.7q.1 0 .3.1L7 9q.1.1.1.3 0 .3-.2.4-.1.2-.3.2-.1 0-.2-.1l-2.1-1a.66.66 0 0 1-.3-.3q-.1-.1-.1-.4v-.2q0-.3.1-.4a.66.66 0 0 1 .3-.3l2.1-1q.1-.1.2-.1m2.7 0q.1 0 .2.1l2.1 1a.66.66 0 0 1 .3.3q.2.1.2.4v.2q0 .3-.2.4a.66.66 0 0 1-.3.3l-2.1 1q-.1.1-.2.1-.2 0-.3-.2-.2-.1-.2-.4 0-.2.1-.3l.2-.2q.2-.1.3-.1L11 8l-1.6-.7q-.1 0-.3-.1L8.9 7q-.1-.1-.1-.3 0-.3.2-.4.1-.2.3-.2" style="fill:#5bafd4"/></svg>