<svg xmlns="http://www.w3.org/2000/svg" width="16" height="16" fill="none"><path fill="#F1667F" fill-rule="evenodd" d="M2.772 3.365C2.5 3.9 2.5 4.6 2.5 6v5c0 1.4 0 2.1.272 2.635a2.5 2.5 0 0 0 1.093 1.092C4.4 15 5.1 15 6.5 15H10c1.4 0 2.1 0 2.635-.273a2.5 2.5 0 0 0 1.092-1.092C14 13.1 14 12.4 14 11V7.325c0-.489 0-.733-.055-.963q-.075-.309-.24-.579c-.123-.201-.296-.374-.642-.72l-2.126-2.126c-.346-.346-.519-.519-.72-.642a2 2 0 0 0-.579-.24C9.408 2 9.164 2 8.675 2H6.5c-1.4 0-2.1 0-2.635.272a2.5 2.5 0 0 0-1.093 1.093M7 11V8.5l3-1V10h-.5a1 1 0 1 0 0 2h.25c.69 0 1.25-.56 1.25-1.25V5.682c0-.396 0-.594-.083-.72a.5.5 0 0 0-.315-.213c-.148-.03-.332.043-.7.19l-3.4 1.36c-.18.072-.271.109-.338.17a.5.5 0 0 0-.132.195C6 6.748 6 6.846 6 7.042V11h-.5a1 1 0 1 0 0 2h.25C6.44 13 7 12.44 7 11.75z" clip-rule="evenodd"/></svg>