<svg xmlns="http://www.w3.org/2000/svg" width="24" height="24" version="1.2"><path d="M12 1a2.986 2.986 0 0 0-2.871 2.258c-.025.098-.096.23-.195.377-.11.1-.228.194-.381.271-.058.03-.099.045-.256.014A1 1 0 0 0 8.1 3.9c-.017 0-.06.005-.2-.1a1 1 0 0 0-.093-.062c-1.25-.734-2.718-.366-3.577.492-.858.859-1.226 2.328-.492 3.577a1 1 0 0 0 .063.093c.104.14.1.183.1.2a1 1 0 0 0 .019.197c.031.157.015.198-.014.256-.077.153-.17.27-.271.38-.147.1-.28.171-.377.196A2.986 2.986 0 0 0 1 12c0 1.229.832 2.515 2.258 2.871.098.025.23.096.377.195.1.11.194.228.271.381.03.058.045.099.014.256a1 1 0 0 0-.02.197c0 .017.005.06-.1.2a1 1 0 0 0-.062.093c-.734 1.25-.366 2.718.492 3.577.859.858 2.328 1.226 3.577.492a1 1 0 0 0 .093-.063c.14-.104.183-.1.2-.1a1 1 0 0 0 .197-.019c.157-.031.198-.015.256.014.153.077.27.17.38.271.1.147.171.28.196.377A2.986 2.986 0 0 0 12 23a2.986 2.986 0 0 0 2.871-2.258c.025-.098.096-.23.195-.377.11-.1.228-.194.381-.271.058-.03.099-.045.256-.014a1 1 0 0 0 .197.02c.017 0 .06-.005.2.1a1 1 0 0 0 .093.062c1.25.734 2.718.366 3.577-.492.858-.859 1.226-2.328.492-3.577a1 1 0 0 0-.063-.093c-.104-.14-.1-.183-.1-.2a1 1 0 0 0-.019-.197c-.031-.157-.015-.198.014-.256.077-.153.17-.27.271-.38.147-.1.28-.171.377-.196A2.986 2.986 0 0 0 23 12a2.986 2.986 0 0 0-2.258-2.871 1.4 1.4 0 0 1-.377-.195 1.6 1.6 0 0 1-.271-.381c-.03-.058-.045-.099-.014-.256a1 1 0 0 0 .02-.197c0-.017-.005-.06.1-.2a1 1 0 0 0 .062-.093c.734-1.25.366-2.718-.492-3.577-.859-.858-2.328-1.226-3.577-.492a1 1 0 0 0-.093.063c-.14.104-.183.1-.2.1a1 1 0 0 0-.197.019c-.157.031-.198.015-.256-.014a1.6 1.6 0 0 1-.38-.271c-.1-.147-.171-.28-.196-.377A2.986 2.986 0 0 0 12 1M5 7h9c.767 0 1.53.316 2.107.893.577.576.893 1.34.893 2.107s-.316 1.53-.893 2.107c-.161.162-.34.3-.527.42q.076.146.135.305c.17.366.285.762.285 1.168 0 .1.02.206.094.354a1 1 0 0 1 .054.13c.004.01.037.088.159.21a.7.7 0 0 0 .209.158 1 1 0 0 1 .13.054A.75.75 0 0 0 17 15h2a1 1 0 0 1 1 1 1 1 0 0 1-1 1h-2c-.406 0-.802-.114-1.168-.285a2.6 2.6 0 0 1-.94-.608 2.6 2.6 0 0 1-.607-.939A2.8 2.8 0 0 1 14 14c0-.1-.02-.206-.094-.354a1 1 0 0 1-.054-.13.7.7 0 0 0-.159-.21.7.7 0 0 0-.209-.158 1 1 0 0 1-.13-.054A.75.75 0 0 0 13 13H9v2a1 1 0 0 1 1 1 1 1 0 0 1-1 1H5a1 1 0 0 1-1-1 1 1 0 0 1 1-1h2V9H5a1 1 0 0 1-1-1 1 1 0 0 1 1-1m4 2v2h5c.233 0 .47-.083.693-.307.224-.223.307-.46.307-.693s-.083-.47-.307-.693C14.47 9.083 14.233 9 14 9z" style="fill:#f17f66"/></svg>