<svg xmlns="http://www.w3.org/2000/svg" width="16" height="16" version="1.2"><path d="M6 2c-1.4 0-2.1 0-2.6.3-.5.2-.9.6-1.1 1.1C2 3.9 2 4.6 2 6v4c0 1.4 0 2.1.3 2.6.2.5.6.9 1.1 1.1.5.3 1.2.3 2.6.3h4c1.4 0 2.1 0 2.6-.3.5-.2.9-.6 1.1-1.1.3-.5.3-1.2.3-2.6V6c0-1.4 0-2.1-.3-2.6-.2-.5-.6-.9-1.1-1.1C12.1 2 11.4 2 10 2zM4.1 7.4h3.1q.9 0 .9.6 0 .2-.2.3-.2.2-.5.2h-1v3.8q0 .8-.7.8-.8 0-.8-.8V8.5h-.8q-.4 0-.6-.2-.2-.1-.2-.3 0-.3.2-.4.2-.2.6-.2m7.2 0q.5 0 1 .1.4.1.8.4l.3.3q.1.2.1.4t-.2.4q-.2.1-.4.1-.3 0-.5-.1-.1-.1-.3-.2-.1-.2-.3-.3t-.5-.1-.5.1q-.1 0-.2.2-.1.1-.1.2 0 .2.2.4.3.2.9.3.6.2 1.1.4.4.2.7.5.3.4.3.9t-.3.9q-.4.4-.9.6t-1.3.2q-.6 0-1.1-.2-.5-.1-.8-.4-.4-.3-.4-.7 0-.2.1-.4t.4-.2.5.1.3.3q.2.2.5.3.2.1.6.1h.4q.2-.1.3-.2.2-.2.2-.3 0-.3-.3-.5-.3-.1-.9-.2-1.1-.3-1.6-.7Q9 9.6 9 8.9q0-.4.3-.8.3-.3.8-.5.6-.2 1.2-.2" style="fill:#7380f9"/></svg>