<svg version="1.2" xmlns="http://www.w3.org/2000/svg" viewBox="0 0 16 16" width="16" height="16">
	<title>sln-svg</title>
	<style>
		.s0 { fill: #A67CF8 }
	</style>
	<path class="s0" d="m13.8 4.1q-0.1-0.1-0.2-0.1-0.1 0-0.1 0-0.1 0-0.2 0-0.1 0.1-0.1 0.1l-0.1 0.1-2.1 2-1.9 1.8-2.2 2.1-2 2h-0.1q0 0 0 0.1-0.1 0-0.1 0-0.1 0-0.1 0-0.1 0.1-0.1 0.1 0-0.1-0.1-0.1 0 0-0.1 0 0 0 0 0-0.1 0-0.1 0l-2-1.5q0.1 0 0.2 0 0.1 0.1 0.2 0 0 0 0.1 0 0.1-0.1 0.2-0.1l1.1-1.3 1.1-1.3 1.8-2.1 3.2-3.7q0-0.1 0.1-0.1 0 0 0.1-0.1 0 0 0.1 0 0 0 0.1 0 0.1 0 0.3 0.1z"/>
	<path class="s0" d="m13.8 11.9l-3 2q-0.1 0.1-0.2 0.1-0.1 0-0.2 0-0.1 0-0.1-0.1-0.1 0-0.2-0.1l-3.2-3.7-1.8-2.1-1.1-1.3-1.1-1.3q-0.1 0-0.2-0.1-0.1 0-0.1 0-0.1-0.1-0.2 0-0.1 0-0.2 0.1l2-1.5q0.1-0.1 0.1-0.1 0.1 0 0.1 0 0.1-0.1 0.2 0 0 0 0.1 0 0.1 0 0.1 0.1h0.1l2 2 2.2 2.1 1.9 1.8 2.1 2 0.1 0.1q0 0 0 0 0.1 0 0.1 0.1 0.1 0 0.1 0 0.1 0 0.1 0 0 0 0.1 0 0 0 0 0 0.1 0 0.1 0 0-0.1 0.1-0.1z"/>
	<path class="s0" d="m14 4.5v7q0 0.1 0 0.1 0 0.1-0.1 0.1 0 0.1 0 0.1-0.1 0.1-0.1 0.1l-3 2q0 0 0.1-0.1 0 0 0-0.1 0.1 0 0.1-0.1 0 0 0-0.1v-11q0-0.1 0-0.1 0-0.1-0.1-0.1 0-0.1 0-0.1-0.1-0.1-0.1-0.1l3 2q0 0 0.1 0.1 0 0 0 0.1 0.1 0 0.1 0.1 0 0 0 0.1z"/>
	<path class="s0" d="m4.2 12.2l-2-1.5q0-0.1-0.1-0.1 0-0.1 0-0.1-0.1-0.1-0.1-0.1 0-0.1 0-0.2v-4.4q0-0.1 0-0.2 0 0 0.1-0.1 0 0 0-0.1 0.1 0 0.1-0.1l2-1.4q0 0-0.1 0 0 0.1 0 0.1 0 0.1 0 0.1 0 0.1 0 0.2v7.5q0 0 0 0.1 0 0 0 0.1 0 0 0 0.1 0.1 0 0.1 0.1z"/>
</svg>