<svg xmlns="http://www.w3.org/2000/svg" width="16" height="16" version="1.2"><path d="M7 2c-1.4 0-2.1 0-2.6.3-.5.2-.9.6-1.1 1.1C3 3.9 3 4.6 3 6v5c0 1.4 0 2.1.3 2.6.2.5.6.9 1.1 1.1.5.3 1.2.3 2.6.3h3c1.4 0 2.1 0 2.6-.3.5-.2.9-.6 1.1-1.1.3-.5.3-1.2.3-2.6V7.3c0-.5 0-.7-.1-.9q0-.3-.2-.6c-.1-.2-.3-.4-.6-.7l-2.2-2.2c-.3-.3-.5-.5-.7-.6q-.3-.2-.6-.2C9.4 2 9.2 2 8.7 2zm1.17 2.23q.9 0 .9 1.399v.3h.301q1.3 0 1.299.901 0 .9-1.299.9h-.3v.3q0 1.4-.901 1.4-.9 0-.9-1.4v-.3h-.3q-1.4 0-1.4-.9t1.4-.9h.3v-.301q0-1.4.9-1.399m-1.2 6.7h2.401q1.3 0 1.299.9 0 .9-1.299.9h-2.4q-1.4 0-1.4-.9t1.4-.9" style="fill:#5bafd4"/></svg>