<svg xmlns="http://www.w3.org/2000/svg" width="16" height="16" version="1.2"><path d="M6.2 3c-1.1 0-1.7 0-2.1.2q-.6.3-.9.9c-.2.4-.2 1-.2 2.1v3.6c0 1.1 0 1.7.2 2.1q.3.6.9.9c.4.2 1 .2 2.1.2h3.6c1.1 0 1.7 0 2.1-.2q.6-.3.9-.9c.2-.4.2-1 .2-2.1V6.2c0-1.1 0-1.7-.2-2.1q-.3-.6-.9-.9c-.4-.2-1-.2-2.1-.2zm.1 2a.9.9 0 0 1 .4.1q.2.2.4.5L8 7.4l.9-1.8q.1-.3.3-.5.2-.1.5-.1t.5.2.2.4-.1.3q0 .1-.1.3L9 8.3q-.1.1-.1.2-.1 0-.2.1v1.6q0 .9-.7.9-.8 0-.8-.9V8.6a.65.65 0 0 1-.3-.3L5.7 6.2q-.2-.3-.2-.6 0-.2.2-.4t.6-.2" style="fill:#f1667f"/></svg>