<svg xmlns="http://www.w3.org/2000/svg" width="16" height="16" version="1.2"><path d="M7.9 2.3a.9.9 0 0 0-.4.1q-.2 0-.3.1L2.9 4q-.1 0-.2.1l-.2.2q-.1.1-.1.3v.3l.6 5.8q0 .2.1.4l.2.4q.1.2.2.3l.4.2 3.2 1.9q.2.1.4.1.2.1.4.1a.9.9 0 0 0 .4-.1.9.9 0 0 0 .4-.1l3.1-1.8.3-.3a.66.66 0 0 0 .3-.3l.2-.4q.1-.2.1-.5l.7-5.7v-.3q0-.1-.1-.3l-.2-.2Q13 4 12.8 4L8.6 2.5q-.1-.1-.3-.1a.9.9 0 0 0-.4-.1m-.25 2.5h.6q.5 0 .8.3.4.3.5.8l1.2 4v.4q0 .4-.2.6-.3.2-.599.2-.5 0-.8-.2a2.2 2.2 0 0 1-.3-.7l-.101-.4h-1.6l-.1.4q-.1.4-.4.7-.2.2-.699.2-.3 0-.6-.2-.2-.2-.2-.6v-.4l1.2-4q.1-.5.5-.8.3-.3.8-.3m.301 1.3q0 .1-.1.2v.3l-.4 1.8h1l-.4-1.8q0-.2-.1-.3z" style="fill:#f1667f"/></svg>