<svg xmlns="http://www.w3.org/2000/svg" width="16" height="16" fill="none"><path fill="#F17F66" fill-rule="evenodd" d="M1.502 8.618c.148.457.544.853 1.336 1.645l2.9 2.899c.791.792 1.187 1.188 1.644 1.336a2 2 0 0 0 1.236 0c.457-.148.853-.544 1.645-1.336l2.899-2.9c.792-.791 1.188-1.187 1.336-1.644a2 2 0 0 0 0-1.236c-.148-.457-.544-.853-1.336-1.645l-2.9-2.899c-.791-.792-1.187-1.188-1.644-1.336a2 2 0 0 0-1.236 0c-.328.106-.625.341-1.06.759L11.53 7.47a.75.75 0 0 1-1.06 1.06L8.5 6.56V11A.75.75 0 0 1 7 11V5.06L5.257 3.319l-2.419 2.42c-.792.791-1.188 1.187-1.336 1.644a2 2 0 0 0 0 1.236" clip-rule="evenodd"/></svg>