<svg xmlns="http://www.w3.org/2000/svg" width="16" height="16" fill="none"><path fill="#8080A0" fill-rule="evenodd" d="M6.27 1.806c-.21-.202-.314-.302-.395-.338a.44.44 0 0 0-.226-.042c-.088.004-.175.04-.35.114a7 7 0 0 0-1.543.893c-.15.115-.226.172-.273.246a.44.44 0 0 0-.077.217c-.01.087.025.228.094.51a2.5 2.5 0 0 1-.263 1.844c-.335.58-.868.976-1.465 1.15-.28.082-.42.122-.49.174a.44.44 0 0 0-.15.175c-.04.078-.052.173-.076.36a7 7 0 0 0 0 1.781c.024.188.036.283.076.36.04.08.078.123.15.176.07.052.21.092.49.174.597.174 1.13.57 1.465 1.15s.41 1.24.263 1.843c-.069.283-.103.424-.094.511.01.088.029.143.077.217.047.074.122.131.273.246.471.36.99.661 1.543.893.175.073.262.11.35.114a.44.44 0 0 0 .226-.042c.08-.036.186-.136.396-.338A2.5 2.5 0 0 1 8 13.5c.67 0 1.28.264 1.73.694.21.202.314.302.395.338.08.036.138.046.226.042s.175-.04.35-.114a7 7 0 0 0 1.543-.893c.15-.115.226-.172.273-.246a.44.44 0 0 0 .077-.217c.01-.087-.025-.228-.094-.51a2.5 2.5 0 0 1 .263-1.844c.335-.58.868-.976 1.465-1.15.28-.082.42-.122.49-.174a.44.44 0 0 0 .15-.175c.04-.078.052-.173.076-.36a7 7 0 0 0 0-1.781c-.024-.188-.036-.283-.076-.36a.44.44 0 0 0-.15-.176c-.07-.052-.21-.092-.49-.174a2.5 2.5 0 0 1-1.465-1.15 2.5 2.5 0 0 1-.263-1.843c.069-.283.103-.424.094-.511a.44.44 0 0 0-.077-.217c-.047-.074-.122-.131-.273-.246A7 7 0 0 0 10.7 1.54c-.175-.073-.262-.11-.35-.114a.44.44 0 0 0-.226.042c-.08.036-.186.136-.396.338A2.5 2.5 0 0 1 8 2.5c-.67 0-1.28-.264-1.73-.694M8 10a2 2 0 1 0 0-4 2 2 0 0 0 0 4" clip-rule="evenodd"/></svg>