<svg xmlns="http://www.w3.org/2000/svg" width="16" height="16" fill="none"><path fill="#F1667F" d="M8 15v-2h4v2l-2-1z"/><path fill="#F1667F" fill-rule="evenodd" d="M1.772 4.365C1.5 4.9 1.5 5.6 1.5 7v2c0 1.4 0 2.1.272 2.635a2.5 2.5 0 0 0 1.093 1.092C3.4 13 4.1 13 5.5 13h5c1.4 0 2.1 0 2.635-.273a2.5 2.5 0 0 0 1.092-1.092C14.5 11.1 14.5 10.4 14.5 9V7c0-1.4 0-2.1-.273-2.635a2.5 2.5 0 0 0-1.092-1.093C12.6 3 11.9 3 10.5 3h-5c-1.4 0-2.1 0-2.635.272a2.5 2.5 0 0 0-1.093 1.093M6 6.125H3v-1.25h3zm-1 2.5H3v-1.25h2zm1 2.5H3v-1.25h3zm4-1.216L12 11V8.818L13.5 8 12 7.182V5l-2 1.09L8 5v2.182L6.5 8l1.5.818V11z" clip-rule="evenodd"/></svg>