<svg xmlns="http://www.w3.org/2000/svg" width="16" height="16" version="1.2"><path d="M8.025.35Q7.751.35 7.5.4c-.4.1-.7.3-1.4.7L3 2.9c-.7.4-1.1.6-1.3.9a1.74 1.74 0 0 0-.5.9c-.2.4-.2.8-.2 1.6v3.4c0 .8 0 1.3.1 1.7q.2.501.6.9c.2.3.6.5 1.3.9l3 1.7c.7.4 1.1.6 1.4.7q.6.099 1.1 0c.4-.1.7-.3 1.4-.7l3.1-1.8c.7-.4 1.1-.6 1.3-.9q.4-.4.5-.9c.2-.4.2-.8.2-1.6V6.3c0-.8 0-1.3-.1-1.7a2.7 2.7 0 0 0-.6-.9c-.2-.3-.6-.5-1.3-.9l-3-1.7C9.3.7 8.9.5 8.6.4Q8.3.35 8.025.35m2.276 4.35q.3 0 .5.2t.199.6v.2l-.1.7h1l.1-.8q.1-.9.9-.9.4 0 .5.2.2.2.2.6v.2l-.1.7h.2q.4 0 .6.2.2.1.2.4 0 .4-.3.6a.68.68 0 0 1-.5.2h-.3L13.2 9h.2q.4 0 .5.2.2.1.2.4 0 .399-.2.6t-.6.2h-.2l-.1.6q-.1 1-.9 1-.4 0-.6-.2t-.2-.6v-.3l.1-.5h-.9l-.1.6q-.1 1-1 1a.68.68 0 0 1-.5-.2q-.2-.2-.2-.6v-.3l.1-.5h-.2q-.8 0-.8-.7 0-.4.2-.5.3-.2.6-.2H9l.1-1.2h-.2q-.399 0-.6-.2a.68.68 0 0 1-.2-.5q0-.3.3-.5.2-.2.6-.2h.3l.1-.8q.1-.9.9-.9m-5.5.4q.5 0 .898.2.501.1.801.3.4.3.6.6t.2.7q0 .3-.3.5-.2.2-.5.2-.4 0-.5-.1a1.6 1.6 0 0 1-.3-.4q0-.2-.1-.3l-.3-.3q-.2-.1-.5-.1-.4 0-.7.2-.4.2-.6.7t-.2 1.3.2 1.3.6.7q.3.2.7.2.3 0 .5-.1.1-.1.3-.2a.9.9 0 0 0 .1-.4.65.65 0 0 1 .3-.3q.1-.2.5-.2.3 0 .5.2.3.201.3.6 0 .3-.2.6a1.3 1.3 0 0 1-.6.6q-.3.2-.8.4-.4.1-.9.1a7.3 7.3 0 0 1-1.2-.1 4 4 0 0 1-1-.6q-.5-.4-.8-1.1t-.3-1.7.3-1.7.8-1a4 4 0 0 1 1-.6q.6-.2 1.2-.2m6 2.7L10.6 9h1l.1-1.2z" style="fill:#a67cf8"/></svg>