<svg xmlns="http://www.w3.org/2000/svg" width="16" height="16" fill="none"><path fill="#F17F66" d="M7.747 3.99c.593-.365.89-.547 1.09-.578a.86.86 0 0 1 .525.062c.188.076.382.27.77.657l1.737 1.738c.387.387.58.58.657.77a.85.85 0 0 1 .062.524c-.03.2-.213.497-.577 1.09A6.83 6.83 0 0 0 11 11.828c0 .334 0 .5-.043.643a1 1 0 0 1-.485.59c-.13.07-.294.103-.62.169l-6.307 1.26c-.39.079-.584.118-.669.064a.25.25 0 0 1-.115-.216c.002-.1.142-.241.423-.522l2.462-2.462c.227-.227.534-.354.854-.354A1.5 1.5 0 1 0 5 9.5c0 .32-.127.627-.354.854l-2.462 2.462c-.28.28-.421.421-.522.423a.25.25 0 0 1-.216-.115c-.054-.085-.015-.28.063-.67L2.77 6.15c.066-.327.098-.49.168-.621a1 1 0 0 1 .591-.485C3.671 5 3.84 5 4.172 5a6.83 6.83 0 0 0 3.575-1.01m6.003 1.76-3.5-3.5-.076-.077a1 1 0 0 1 0-1.346L10.25.75l.077-.076a1 1 0 0 1 1.346 0l.077.076 3.5 3.5.076.077a1 1 0 0 1 0 1.346l-.076.077-.077.076a1 1 0 0 1-1.423-.076"/></svg>