<?xml version="1.0" encoding="UTF-8" standalone="no"?>
<svg
   version="1.2"
   viewBox="0 0 16 16"
   width="16"
   height="16"
   id="svg1"
   sodipodi:docname="powershell.svg"
   inkscape:version="1.4 (e7c3feb100, 2024-10-09)"
   xmlns:inkscape="http://www.inkscape.org/namespaces/inkscape"
   xmlns:sodipodi="http://sodipodi.sourceforge.net/DTD/sodipodi-0.dtd"
   xmlns="http://www.w3.org/2000/svg"
   xmlns:svg="http://www.w3.org/2000/svg">
  <defs
     id="defs1" />
  <sodipodi:namedview
     id="namedview1"
     pagecolor="#505050"
     bordercolor="#eeeeee"
     borderopacity="1"
     inkscape:showpageshadow="0"
     inkscape:pageopacity="0"
     inkscape:pagecheckerboard="0"
     inkscape:deskcolor="#505050"
     inkscape:zoom="36.8125"
     inkscape:cx="8.0135823"
     inkscape:cy="8.0135823"
     inkscape:window-width="1326"
     inkscape:window-height="755"
     inkscape:window-x="1300"
     inkscape:window-y="52"
     inkscape:window-maximized="0"
     inkscape:current-layer="svg1" />
  <title
     id="title1">square-svg</title>
  <style
     id="style1">
		.s0 { fill: #5bafd4 } 
		.s1 { fill: #000000 } 
	</style>
  <path
     id="path1"
     class="s0"
     d="M 6 2 C 4.6 2 3.9003906 2.0007814 3.4003906 2.3007812 C 2.9003906 2.5007813 2.5007814 2.9003906 2.3007812 3.4003906 C 2.0007814 3.9003906 2 4.6 2 6 L 2 10 C 2 11.4 2.0007814 12.099609 2.3007812 12.599609 C 2.5007813 13.099609 2.9003906 13.499219 3.4003906 13.699219 C 3.9003906 13.999219 4.6 14 6 14 L 10 14 C 11.4 14 12.099609 13.999219 12.599609 13.699219 C 13.099609 13.499219 13.499219 13.099609 13.699219 12.599609 C 13.999219 12.099609 14 11.4 14 10 L 14 6 C 14 4.6 13.999219 3.9003906 13.699219 3.4003906 C 13.499219 2.9003906 13.099609 2.5007814 12.599609 2.3007812 C 12.099609 2.0007813 11.4 2 10 2 L 6 2 z M 3.9003906 5.6992188 L 4.0996094 5.6992188 L 7.0996094 7.1992188 C 7.2329427 7.2658854 7.3666667 7.3666667 7.5 7.5 C 7.5666667 7.7 7.5996094 7.9325521 7.5996094 8.1992188 L 7.5996094 8.3007812 C 7.5996094 8.567448 7.5666667 8.8 7.5 9 C 7.3666667 9.1333333 7.2329427 9.2341146 7.0996094 9.3007812 L 4.0996094 10.800781 L 3.9003906 10.800781 C 3.7003906 10.800781 3.533724 10.732943 3.4003906 10.599609 C 3.2670573 10.466276 3.1992188 10.299609 3.1992188 10.099609 C 3.1992188 9.8996098 3.2341146 9.7329427 3.3007812 9.5996094 C 3.4341147 9.5329427 3.5329427 9.4670573 3.5996094 9.4003906 C 3.7329427 9.2670573 3.8666667 9.1992187 4 9.1992188 L 6.0878906 8.25 L 4 7.3007812 C 3.8666667 7.3007813 3.7329427 7.2658854 3.5996094 7.1992188 L 3.3007812 6.9003906 C 3.2341146 6.7670573 3.1992187 6.6003906 3.1992188 6.4003906 C 3.1992188 6.2003906 3.2670573 6.033724 3.4003906 5.9003906 C 3.533724 5.7670573 3.7003906 5.6992188 3.9003906 5.6992188 z M 9.5996094 10.099609 L 11.300781 10.099609 C 11.634115 10.099609 11.866667 10.167448 12 10.300781 C 12.133333 10.434115 12.199219 10.600781 12.199219 10.800781 C 12.199219 11.000781 12.133333 11.167448 12 11.300781 C 11.866667 11.434115 11.634115 11.5 11.300781 11.5 L 9.5996094 11.5 C 9.266276 11.5 9.033724 11.434115 8.9003906 11.300781 C 8.7670573 11.167448 8.6992188 11.000781 8.6992188 10.800781 C 8.6992188 10.600781 8.7670573 10.434115 8.9003906 10.300781 C 9.033724 10.167448 9.266276 10.099609 9.5996094 10.099609 z " />
</svg>
