<svg xmlns="http://www.w3.org/2000/svg" width="15" height="15" version="1.2"><style>.s0{fill:#8080a0}.s1{fill:#f5aa52}</style><g id="Layer 1"><path id="Forma 1" fill-rule="evenodd" d="M3 10h1c.6 0 1 .4 1 1v1c0 .6-.4 1-1 1H3c-.6 0-1-.4-1-1v-1c0-.6.4-1 1-1" class="s0"/><path id="Forma 1 copy" fill-rule="evenodd" d="M7 10h1c.6 0 1 .4 1 1v1c0 .6-.4 1-1 1H7c-.6 0-1-.4-1-1v-1c0-.6.4-1 1-1" class="s0"/><path id="Forma 1 copy 2" fill-rule="evenodd" d="M11 10h1c.6 0 1 .4 1 1v1c0 .6-.4 1-1 1h-1c-.6 0-1-.4-1-1v-1c0-.6.4-1 1-1" class="s0"/><path id="Forma 1 copy 3" fill-rule="evenodd" d="M7 6h1c.6 0 1 .4 1 1v1c0 .6-.4 1-1 1H7c-.6 0-1-.4-1-1V7c0-.6.4-1 1-1" class="s0"/><path id="Forma 1 copy 4" fill-rule="evenodd" d="M7 2h1c.6 0 1 .4 1 1v1c0 .6-.4 1-1 1H7c-.6 0-1-.4-1-1V3c0-.6.4-1 1-1" class="s1"/><path id="Forma 1 copy 5" fill-rule="evenodd" d="M3 2h1c.6 0 1 .4 1 1v1c0 .6-.4 1-1 1H3c-.6 0-1-.4-1-1V3c0-.6.4-1 1-1" class="s1"/><path id="Forma 1 copy 6" fill-rule="evenodd" d="M11 2h1c.6 0 1 .4 1 1v1c0 .6-.4 1-1 1h-1c-.6 0-1-.4-1-1V3c0-.6.4-1 1-1" class="s1"/><path id="Forma 1 copy 7" fill-rule="evenodd" d="M11 6h1c.6 0 1 .4 1 1v1c0 .6-.4 1-1 1h-1c-.6 0-1-.4-1-1V7c0-.6.4-1 1-1" class="s1"/></g></svg>