<?xml version="1.0" encoding="UTF-8" standalone="no"?>
<svg
   version="1.2"
   viewBox="0 0 16 16"
   width="16"
   height="16"
   id="svg5"
   xmlns="http://www.w3.org/2000/svg"
   xmlns:svg="http://www.w3.org/2000/svg">
  <defs
     id="defs5" />
  <title
     id="title1">square-svg</title>
  <style
     id="style1">
		.s0 { fill: #f5aa52 }
	</style>
  <g
     id="Layer 1">
    <path
       id="path1"
       class="s0"
       d="M 6,2 C 4.6,2 3.9003906,2.0007814 3.4003906,2.3007812 2.9003906,2.5007815 2.5007814,2.9003906 2.3007812,3.4003906 2.0007816,3.9003906 2,4.6 2,6 v 4 c 0,1.4 7.814e-4,2.099609 0.3007812,2.599609 0.2000003,0.5 0.5996094,0.89961 1.0996094,1.09961 C 3.9003906,13.999219 4.6,14 6,14 h 4 c 1.4,0 2.099609,-7.81e-4 2.599609,-0.300781 0.5,-0.2 0.89961,-0.59961 1.09961,-1.09961 C 13.999219,12.099609 14,11.4 14,10 V 6 c 0,-1.4 -7.81e-4,-2.0996094 -0.300781,-2.5996094 -0.2,-0.5 -0.59961,-0.8996092 -1.09961,-1.0996094 C 12.099609,2.0007815 11.4,2 10,2 Z m 0.5996094,2 h 2.5996094 c 0.2999998,0 0.5,0.2 0.5,0.5 v 2.0996094 c 0,0.2 -0.2,0.4003906 -0.5,0.4003906 h -0.050781 l 1.3359372,2.3007812 h 1.416016 c 0.3,0 0.5,0.3000003 0.5,0.5 v 2.0996098 c 0,0.3 -0.2,0.5 -0.5,0.5 H 9.1992188 c -0.2000002,0 -0.3984376,-0.2 -0.3984376,-0.5 V 9.8007812 c 0,-0.1999997 0.1984376,-0.5 0.3984376,-0.5 H 9.6445312 L 8.2773438,7 H 7.4257812 L 6.0898438,9.3007812 h 0.5097656 c 0.2,0 0.5,0.3000002 0.5,0.5 v 2.0996098 c 0,0.3 -0.3,0.5 -0.5,0.5 H 3.9003906 c -0.3,0 -0.5,-0.2 -0.5,-0.5 V 9.8007812 c 0,-0.1999998 0.2,-0.5 0.5,-0.5 H 5.21875 L 6.5859375,6.9980469 C 6.2939033,6.9917938 6.0996094,6.7964127 6.0996094,6.5996094 V 4.5 c 0,-0.3 0.2,-0.5 0.5,-0.5 z" />
  </g>
</svg>
