<svg xmlns="http://www.w3.org/2000/svg" width="16" height="16" version="1.2"><path d="M8 .3q-.2.1-.5.1c-.4.1-.7.3-1.4.7L3 2.9c-.7.4-1.1.6-1.3.9a1.74 1.74 0 0 0-.5.9c-.2.4-.2.8-.2 1.6v3.4c0 .8 0 1.3.1 1.7q.2.501.6.9c.2.3.6.5 1.3.9l3 1.7c.7.4 1.1.6 1.4.7q.6.099 1.1 0c.4-.1.7-.3 1.4-.7l3.1-1.8c.7-.4 1.1-.6 1.3-.9q.4-.4.5-.9c.2-.4.2-.8.2-1.6V6.3c0-.8 0-1.3-.1-1.7a2.7 2.7 0 0 0-.6-.9c-.2-.3-.6-.5-1.3-.9l-3-1.7C9.3.7 8.9.5 8.6.4Q8.3.4 8 .3m3.643 3.667q.699 0 .699 1.101v.2h.199q1.1 0 1.102.699-.001.7-1.102.701h-.2v.299q0 1-.698 1 .699 0 .699 1.101v.2h.199q1.1 0 1.102.699-.001.7-1.102.701h-.2v.299q0 1-.698 1-.701 0-.702-1v-.299h-.298q-1-.001-1-.701t1-.7h.298v-.199q0-1.1.702-1.101-.701 0-.702-1v-.299h-.298q-1-.001-1-.701t1-.7h.298v-.199q0-1.1.702-1.101m-5.774.527q.5 0 .9.2.5.1.8.3.4.3.599.6.2.3.201.7 0 .301-.3.5-.2.2-.5.2-.4 0-.5-.1a1.6 1.6 0 0 1-.3-.4q0-.2-.101-.3l-.299-.3q-.2-.1-.5-.1-.4 0-.701.2-.4.2-.6.7t-.199 1.3.2 1.3.599.7q.3.2.701.2.3 0 .5-.1.1-.1.299-.2a.9.9 0 0 0 .102-.4.65.65 0 0 1 .298-.3q.1-.2.5-.2.3 0 .5.2.3.2.301.6 0 .3-.201.6a1.3 1.3 0 0 1-.6.6q-.3.2-.798.4-.401.1-.9.1c-.4 0-.802-.1-1.202-.1a4 4 0 0 1-1-.6q-.5-.4-.799-1.1t-.3-1.7.3-1.7.799-1a4 4 0 0 1 1-.6q.6-.2 1.201-.2" style="fill:#f17f66"/></svg>