<svg xmlns="http://www.w3.org/2000/svg" width="16" height="16" version="1.2"><path d="M6 2c-1.4 0-2.1 0-2.6.3-.5.2-.9.6-1.1 1.1C2 3.9 2 4.6 2 6v4c0 1.4 0 2.1.3 2.6.2.5.6.9 1.1 1.1.5.3 1.2.3 2.6.3h4c1.4 0 2.1 0 2.6-.3.5-.2.9-.6 1.1-1.1.3-.5.3-1.2.3-2.6V6c0-1.4 0-2.1-.3-2.6-.2-.5-.6-.9-1.1-1.1C12.1 2 11.4 2 10 2c0 1.1-.9 2-2 2s-2-.9-2-2M4.066 6.788q.3 0 .5.2.1.2.1.5l.099 2.7.4-2.2q.1-.4.2-.5.1-.2.4-.2.2 0 .3.2.2.1.2.5l.4 2.2.1-2.7q0-.3.2-.5.1-.2.4-.2t.5.2q.2.1.2.4 0 .1-.1.3v.5q0 .4-.1.7v.7q0 .401-.1.7v.5q0 .3-.1.4a.68.68 0 0 1-.2.5q-.201.2-.6.2-.3 0-.6-.2a.68.68 0 0 1-.2-.5l-.3-1.9-.3 1.9q-.1.3-.3.5t-.6.2q-.3 0-.6-.2a.68.68 0 0 1-.2-.5v-.3q-.1-.3-.1-.6v-.7q-.1-.3-.1-.7 0-.3-.1-.6v-.9q0-.3.2-.4.1-.2.4-.2m6.398 0h.5q.3 0 .5.2.2.3.3.6l1.1 3.5v.2q.001.3-.1.4-.199.2-.5.2a.68.68 0 0 1-.5-.2 4 4 0 0 1-.198-.5l-.102-.5h-1.5l-.2.5a.68.68 0 0 1-.698.7q-.3 0-.4-.2-.202-.1-.202-.4v-.1q0-.1.102-.1l1-3.5q.099-.3.398-.6.2-.2.5-.2m.201 1v.3l-.5 1.7h1.1l-.5-1.7v-.2Z" style="fill:#a67cf8"/></svg>