<svg xmlns="http://www.w3.org/2000/svg" width="16" height="16" version="1.2"><style>.s0{fill:#5bafd4}</style><path d="M13.8 4.1q-.1-.1-.2-.1h-.3l-.1.1-.1.1-2.1 2L9.1 8l-2.2 2.1-2 2h-.1v.1h-.2l-.1.1q0-.1-.1-.1h-.2l-2-1.5h.2q.1.1.2 0h.1q.1-.1.2-.1L4 9.3 5.1 8l1.8-2.1 3.2-3.7q0-.1.1-.1l.1-.1h.2q.1 0 .3.1z" class="s0"/><path d="m13.8 11.9-3 2q-.1.1-.2.1h-.2q-.1 0-.1-.1-.1 0-.2-.1l-3.2-3.7L5.1 8 4 6.7 2.9 5.4q-.1 0-.2-.1h-.1q-.1-.1-.2 0-.1 0-.2.1l2-1.5.1-.1h.1q.1-.1.2 0h.1q.1 0 .1.1h.1l2 2L9.1 8 11 9.8l2.1 2 .1.1q.1 0 .1.1h.4q0-.1.1-.1" class="s0"/><path d="M14 4.5v7.1q0 .1-.1.1v.1l-.1.1-3 2 .1-.1v-.1q.1 0 .1-.1V2.4q0-.1-.1-.1v-.1l-.1-.1 3 2 .1.1v.1q.1 0 .1.1zm-9.8 7.7-2-1.5q0-.1-.1-.1v-.1l-.1-.1V5.6l.1-.1v-.1q.1 0 .1-.1l2-1.4h-.1v8.2q.1 0 .1.1" class="s0"/></svg>