<svg xmlns="http://www.w3.org/2000/svg" width="16" height="16" fill="none"><path fill="#F1667F" fill-rule="evenodd" d="M2.272 3.365C2 3.9 2 4.6 2 6v4c0 1.4 0 2.1.272 2.635a2.5 2.5 0 0 0 1.093 1.092C3.9 14 4.6 14 6 14h4c1.4 0 2.1 0 2.635-.273a2.5 2.5 0 0 0 1.092-1.092C14 12.1 14 11.4 14 10V6c0-1.4 0-2.1-.273-2.635a2.5 2.5 0 0 0-1.092-1.093C12.1 2 11.4 2 10 2H6c-1.4 0-2.1 0-2.635.272a2.5 2.5 0 0 0-1.093 1.093M5.6 12h1.6c.28 0 .42 0 .527-.055a.5.5 0 0 0 .218-.218C8 11.62 8 11.48 8 11.2V6.8c0-.28 0-.42.055-.527a.5.5 0 0 1 .218-.218C8.38 6 8.52 6 8.8 6h.4c.28 0 .42 0 .527.054a.5.5 0 0 1 .218.219C10 6.38 10 6.52 10 6.8v4.533c0 .155 0 .233.017.296a.5.5 0 0 0 .354.354c.063.017.14.017.296.017.31 0 .465 0 .592-.034a1 1 0 0 0 .707-.707c.034-.127.034-.282.034-.592V5.6c0-.56 0-.84-.109-1.054a1 1 0 0 0-.437-.437C11.24 4 10.96 4 10.4 4H5.6c-.56 0-.84 0-1.054.109a1 1 0 0 0-.437.437C4 4.76 4 5.04 4 5.6v4.8c0 .56 0 .84.109 1.054a1 1 0 0 0 .437.437C4.76 12 5.04 12 5.6 12" clip-rule="evenodd"/></svg>