<svg xmlns="http://www.w3.org/2000/svg" width="16" height="16" version="1.2"><path fill-rule="evenodd" d="M16 1.4v.8c0 2.9-2.1 5.2-5 5.3v6.9c0 .3-.2.4-.5.4l-2.56-.029v-1.9c0-.3-.3-.5-.6-.5s-.5.3-.5.5v2L4 14.9v-2c0-.3-.2-.5-.5-.5s-.5.3-.5.5v1.9l-2.5.1c-.3.012-.5-.2-.5-.5V9.7c0-1.9 1.2-3.5 2.8-4.1q0 .2-.1.6c-.1 1 .4 2.1 1.1 2.9.7.6 1.6 1 2.5 1h.2c1 0 1.9-.4 2.6-1.1.2-.2.2-.6 0-.7-.2-.2-.5-.2-.7 0-.5.5-1.2.8-2 .8-.7.1-1.4-.2-1.9-.7-.6-.6-.9-1.4-.8-2.2q.1-1 .8-1.5l.8-.7h6.3C13 4 14 2.7 14 1.5c0-.3.2-.5.5-.5h1c.3 0 .5.2.5.4" style="fill:#5bafd4"/></svg>