<svg xmlns="http://www.w3.org/2000/svg" width="16" height="16" fill="none"><path fill="#7380F9" fill-rule="evenodd" d="M12.5 4.7q0-.226-.021-.448c.289.074.548.17.791.293a5 5 0 0 1 2.185 2.185C16 7.8 16 9.2 16 12v.4c0 .56 0 .84-.109 1.054a1 1 0 0 1-.437.437C15.24 14 14.96 14 14.4 14H12v-3.25a.75.75 0 0 0-1.5 0V14H8.6c-.56 0-.84 0-1.054-.109a1 1 0 0 1-.437-.437C7 13.24 7 12.96 7 12.4v-1.45a6.3 6.3 0 0 0 5.5-6.25" clip-rule="evenodd"/><path fill="#7380F9" d="M3 11.75V9h1.5v2.75a2.25 2.25 0 0 1-4.5 0V11h1.5v.75a.75.75 0 0 0 1.5 0"/><path fill="#7380F9" fill-rule="evenodd" d="M6.2 9.5H3v-4a4 4 0 0 1 4-4h.8A3.2 3.2 0 0 1 11 4.7a4.8 4.8 0 0 1-4.8 4.8M6 7a1 1 0 1 0 0-2 1 1 0 0 0 0 2" clip-rule="evenodd"/></svg>