<svg xmlns="http://www.w3.org/2000/svg" width="16" height="16" version="1.2"><path d="M6 2c-1.4 0-2.1 0-2.6.3-.5.2-.9.6-1.1 1.1C2 3.9 2 4.6 2 6v4c0 1.4 0 2.1.3 2.6.2.5.6.9 1.1 1.1.5.3 1.2.3 2.6.3h4c1.4 0 2.1 0 2.6-.3.5-.2.9-.6 1.1-1.1.3-.5.3-1.2.3-2.6V6c0-1.4 0-2.1-.3-2.6-.2-.5-.6-.9-1.1-1.1C12.1 2 11.4 2 10 2Zm.6 2h2.6c.3 0 .5.2.5.5v2.1c0 .2-.2.4-.5.4h-.052l1.336 2.3H11.9c.3 0 .5.3.5.5v2.1c0 .3-.2.5-.5.5H9.2c-.2 0-.4-.2-.4-.5V9.8c0-.2.2-.5.4-.5h.445L8.277 7h-.851L6.09 9.3h.51c.2 0 .5.3.5.5v2.1c0 .3-.3.5-.5.5H3.9c-.3 0-.5-.2-.5-.5V9.8c0-.2.2-.5.5-.5h1.32l1.367-2.302C6.294 6.992 6.1 6.796 6.1 6.6V4.5c0-.3.2-.5.5-.5" style="fill:#f5aa52"/></svg>