<svg xmlns="http://www.w3.org/2000/svg" width="16" height="16" version="1.2"><path d="M7 2c-1.4 0-2.1 0-2.6.3-.5.2-.9.6-1.1 1.1C3 3.9 3 4.6 3 6v5c0 1.4 0 2.1.3 2.6.2.5.6.9 1.1 1.1.5.3 1.2.3 2.6.3h3c1.4 0 2.1 0 2.6-.3.5-.2.9-.6 1.1-1.1.3-.5.3-1.2.3-2.6V7.3c0-.5 0-.7-.1-.9q0-.3-.2-.6c-.1-.2-.3-.4-.6-.7l-2.2-2.2c-.3-.3-.5-.5-.7-.6q-.3-.2-.6-.2C9.4 2 9.2 2 8.7 2zm1.5 2.5q.6 0 .8.3.3.4.3 1v1.5a87 87 0 0 1-.2 1.5q0 .7-.2 1-.3.3-.7.3-.5 0-.7-.3t-.3-1q0-.7-.1-1.4V5.8q0-.6.2-1 .3-.3.9-.3m0 6.2q.5 0 .9.3.3.4.3.9 0 .501-.3.9-.4.3-.9.3t-.9-.3a1.46 1.46 0 0 1-.3-.9q0-.5.3-.9.4-.3.9-.3" style="fill:#f1667f"/></svg>