<svg xmlns="http://www.w3.org/2000/svg" width="16" height="16" version="1.2"><path d="M7.9 3v2.2c0 .4 0 .5-.2.8q0 .2-.2.3c-.1.2-.2.2-.6.5L4.2 8.3c-.3.2-.4.3-.7.3a.43.43 0 0 1-.4 0q-.054 0-.1-.004V11c0 1.4 0 2.1.3 2.6.2.5.6.9 1.1 1.1.5.3 1.2.3 2.6.3h4c1.4 0 2.1 0 2.6-.3.5-.2.9-.6 1.1-1.1.3-.5.3-1.2.3-2.6V7c0-1.4 0-2.1-.3-2.6-.2-.5-.6-.9-1.1-1.1C13.1 3 12.4 3 11 3ZM5.1 8.4h3.1q.9 0 .9.6 0 .2-.2.3-.2.2-.5.2h-1v3.8q0 .8-.7.8-.8 0-.8-.8V9.5h-.8q-.4 0-.6-.2-.2-.1-.2-.3 0-.3.2-.4.2-.2.6-.2m7.2 0q.5 0 1 .1.4.1.8.4l.3.3q.1.2.1.4t-.2.4a.9.9 0 0 1-.4.1q-.3 0-.5-.1a1.2 1.2 0 0 0-.3-.2.65.65 0 0 0-.3-.3q-.2-.1-.5-.1t-.5.1q-.1 0-.2.2-.1.1-.1.2 0 .2.2.4.3.2.9.3.6.2 1.1.4.4.2.7.5.3.4.3.9 0 .501-.3.9a2.7 2.7 0 0 1-.9.6q-.5.2-1.3.2-.6 0-1.1-.2-.5-.1-.8-.4-.4-.3-.4-.7 0-.2.1-.4t.4-.2.5.1a.65.65 0 0 1 .3.3q.2.2.5.3.2.1.6.1h.4a1.2 1.2 0 0 0 .3-.2q.2-.2.2-.3 0-.3-.3-.5-.3-.1-.9-.2-1.1-.3-1.6-.7-.4-.5-.4-1.2 0-.4.3-.8.3-.3.8-.5.6-.2 1.2-.2" style="fill:#7380f9"/><path fill-rule="evenodd" d="M3.2 0c-.2 0-.3.1-.5.2l-2 1.2c-.3.1-.4.1-.4.3q-.2.1-.3.3v3.3q.1.2.3.3c0 .1.1.1.4.3l2 1.2c.2.1.3.1.5.1q.1.1.3 0c.2 0 .3 0 .5-.1l2-1.2c.3-.2.4-.2.4-.3q.2-.1.2-.3c.1-.2.1-.2.1-.6V2.6c0-.4 0-.5-.1-.6q0-.2-.2-.3c0-.2-.1-.2-.4-.3L4 .2C3.8.1 3.7 0 3.5 0zm.1 4.9c-.6 0-1.2-.6-1.2-1.3s.6-1.2 1.2-1.2c.7 0 1.3.5 1.3 1.2S4 4.9 3.3 4.9" style="fill:#8080a0"/></svg>