<svg xmlns="http://www.w3.org/2000/svg" width="16" height="16" fill="none"><path stroke="#F17F66" stroke-width="1.5" d="M11.6 2.75h1c.4 0 .513.002.595.015a1.25 1.25 0 0 1 1.04 1.04c.013.082.015.195.015.595 0 .586-.002.792-.028.952a2.25 2.25 0 0 1-1.87 1.87c-.16.026-.366.028-.952.028h-.15a8 8 0 0 1-.3-.005.25.25 0 0 1-.195-.194l-.003-.053-.002-.248V3.6c0-.292 0-.467.011-.596a.6.6 0 0 1 .018-.12.25.25 0 0 1 .104-.105.6.6 0 0 1 .121-.018c.13-.01.304-.011.596-.011Zm-.82.13v.002zm.1-.1h.002z"/><path fill="#F17F66" d="M1 6.5V4.857c0-.798 0-1.197.112-1.518A2 2 0 0 1 2.34 2.112C2.66 2 3.06 2 3.857 2H10.4c.56 0 .84 0 1.054.109a1 1 0 0 1 .437.437C12 2.76 12 3.04 12 3.6v2.9c0 .464 0 .696-.015.892a5 5 0 0 1-4.593 4.593C7.196 12 6.964 12 6.5 12s-.696 0-.892-.015a5 5 0 0 1-4.593-4.593C1 7.196 1 6.964 1 6.5M11.75 15h-10c-.233 0-.35 0-.441-.038a.5.5 0 0 1-.27-.27C1 14.6 1 14.482 1 14.25s0-.35.038-.441a.5.5 0 0 1 .27-.27c.093-.039.209-.039.442-.039h10c.233 0 .35 0 .441.038a.5.5 0 0 1 .27.27c.039.092.039.209.039.442s0 .35-.038.441a.5.5 0 0 1-.27.27c-.092.039-.21.039-.442.039"/></svg>