<svg xmlns="http://www.w3.org/2000/svg" width="16" height="16" fill="none"><path fill="#8080A0" d="m12 4.5.5-.5.293.293c.453.453.707 1.067.707 1.707.64 0 1.254.254 1.707.707L15.5 7l-.5.5a2.121 2.121 0 1 1-3-3"/><path fill="#8080A0" d="M9 8v1l4-1V7l-1-.5A1.5 1.5 0 0 1 10.5 8z"/><rect width="2" height="2" x="8" y="5" fill="#8080A0" rx=".5"/><rect width="2" height="2" x="5" y="5" fill="#8080A0" rx=".5"/><rect width="2" height="2" x="2" y="5" fill="#8080A0" rx=".5"/><rect width="2" height="2" x="3.5" y="2" fill="#8080A0" rx=".5"/><rect width="2" height="2" x="6.5" y="2" fill="#8080A0" rx=".5"/><path fill="#8080A0" fill-rule="evenodd" d="M0 9v.5a5 5 0 0 0 5 5h1.5l1.064-.164A6.41 6.41 0 0 0 13 8H1a1 1 0 0 0-1 1m3 2a1 1 0 1 0 2 0 1 1 0 0 0-2 0" clip-rule="evenodd"/></svg>