<svg xmlns="http://www.w3.org/2000/svg" width="16" height="16" fill="none"><path fill="#F17F66" fill-rule="evenodd" d="m2.317 5.49.505 5.557c.065.71.097 1.064.233 1.368a2 2 0 0 0 .522.7c.252.217.583.349 1.244.613l1.99.797c.44.175.66.263.886.298.2.03.405.03.606 0 .227-.035.446-.123.885-.298l1.991-.797c.661-.264.992-.396 1.245-.614a2 2 0 0 0 .52-.7c.137-.303.17-.658.234-1.367l.505-5.557c.11-1.21.165-1.816-.037-2.283a2 2 0 0 0-.88-.964C12.319 2 11.711 2 10.496 2H5.504c-1.215 0-1.823 0-2.27.243a2 2 0 0 0-.88.964c-.202.467-.147 1.072-.037 2.283M8 12.846l-3.12-1.248L4.69 9.5h1.506l.095 1.047L8 11.23l1.709-.683.186-2.047H4.599L4.19 4h7.62l-.136 1.5H5.833L5.969 7h5.568l-.418 4.598z" clip-rule="evenodd"/></svg>