<svg xmlns="http://www.w3.org/2000/svg" width="16" height="16" version="1.2"><path d="M7 2c-1.4 0-2.1 0-2.6.3-.5.2-.9.6-1.1 1.1C3 3.9 3 4.6 3 6v5c0 1.4 0 2.1.3 2.6.2.5.6.9 1.1 1.1.5.3 1.2.3 2.6.3h3c1.4 0 2.1 0 2.6-.3.5-.2.9-.6 1.1-1.1.3-.5.3-1.2.3-2.6V7.3c0-.5 0-.7-.1-.9q0-.3-.2-.6c-.1-.2-.3-.4-.6-.7l-2.2-2.2c-.3-.3-.5-.5-.7-.6q-.3-.2-.6-.2C9.4 2 9.2 2 8.7 2zM6 7h2c.6 0 1 .4 1 1s-.4 1-1 1H6c-.6 0-1-.4-1-1s.4-1 1-1m0 3h5c.6 0 1 .4 1 1s-.4 1-1 1H6c-.6 0-1-.4-1-1s.4-1 1-1" style="fill:#7380f9"/></svg>