<svg xmlns="http://www.w3.org/2000/svg" width="16" height="16" fill="none"><g clip-path="url(#a)"><path stroke="#7380F9" d="M8 11.5c1.984 0 3.804-.344 5.147-.92.67-.286 1.245-.641 1.659-1.061.416-.422.694-.936.694-1.519s-.278-1.097-.694-1.519c-.414-.42-.989-.775-1.66-1.062C11.805 4.844 9.985 4.5 8 4.5s-3.804.344-5.147.92c-.67.286-1.245.641-1.659 1.061C.778 6.903.5 7.417.5 8s.278 1.097.694 1.519c.414.42.989.775 1.66 1.062 1.342.575 3.162.919 5.146.919Z"/><circle cx="8" cy="8" r="2" fill="#7380F9"/><path stroke="#7380F9" d="M11.031 9.75c.992-1.718 1.604-3.466 1.777-4.917.087-.724.067-1.399-.09-1.968-.157-.57-.463-1.069-.968-1.36s-1.09-.308-1.663-.158c-.57.148-1.165.468-1.749.905-1.17.875-2.377 2.28-3.37 3.998-.991 1.718-1.603 3.466-1.776 4.917-.087.724-.067 1.399.09 1.967.157.572.463 1.07.968 1.361.505.292 1.09.308 1.663.159.57-.15 1.165-.47 1.749-.906 1.17-.875 2.377-2.28 3.37-3.998Z"/><path stroke="#7380F9" d="M11.031 6.25c-.992-1.718-2.2-3.123-3.37-3.998-.583-.437-1.178-.757-1.748-.905-.574-.15-1.158-.134-1.663.158-.505.291-.811.79-.968 1.36-.157.569-.177 1.244-.09 1.968.173 1.45.785 3.199 1.777 4.917s2.2 3.123 3.37 3.998c.583.437 1.178.757 1.748.906.574.15 1.158.133 1.663-.159.505-.291.811-.79.968-1.36.157-.569.177-1.244.09-1.968-.172-1.45-.785-3.199-1.777-4.917Z"/></g><defs><clipPath id="a"><path fill="#fff" d="M0 0h16v16H0z"/></clipPath></defs></svg>