<svg xmlns="http://www.w3.org/2000/svg" width="16" height="16" version="1.2"><g fill-rule="evenodd"><path d="M1 4.2V9c0 1.4 0 2.1.3 2.6.2.5.6.9 1.1 1.1.4.3 1 .3 2.1.3v-2.7c0-1.7 0-2.5.3-3.2.3-.5.8-1 1.3-1.3h.2q.6-.3.7-.4h.1l.6-.6c.5-.5 1.1-.8 1.8-.8s1.3.3 1.8.8l.6.6h.1q.1.1.7.4h.2q.7.4 1.1 1c0-1.3 0-1.9-.3-2.4-.2-.5-.6-.9-1.1-1.1C12.1 3 11.4 3 10 3H8.1q-.1 0-.2-.1l-.1-.1-.6-.6c-.5-.5-.7-.7-.9-.8q-.4-.2-.8-.3C5.3 1 5 1 4.3 1h-.1c-1.1 0-1.7 0-2.1.2q-.6.3-.9.9c-.2.4-.2 1-.2 2.1" style="fill:#8080a0"/><path d="M8.5 6.5c0-.6.4-1 1-1s1 .4 1 1V7h.1c.8 0 1.3 0 1.6.2q.4.2.6.6c.2.3.2.8.2 1.6v.1h.5c.6 0 1 .4 1 1s-.4 1-1 1H13v.1c0 .8 0 1.3-.2 1.6q-.2.4-.6.6c-.3.2-.8.2-1.6.2h-.1v-.5c0-.6-.4-1-1-1s-1 .4-1 1v.5h-.1c-.8 0-1.3 0-1.6-.2q-.4-.2-.6-.6c-.2-.3-.2-.8-.2-1.6v-.1h.5c.6 0 1-.4 1-1s-.4-1-1-1H6v-.1c0-.8 0-1.3.2-1.6q.2-.4.6-.6c.3-.2.8-.2 1.6-.2h.1z" style="fill:#5bafd4"/></g></svg>