<svg xmlns="http://www.w3.org/2000/svg" width="16" height="16" version="1.2"><path fill-rule="evenodd" d="M1 4.2V9c0 1.4 0 2.1.3 2.6.2.5.6.9 1.1 1.1.5.3 1.2.3 2.6.3h.5v-.6c0-.6.2-1.2.5-1.7.3-.4.5-1 .5-1.6v-.4c0-1.1 0-1.7.2-2.1.3-.9 1-1.6 1.9-1.9.4-.2 1-.2 2.1-.2h3.1q0-.1-.1-.1c-.2-.5-.6-.9-1.1-1.1C12.1 3 11.4 3 10 3H8.1q-.1 0-.2-.1l-.1-.1-.6-.6c-.5-.5-.7-.7-.9-.8q-.4-.2-.8-.3C5.3 1 5 1 4.3 1h-.1c-1.1 0-1.7 0-2.1.2q-.6.3-.9.9c-.2.4-.2 1-.2 2.1" style="fill:#8080a0"/><path d="M11.6 14H9c-.5 0-.7 0-.9-.1-.5-.1-.9-.5-1-1-.1-.2-.1-.4-.1-.9h6v-1H8V8.4c0-.8 0-1.3.2-1.6q.2-.4.6-.6c.3-.2.8-.2 1.6-.2H13c.5 0 .7 0 .9.1.5.1.9.5 1 1 .1.2.1.4.1.9h-1v3.6c0 .8 0 1.3-.2 1.6q-.2.4-.6.6c-.3.2-.8.2-1.6.2" style="fill:#a67cf8"/></svg>