<?xml version="1.0" encoding="UTF-8" standalone="no"?>
<svg
   version="1.2"
   viewBox="0 0 16 16"
   width="16"
   height="16"
   id="svg3"
   sodipodi:docname="folder-vector.svg"
   inkscape:version="1.4 (e7c3feb100, 2024-10-09)"
   xmlns:inkscape="http://www.inkscape.org/namespaces/inkscape"
   xmlns:sodipodi="http://sodipodi.sourceforge.net/DTD/sodipodi-0.dtd"
   xmlns="http://www.w3.org/2000/svg"
   xmlns:svg="http://www.w3.org/2000/svg">
  <defs
     id="defs3" />
  <sodipodi:namedview
     id="namedview3"
     pagecolor="#505050"
     bordercolor="#eeeeee"
     borderopacity="1"
     inkscape:showpageshadow="0"
     inkscape:pageopacity="0"
     inkscape:pagecheckerboard="0"
     inkscape:deskcolor="#505050"
     inkscape:zoom="37.75"
     inkscape:cx="7.986755"
     inkscape:cy="8"
     inkscape:window-width="1316"
     inkscape:window-height="755"
     inkscape:window-x="20"
     inkscape:window-y="20"
     inkscape:window-maximized="0"
     inkscape:current-layer="Layer 1" />
  <title
     id="title1">folder-icon</title>
  <style
     id="style1">
		.s0 { fill: #8080a0 } 
		.s1 { fill: #f17f66 } 
	</style>
  <g
     id="Layer 1">
    <path
       id="path1"
       class="s0"
       d="M 4.1992188,1 C 3.0992187,1 2.4996094,0.99921875 2.0996094,1.1992188 c -0.4,0.2 -0.7003906,0.5003906 -0.9003906,0.9003906 C 0.99921875,2.4996094 1,3.0992187 1,4.1992188 V 9 c 0,1.4 7.812e-4,2.099609 0.3007812,2.599609 0.2,0.5 0.5996094,0.89961 1.0996094,1.09961 C 2.9003906,12.999219 3.6,13 5,13 H 5.359375 L 6.2519531,8.7949219 6.7022713,7.8419133 7.2315682,7.311517 8.0537174,7.1251164 9.4303239,7.2047278 10.542478,6.5170866 10.6488,5.4302954 l 0.635619,-0.5828849 0.742808,-0.3183594 0.953604,0.026736 0.978153,0.7781975 c -0.03843,-0.3965208 -0.113568,-0.6899322 -0.259765,-0.9335938 -0.2,-0.5 -0.59961,-0.8996093 -1.09961,-1.0996094 C 12.099609,3.0007813 11.4,3 10,3 H 8.3007812 8.0996094 C 8.0329427,3 7.9670573,2.9670573 7.9003906,2.9003906 L 7.8007812,2.8007812 7.1992188,2.1992188 c -0.5,-0.5 -0.6984375,-0.6988282 -0.8984376,-0.7988282 C 6.0341146,1.2670573 5.7666667,1.166276 5.5,1.0996094 5.3,0.99960938 5.0007813,1 4.3007812,1 Z"
       sodipodi:nodetypes="sssssccsccccccccccccccscsscsscss" />
    <path
       class="s1"
       d="m10.4 7.8c0.4-0.2 0.6-0.3 0.7-0.4 0.1 0 0.2 0 0.3 0.1 0.1 0 0.2 0.1 0.4 0.4l1.1 1c0.2 0.2 0.3 0.4 0.4 0.5 0 0.1 0 0.2 0 0.3 0 0.1-0.1 0.3-0.3 0.6-0.4 0.7-0.6 1.4-0.6 2.1 0 0.2 0 0.3-0.1 0.4q0 0.3-0.3 0.4c0 0-0.1 0-0.3 0.1l-3.8 0.7q-0.3 0.1-0.4 0.1 0-0.1 0-0.2 0 0 0.2-0.3l1.5-1.4q0.2-0.2 0.5-0.2c0.5 0 0.9-0.4 0.9-0.9 0-0.5-0.4-0.9-0.9-0.9-0.5 0-0.9 0.4-0.9 0.9q0 0.3-0.2 0.5l-1.5 1.4q-0.2 0.3-0.3 0.3-0.1 0-0.1-0.1-0.1 0 0-0.4l0.8-3.7c0-0.2 0-0.3 0.1-0.4q0.1-0.2 0.3-0.3c0.1 0 0.2 0 0.4 0 0.8 0 1.5-0.2 2.1-0.6z"
       id="path2" />
    <path
       class="s1"
       d="m14 8.8l-2.1-2q0-0.1 0-0.1c-0.2-0.2-0.2-0.6 0-0.8q0 0 0 0 0-0.1 0.1-0.1c0.2-0.2 0.5-0.2 0.8 0q0 0 0 0.1l2.1 2q0 0.1 0 0.1c0.2 0.2 0.2 0.6 0 0.8q0 0 0 0-0.1 0.1-0.1 0.1c-0.2 0.2-0.5 0.2-0.8 0q0 0 0-0.1z"
       id="path3" />
  </g>
</svg>
