<svg xmlns="http://www.w3.org/2000/svg" id="svg9" width="16" height="16" version="1.2"><style id="style1">.s1{fill:#5bafd4}</style><g id="Layer 1"><path id="path1" d="M4.2 1c-1.1 0-1.7 0-2.1.2a1.2 1.2 0 0 1-.3.2l-.2.2-.2.2a1.2 1.2 0 0 1-.2.3c-.2.4-.2 1-.2 2.1V9c0 1.4 0 2.1.3 2.6l.2.4q.1.1.2.3.2.1.3.2l.4.2c.5.3 1.2.3 2.6.3h2.43l-.406-.216-.428-.227-.715-1.643V9.563l.318-.9.662-.397.106-.903.556-.529.397-.133.027-.847.133-.555.688-.504h3.418l.689.424.078.662.108.397.386.118.54-.636c-.025-.626-.094-1.036-.288-1.36L13.5 4a1.2 1.2 0 0 1-.2-.3 1.2 1.2 0 0 1-.3-.2l-.4-.2C12.1 3 11.4 3 10 3H8v-.1h-.1l-.1-.1-.6-.6c-.5-.5-.7-.7-.9-.8q-.1-.1-.2-.1-.1-.1-.2-.1t-.2-.1h-.2C5.3 1 5 1 4.3 1Z" style="fill:#8080a0"/><path id="path2" d="m13.923 7.12.357-.267.178.178c.178.268.357.624.357.98.356 0 .713.09.98.357l.179.179-.268.267c-.267.268-.535.357-.891.357-.357 0-.624-.09-.892-.357-.178-.178-.356-.535-.356-.802 0-.357.178-.624.356-.891" class="s1" style="stroke-width:.891391"/><path id="path3" d="M12.23 9.17v.536l2.317-.535v-.624l-.624-.268v.357q-.089.178-.178.267l-.357.179q-.089.089-.267.089z" class="s1" style="stroke-width:.891391"/><path id="path4" d="M11.962 7.388h.535c.178 0 .357.178.357.357v.534c0 .179-.179.268-.357.268h-.535q-.267 0-.267-.268v-.534c0-.179.089-.357.267-.357" class="s1" style="stroke-width:.891391"/><path id="path5" d="M10.18 7.388h.623c.179 0 .268.178.268.357v.534q0 .268-.268.268h-.624c-.089 0-.267-.09-.267-.268v-.534c0-.179.178-.357.267-.357" class="s1" style="stroke-width:.891391"/><path id="path6" d="M8.486 7.388h.624c.089 0 .267.178.267.357v.534c0 .179-.178.268-.267.268h-.624q-.268 0-.268-.268v-.534c0-.179.09-.357.268-.357" class="s1" style="stroke-width:.891391"/><path id="path7" d="M9.377 5.694h.535q.267 0 .267.268v.624c0 .089-.089.267-.267.267h-.535c-.178 0-.267-.178-.267-.267v-.624q0-.268.267-.268" class="s1" style="stroke-width:.891391"/><path id="path8" d="M11.07 5.694h.625c.089 0 .267.09.267.268v.624c0 .089-.178.267-.267.267h-.624c-.178 0-.268-.178-.268-.267v-.624q0-.268.268-.268" class="s1" style="stroke-width:.891391"/><path id="path9" fill-rule="evenodd" d="M7.06 9.706v.267q0 .624.178 1.159.267.535.624.891.446.446.98.624.535.268 1.07.268h.891l.624-.09q.624-.178 1.248-.445.535-.357.98-.803.447-.534.625-1.158.267-.624.267-1.248H7.416l-.178.178-.178.178zm1.693 1.158q0 .268.179.446.178.09.445.178l.357-.178q.178-.178.178-.446 0-.267-.178-.356-.179-.178-.357-.178-.267 0-.445.178-.179.089-.179.356" class="s1" style="stroke-width:.891391"/></g></svg>