<svg xmlns="http://www.w3.org/2000/svg" width="16" height="16" version="1.2"><path fill-rule="evenodd" d="M1 9V4.2c0-1.1 0-1.7.2-2.1q.3-.6.9-.9c.4-.2 1-.2 2.1-.2h.1c.7 0 1 0 1.2.1q.4.1.8.3c.2.1.4.3.9.8l.6.6.1.1q.1.1.2.1H10c1.4 0 2.1 0 2.6.3.5.2.9.6 1.1 1.1.2.4.3.9.3 1.8-1-1-2.4-1.7-4-1.7C7 4.5 4.5 7 4.5 10q0 1.6.9 3H5c-1.4 0-2.1 0-2.6-.3-.5-.2-.9-.6-1.1-1.1C1 11.1 1 10.4 1 9" style="fill:#8080a0"/><path d="M10 6c-2.2 0-4 1.8-4 4s1.8 4 4 4 4-1.8 4-4-1.8-4-4-4m0 .6c.3 0 .6.2.6.5V9l.4.4h.7c.4 0 .6.3.6.6s-.2.6-.6.6H11c-.2.3-.6.5-1 .5-.6 0-1.1-.5-1.1-1.1 0-.4.2-.8.5-1V7.1c0-.3.3-.5.6-.5" style="fill:#f17f66"/></svg>