<svg xmlns="http://www.w3.org/2000/svg" width="16" height="16" version="1.2"><g fill-rule="evenodd"><path d="M1 4.2V9c0 1.4 0 2.1.3 2.6.2.5.6.9 1.1 1.1.5.3 1.2.3 2.6.3v-.8c0-.7 0-1 .1-1.2q.1-.4.3-.8c.1-.2.3-.4.8-.9l2.6-2.6c.5-.5.7-.7.9-.8q.4-.2.8-.3c.2-.1.5-.1 1.2-.1H14c-.1-.5-.1-.8-.3-1.1-.2-.5-.6-.9-1.1-1.1C12.1 3 11.4 3 10 3H8.1q-.1 0-.2-.1l-.1-.1-.6-.6c-.5-.5-.7-.7-.9-.8q-.4-.2-.8-.3C5.3 1 5 1 4.3 1h-.1c-1.1 0-1.7 0-2.1.2q-.6.3-.9.9c-.2.4-.2 1-.2 2.1" style="fill:#8080a0"/><path d="m7.1 12.6 1.3 1.3c.4.4.6.6.8.6q.3.1.6 0c.2 0 .4-.2.8-.6l2.9-2.9.4-.4q0-.1.1-.3V8.6c0-.6 0-.8-.1-1.1l-.4-.4C13.2 7 13 7 12.4 7h-1.7q-.2.1-.3.1l-.4.4-2.9 2.9c-.4.4-.6.6-.6.8q-.1.3 0 .6c0 .2.2.4.6.8m4.4-4.1c-.6 0-1 .4-1 1s.4 1 1 1 1-.4 1-1-.4-1-1-1" style="fill:#7380f9"/></g></svg>