<svg xmlns="http://www.w3.org/2000/svg" width="16" height="16" fill="none"><path fill="#8080A0" d="M1 9V4.2c0-1.12 0-1.68.218-2.108a2 2 0 0 1 .874-.874C2.52 1 3.08 1 4.2 1h.143c.612 0 .917 0 1.205.07a2.5 2.5 0 0 1 .723.298c.252.155.468.371.9.804l.595.594c.086.086.13.13.18.16a.5.5 0 0 0 .144.06C8.148 3 8.21 3 8.331 3H10c1.4 0 2.1 0 2.635.272a2.5 2.5 0 0 1 1.092 1.093C14 4.9 14 5.6 14 7v2c0 1.4 0 2.1-.273 2.635a2.5 2.5 0 0 1-1.092 1.092C12.1 13 11.4 13 10 13H5c-1.4 0-2.1 0-2.635-.273a2.5 2.5 0 0 1-1.093-1.092C1 11.1 1 10.4 1 9"/></svg>