<svg xmlns="http://www.w3.org/2000/svg" width="16" height="16" version="1.2"><path d="M4.2 1c-1.1 0-1.7 0-2.1.2q-.6.3-.9.9c-.2.4-.2 1-.2 2.1V9c0 1.4 0 2.1.3 2.6.2.5.6.9 1.1 1.1.5.3 1.2.3 2.6.3h3.02L6.7 11.418l1.432-3.285.238-1.856 2.754-2.25 1.326.078 1.53 1.532c-.029-.558-.1-.935-.282-1.237-.2-.5-.6-.9-1.1-1.1C12.1 3 11.4 3 10 3H8.1q-.1 0-.2-.1l-.1-.1-.6-.6c-.5-.5-.7-.7-.9-.8a4 4 0 0 0-.8-.3C5.3 1 5 1 4.3 1z" style="fill:#8080a0"/><path d="M13.7 13.4c0 .4-.4.7-.8.6-.6-.2-1.3-.4-1.9-.5h-1q0-.1-.1-.1h-.1q0-.1-.1-.1l-1.5-1.6q-.1-.1-.1-.2-.1 0-.1-.1v-.2q0-.1.1-.2s.9-2.1 1-2.2c0-.1.1-1.1.2-1.6v-.1q0-.1.1-.1v-.1q.1 0 .1-.1l1.9-1.6q0-.1.2-.2h.2q.1 0 .2.1.1 0 .2.1l1.6 2v.1q.1 0 .1.1v.2c0 .4.1 1.1.3 1.6q0 .2.1.4.1.1.2.3.1.1.2.3t.2.3l.1.1v.2h-.1c-.1.3-.4.7-.7 1.3q-.1.1-.2.3-.1.1-.1.3-.1.2-.1.3-.1.2-.1.4" style="fill:#a67cf8"/></svg>