<svg xmlns="http://www.w3.org/2000/svg" width="16" height="16" version="1.2"><path fill-rule="evenodd" d="M1 9V4.2c0-1.1 0-1.7.2-2.1q.3-.6.9-.9c.4-.2 1-.2 2.1-.2h.1c.7 0 1 0 1.2.1q.4.1.8.3c.2.1.4.3.9.8l.6.6.1.1q.1.1.2.1H10c1.4 0 2.1 0 2.6.3.5.2.9.6 1.1 1.1.3.5.3 1.2.3 2.6v.9q-.3-.2-.6-.5-.3-.2-.4-.3V7c0-1.4-1.1-2.5-2.5-2.5S8 5.6 8 7v.1q-.1.1-.4.3c-1.3.9-2.1 2.4-2.1 4.1q0 .8.2 1.5H5c-1.4 0-2.1 0-2.6-.3-.5-.2-.9-.6-1.1-1.1C1 11.1 1 10.4 1 9m12-2" style="fill:#8080a0"/><path d="M11.5 7c0-.6-.4-1-1-1s-1 .4-1 1zM8.4 9.9l-.2-.1-1.4 1.4.1.2zm1.2-3V7h2v-.1zm1.1 2.4.7.6 1.3-1.6-.7-.5zm1.2-1.6-1.3 1.5q.1 0 .1.1zm-.6.7.6-.7zM12 11v.2h2V11zm-3 .2q0-.9-.6-1.5l-1.5 1.4q.1 0 .1.1zm1.5 1.5c-.8 0-1.5-.6-1.5-1.5H7c0 2 1.6 3.5 3.5 3.5zm1.5-1.5c0 .9-.7 1.5-1.5 1.5v2c1.9 0 3.5-1.5 3.5-3.5zm-.6-1.5c.4.3.6.8.6 1.3h2c0-1.1-.5-2.2-1.4-2.9zm-3.7.7-.7.7zm1.9-3.5c0 .8.4 1.7 1 2.2l1.3-1.5c-.2-.2-.3-.5-.3-.8zm1.7 1.5.6-.7zm-.7-1.6h1z" style="fill:#a67cf8"/></svg>