<?xml version="1.0" encoding="UTF-8" standalone="no"?>
<svg
   version="1.2"
   viewBox="0 0 16 16"
   width="16"
   height="16"
   id="svg2"
   sodipodi:docname="javascript.svg"
   inkscape:version="1.4 (e7c3feb100, 2024-10-09)"
   xmlns:inkscape="http://www.inkscape.org/namespaces/inkscape"
   xmlns:sodipodi="http://sodipodi.sourceforge.net/DTD/sodipodi-0.dtd"
   xmlns="http://www.w3.org/2000/svg"
   xmlns:svg="http://www.w3.org/2000/svg">
  <defs
     id="defs2" />
  <sodipodi:namedview
     id="namedview2"
     pagecolor="#505050"
     bordercolor="#eeeeee"
     borderopacity="1"
     inkscape:showpageshadow="0"
     inkscape:pageopacity="0"
     inkscape:pagecheckerboard="0"
     inkscape:deskcolor="#505050"
     inkscape:zoom="37.75"
     inkscape:cx="7.986755"
     inkscape:cy="7.986755"
     inkscape:window-width="1316"
     inkscape:window-height="756"
     inkscape:window-x="20"
     inkscape:window-y="20"
     inkscape:window-maximized="0"
     inkscape:current-layer="svg2" />
  <title
     id="title1">folder</title>
  <style
     id="style1">
		.s0 { fill: #8080a0 } 
		.s1 { fill: #f5aa52 } 
	</style>
  <g
     id="Layer 1">
    <path
       id="path1"
       class="s0"
       d="M 4.1992188,1 C 3.0992187,1 2.4996094,0.99921875 2.0996094,1.1992188 c -0.4,0.2 -0.7003906,0.5003906 -0.9003906,0.9003906 C 0.99921875,2.4996094 1,3.0992187 1,4.1992188 V 9 c 0,1.4 7.812e-4,2.099609 0.3007812,2.599609 0.2,0.5 0.5996094,0.89961 1.0996094,1.09961 C 2.9003906,12.999219 3.6,13 5,13 H 5.5507812 C 5.5027495,12.622166 5.5,12.151604 5.5,11.5 V 8 C 5.5,6.8 5.5007813,6.1992188 5.8007812,5.6992188 5.9007813,5.2992187 6.2992187,4.9007812 6.6992188,4.8007812 7.1992187,4.5007812 7.8,4.5 9,4.5 h 3.5 c 0.521939,0 0.925655,7.055e-4 1.261719,0.025391 -0.02011,-0.042272 -0.03878,-0.085475 -0.0625,-0.125 -0.2,-0.5 -0.59961,-0.8996093 -1.09961,-1.0996094 C 12.099609,3.0007813 11.4,3 10,3 H 8.3007812 8.0996094 C 8.0329427,3 7.9670573,2.9670573 7.9003906,2.9003906 L 7.8007812,2.8007812 7.1992188,2.1992188 c -0.5,-0.5 -0.6984375,-0.6988282 -0.8984376,-0.7988282 C 6.0341146,1.2670573 5.7666667,1.166276 5.5,1.0996094 5.3,0.99960938 5.0007813,1 4.3007812,1 Z"
       sodipodi:nodetypes="sssssccscssccsscccscsscsscss" />
    <path
       id="path1 copy"
       class="s1"
       d="m9.5 6c-0.9 0-1.3 0-1.6 0.2-0.3 0.1-0.6 0.4-0.7 0.7-0.2 0.3-0.2 0.7-0.2 1.6v2.5c0 0.9 0 1.3 0.2 1.6 0.1 0.3 0.4 0.6 0.7 0.7 0.3 0.2 0.7 0.2 1.6 0.2h2.5c0.9 0 1.3 0 1.6-0.2 0.3-0.1 0.6-0.4 0.7-0.7 0.2-0.3 0.2-0.7 0.2-1.6v-2.5c0-0.9 0-1.3-0.2-1.6-0.1-0.3-0.4-0.6-0.7-0.7-0.3-0.2-0.7-0.2-1.6-0.2zm0.6 3.4q0.4 0 0.4 0.5v1.5q0 0.6-0.2 0.9-0.2 0.3-0.5 0.5-0.3 0.1-0.7 0.1-0.3 0-0.7-0.1-0.3-0.1-0.5-0.4-0.2-0.2-0.2-0.7 0-0.1 0.2-0.2 0.1-0.1 0.3-0.1 0.2 0 0.3 0.1 0.1 0.1 0.2 0.4 0 0.1 0.1 0.2l0.1 0.2h0.2q0.2 0 0.3-0.1 0.1-0.1 0.2-0.3 0-0.2 0-0.5v-1.5q0-0.5 0.5-0.5zm2.7 0q0.3 0 0.6 0 0.3 0.1 0.5 0.3l0.2 0.2q0.1 0.1 0.1 0.2 0 0.1-0.1 0.3-0.2 0-0.3 0-0.2 0-0.3 0-0.1-0.1-0.2-0.1 0-0.2-0.2-0.2-0.1-0.1-0.3-0.1-0.2 0-0.3 0.1-0.1 0-0.1 0.1-0.1 0-0.1 0.1 0 0.1 0.1 0.3 0.2 0.1 0.6 0.1 0.4 0.2 0.7 0.3 0.2 0.1 0.4 0.3 0.2 0.3 0.2 0.6 0 0.3-0.2 0.5-0.2 0.3-0.5 0.4-0.4 0.1-0.9 0.1-0.3 0-0.6-0.1-0.3 0-0.5-0.2-0.3-0.2-0.3-0.5 0-0.1 0.1-0.2 0-0.2 0.2-0.2 0.2 0.1 0.3 0.1 0.2 0.1 0.2 0.2 0.1 0.1 0.3 0.2 0.2 0.1 0.4 0.1h0.3q0.1-0.1 0.2-0.2 0.1-0.1 0.1-0.2 0-0.2-0.2-0.3-0.2 0-0.6-0.1-0.7-0.2-1-0.4-0.2-0.3-0.2-0.8 0-0.2 0.2-0.5 0.2-0.2 0.5-0.3 0.3-0.1 0.7-0.1z" />
  </g>
</svg>
