<svg xmlns="http://www.w3.org/2000/svg" width="16" height="16" version="1.2"><g fill-rule="evenodd"><path d="M1 4.2V9c0 1.4 0 2.1.3 2.6.2.5.6.9 1.1 1.1.3.2.6.2 1.1.3V9.5c0-1.4 0-2.1.3-2.6.2-.5.6-.9 1.1-1.1.5-.3 1.2-.3 2.6-.3H14c-.1-.5-.1-.8-.3-1.1-.2-.5-.6-.9-1.1-1.1C12.1 3 11.4 3 10 3H8.1q-.1 0-.2-.1l-.1-.1-.6-.6c-.5-.5-.7-.7-.9-.8q-.4-.2-.8-.3C5.3 1 5 1 4.3 1h-.1c-1.1 0-1.7 0-2.1.2q-.6.3-.9.9c-.2.4-.2 1-.2 2.1" style="fill:#8080a0"/><path d="M5.1 7.6c-.1.2-.1.4-.1.9s0 .7.1.9q.1.4.5.5c.2.1.4.1.9.1h6c.5 0 .7 0 .9-.1q.4-.1.5-.5c.1-.2.1-.4.1-.9s0-.7-.1-.9q-.1-.4-.5-.5c-.2-.1-.4-.1-.9-.1h-6c-.5 0-.7 0-.9.1q-.4.1-.5.5m0 4c-.1.2-.1.4-.1.9s0 .7.1.9q.1.4.5.5c.2.1.4.1.9.1h6c.5 0 .7 0 .9-.1q.4-.1.5-.5c.1-.2.1-.4.1-.9s0-.7-.1-.9q-.1-.4-.5-.5c-.2-.1-.4-.1-.9-.1h-6c-.5 0-.7 0-.9.1q-.4.1-.5.5m.7-3.1c0-.4.3-.7.7-.7s.8.3.8.7-.4.8-.8.8-.7-.4-.7-.8m0 4c0-.4.3-.7.7-.7s.8.3.8.7-.4.8-.8.8-.7-.4-.7-.8" style="fill:#f5aa52"/></g></svg>