<svg xmlns="http://www.w3.org/2000/svg" width="16" height="16" version="1.2"><path d="M4.2 1c-1.1 0-1.7 0-2.1.2a1.2 1.2 0 0 1-.3.2l-.2.2-.2.2a1.2 1.2 0 0 1-.2.3c-.2.4-.2 1-.2 2.1V9c0 1.4 0 2.1.3 2.6l.2.4q.1.1.2.3.2.1.3.2l.4.2c.5.3 1.2.3 2.6.3h1.602l-.002-.6-.027-5.105c-.006-1.2 0-1.7.1-2.1q.4-.5.9-.5h.4c.382 0 3.999 2.092 6 3.129 0-1.55.013-2.945-.274-3.424L13.5 4a1.2 1.2 0 0 1-.2-.3 1.2 1.2 0 0 1-.3-.2l-.4-.2C12.1 3 11.4 3 10 3H8v-.1h-.1l-.1-.1-.6-.6c-.5-.5-.7-.7-.9-.8q-.1-.1-.2-.1-.1-.1-.2-.1t-.2-.1h-.2C5.3 1 5 1 4.3 1Z" style="fill:#8080a0"/><path d="M8.803 6.61c1.302.627 2.616 1.376 3.926 2.052.714.357.982.535.982.803l.089.089v.357q-.09.09-.09.178c0 .268-.267.357-.98.714L9.784 12.41c-.625.446-.893.625-1.16.446q-.357 0-.536-.356C8 12.409 8 12.142 8 11.339V8.126c0-.714 0-.981.09-1.249q.178-.267.535-.268Z" style="fill:#f1667f;stroke-width:.892305"/></svg>