<svg xmlns="http://www.w3.org/2000/svg" width="16" height="16" version="1.2"><path fill-rule="evenodd" d="M1 4.2V9c0 1.4 0 2.1.3 2.6.2.5.6.9 1.1 1.1.5.3 1.2.3 2.6.3h.5v-2.9c0-2 0-2.9.4-3.7.3-.6.9-1.2 1.5-1.5.8-.4 1.7-.4 3.7-.4h2.7q0-.1-.1-.1c-.2-.5-.6-.9-1.1-1.1C12.1 3 11.4 3 10 3H8.1q-.1 0-.2-.1l-.1-.1-.6-.6c-.5-.5-.7-.7-.9-.8q-.4-.2-.8-.3C5.3 1 5 1 4.3 1h-.1c-1.1 0-1.7 0-2.1.2q-.6.3-.9.9c-.2.4-.2 1-.2 2.1" style="fill:#8080a0"/><path d="M9 6.8h3c.7 0 1.3.5 1.3 1.2l-.1 2c0 .7-.5 1.3-1.2 1.3H9c-.7 0-1.3-.6-1.3-1.3V8c0-.7.6-1.2 1.3-1.2z" style="fill:none;stroke:#5bafd4;stroke-width:1.5"/><path d="M7.8 13h5.5c.4 0 .7.3.7.8v-.1c0 .5-.3.8-.7.8H7.8c-.5 0-.8-.3-.8-.8 0-.4.3-.7.8-.7" style="fill:#5bafd4"/></svg>