<svg version="1.2" xmlns="http://www.w3.org/2000/svg" viewBox="0 0 16 16" width="16" height="16">
	<title>folder-sample</title>
	<style>
		.s0 { fill: #8080a0 } 
		.s1 { fill: #5bafd4 } 
	</style>
	<g id="Layer 1">
		<path id="path1" class="s0" d="m4.2 1c-1.1 0-1.7 0-2.1 0.2q0 0-0.1 0.1 0 0 0 0-0.1 0-0.1 0.1-0.1 0-0.1 0l-0.2 0.2-0.2 0.2q0 0 0 0.1-0.1 0-0.1 0.1 0 0 0 0-0.1 0.1-0.1 0.1c-0.2 0.4-0.2 1-0.2 2.1v4.8c0 1.4 0 2.1 0.3 2.6l0.2 0.4q0.1 0.1 0.2 0.3 0.2 0.1 0.3 0.2l0.4 0.2c0.5 0.3 1.2 0.3 2.6 0.3h4.5l-0.1-0.9c0 0-1.1-0.8-1.4-1.8-0.3-1-0.4-2.6 0.4-3.5 0.8-0.8 1.4-1.5 2.6-2 0.7-0.2 2 0.1 2.9 0.3q0-0.1 0-0.2 0-0.1-0.1-0.2 0-0.1 0-0.1-0.1-0.1-0.1-0.2l-0.2-0.4q0 0-0.1-0.1 0 0 0 0 0-0.1-0.1-0.1 0-0.1 0-0.1 0 0-0.1 0 0-0.1-0.1-0.1 0 0 0 0-0.1-0.1-0.1-0.1l-0.4-0.2c-0.5-0.3-1.2-0.3-2.6-0.3h-2v-0.1h-0.1l-0.1-0.1-0.6-0.6c-0.5-0.5-0.7-0.7-0.9-0.8q-0.1-0.1-0.2-0.1-0.1-0.1-0.2-0.1-0.1 0-0.2-0.1h-0.2c-0.2-0.1-0.5-0.1-1.2-0.1z"/>
		<path id="Forma 1" fill-rule="evenodd" class="s1" d="m12 12c-1.7 0-3-1.3-3-3 0-1.7 1.3-3 3-3 1.7 0 3 1.3 3 3 0 1.7-1.3 3-3 3z"/>
		<path id="Forma 2" fill-rule="evenodd" class="s1" d="m13.3 12.5v0.6q0 0.2-0.1 0.4-0.1 0.2-0.2 0.4-0.2 0.1-0.4 0.2-0.2 0.1-0.4 0.1h-0.3q-0.2 0-0.4-0.1-0.3-0.1-0.4-0.3-0.2-0.1-0.3-0.4-0.1-0.2-0.1-0.4v-0.5c0 0 0.6 0.4 1.4 0.4 0.8 0 1.2-0.4 1.2-0.4z"/>
	</g>
</svg>