<svg xmlns="http://www.w3.org/2000/svg" width="16" height="16" version="1.2"><path d="M4.2 1c-1.1 0-1.7 0-2.1.2q-.6.3-.9.9c-.2.4-.2 1-.2 2.1V9c0 1.4 0 2.1.3 2.6.2.5.6.9 1.1 1.1.5.3 1.2.3 2.6.3h.826c.592-3.105 2.05-7.44 7.217-9.038-.12-.084-.305-.606-.443-.661C12.1 3 11.4 3 10 3H8.1q-.1 0-.2-.1l-.1-.1-.6-.6c-.5-.5-.7-.7-.9-.8a4 4 0 0 0-.8-.3C5.3 1 5 1 4.3 1Zm9.798 5.602-.098.097.098.049z" style="fill:#8080a0"/><path fill-rule="evenodd" d="M14.7 5c-6.1.4-7.2 5.9-7.7 8.8-.1.4.1.6.4.6s.5-.3.5-.6q.6-1.8 2.3-2c1.7-.2 3-1.7 3.6-2.9.1-.2-.1-.5-.2-.6l-.4-.3.5-.4c.4-.4.8-1 1.4-2.1.1-.2 0-.5-.4-.5" style="fill:#f1667f"/></svg>