<svg xmlns="http://www.w3.org/2000/svg" width="16" height="16" version="1.2"><g fill-rule="evenodd"><path d="M1 9V4.2c0-1.1 0-1.7.2-2.1q.3-.6.9-.9c.4-.2 1-.2 2.1-.2h.1c.7 0 1 0 1.2.1q.4.1.8.3c.2.1.4.3.9.8l.6.6.1.1q.1.1.2.1H10c1.4 0 2.1 0 2.6.3.5.2.9.6 1.1 1.1.2.4.3.9.3 1.8-1-1-2.4-1.7-4-1.7C7 4.5 4.5 7 4.5 10q0 1.6.9 3H5c-1.4 0-2.1 0-2.6-.3-.5-.2-.9-.6-1.1-1.1C1 11.1 1 10.4 1 9" style="fill:#8080a0"/><path d="M10 14c-2.2 0-4-1.8-4-4s1.8-4 4-4 4 1.8 4 4-1.8 4-4 4m-.6-3.6q0 .6.1 1v.3c.1.6.3 1 .5 1s.4-.4.5-1v-.3q.1-.4.1-1zm1.4-.8H9.4q.1-.6.1-1 .1-.2.1-.3c.1-.6.3-1 .5-1s.4.4.6 1v.3q.1.4.1 1m1.1.8c-.1.7-.1 1.3-.3 1.7v.4c.7-.5 1.2-1.2 1.4-2.1zm1-.8h-1c0-.7-.1-1.3-.3-1.7q0-.2-.1-.4c.8.5 1.4 1.2 1.4 2.1m-4.6 0h-1c0-.9.6-1.6 1.4-2.1q-.1.2-.1.4c-.2.4-.3 1-.3 1.7m.3 2.5q0 .2.1.4c-.8-.5-1.4-1.2-1.4-2.1h1c0 .7.1 1.3.3 1.7" style="fill:#5bafd4"/></g></svg>