<svg xmlns="http://www.w3.org/2000/svg" width="16" height="16" version="1.2"><path fill-rule="evenodd" d="M1 4.2V9c0 1.4 0 2.1.3 2.6.2.5.6.9 1.1 1.1.5.3 1.2.3 2.6.3h.4q-.9-1.35-.9-3C4.5 7 7 4.5 10 4.5c1.6 0 3 .7 4 1.7 0-.9-.1-1.4-.3-1.8-.2-.5-.6-.9-1.1-1.1C12.1 3 11.4 3 10 3H8.1q-.1 0-.2-.1l-.1-.1-.6-.6c-.5-.5-.7-.7-.9-.8q-.4-.2-.8-.3C5.3 1 5 1 4.3 1h-.1c-1.1 0-1.7 0-2.1.2q-.6.3-.9.9c-.2.4-.2 1-.2 2.1" style="fill:#8080a0"/><path d="M6.1 9v.2c.1-.4.6-.5.8-.3 0 0-.1-.1 0 0L8 10c.6.6 1.4.6 2 0s.6-1.4 0-2L8.9 6.9c-.1-.1 0 0 0 0-.2-.2-.1-.7.3-.8H9q.5-.1 1-.1c2.2 0 4 1.8 4 4v1.1c0 .8 0 .8.5 1.4l.2.2q.1.1.1.2c.4.3.4.9 0 1.2q0 .1-.1.2l-.4.4q-.1.1-.2.1c-.3.4-.9.4-1.2 0q-.1 0-.2-.1l-.2-.2c-.6-.5-.6-.5-1.4-.5H10c-2.2 0-4-1.8-4-4q0-.5.1-1" style="fill:#a67cf8"/></svg>