<svg xmlns="http://www.w3.org/2000/svg" width="16" height="16" version="1.2"><path d="M4.2 1c-1.1 0-1.7 0-2.1.2q-.6.3-.9.9c-.2.4-.2 1-.2 2.1V9c0 1.4 0 2.1.3 2.6.2.5.6.9 1.1 1.1.5.3 1.2.3 2.6.3h2.6l-1-1c-.7-.7-1-1-1.1-1.4q-.2-.6 0-1.1c.1-.4.403-.697 1.1-1.4l2.974-3 .028-.002C10 4.699 10.2 4.5 10.5 4.5q.5-.2 1.1 0c.4.1.7.4 1.4 1.1l.998.998c-.003-1.118-.031-1.752-.299-2.198-.2-.5-.6-.9-1.1-1.1C12.1 3 11.4 3 10 3H8.1q-.1 0-.2-.1l-.1-.1-.6-.6c-.5-.5-.7-.7-.9-.8a4 4 0 0 0-.8-.3C5.3 1 5 1 4.3 1z" style="fill:#8080a0"/><path fill-rule="evenodd" d="M7.1 10.4c.1.3.3.6.8 1l1.8 1.8c.4.5.7.7 1 .8q.3.2.7 0c.3-.1.6-.3 1-.8l1.8-1.8c.5-.4.7-.7.8-1q.2-.4 0-.7c-.1-.3-.3-.6-.8-1l-1.8-1.8c-.4-.5-.7-.7-1-.8q-.4-.2-.7 0c-.2 0-.4.2-.7.4l3.2 3.2c.2.2.2.5 0 .7s-.5.2-.6 0l-1.2-1.2v2.7c0 .2-.3.4-.5.4-.3 0-.5-.2-.5-.4V8.2l-1-1-1.5 1.5c-.5.4-.7.7-.8 1q-.2.3 0 .7" style="fill:#f17f66"/></svg>