<svg xmlns="http://www.w3.org/2000/svg" id="svg1" width="16" height="16" version="1.2"><style id="style1">.s1{fill:#f5aa52}</style><g id="Layer 1"><path id="path1" d="M4.2 1c-1.1 0-1.7 0-2.1.2a1.2 1.2 0 0 1-.3.2l-.2.2-.2.2a1.2 1.2 0 0 1-.2.3c-.2.4-.2 1-.2 2.1V9c0 1.4 0 2.1.3 2.6l.2.4q.1.1.2.3.2.1.3.2l.4.2c.5.3 1.2.3 2.6.3l4.538.026-.108-.92s-1.166-.767-1.457-1.774-.345-2.624.423-3.498c.769-.874 1.431-1.563 2.624-1.986.722-.257 2.006.002 2.908.246a1.9 1.9 0 0 0-.229-.694L13.5 4a1.2 1.2 0 0 1-.2-.3 1.2 1.2 0 0 1-.3-.2l-.4-.2C12.1 3 11.4 3 10 3H8v-.1h-.1l-.1-.1-.6-.6c-.5-.5-.7-.7-.9-.8q-.1-.1-.2-.1-.1-.1-.2-.1t-.2-.1h-.2C5.3 1 5 1 4.3 1Z" style="fill:#8080a0"/><path id="Forma 1" fill-rule="evenodd" d="M12 12c-1.7 0-3-1.3-3-3s1.3-3 3-3 3 1.3 3 3-1.3 3-3 3" class="s1"/><path id="Forma 2" fill-rule="evenodd" d="m13.026 12.709-.008.429a.88.88 135.588 0 1-.88.862h-.187a.93.93 45.588 0 1-.931-.95l.007-.341s.428.291 1.026.291.974-.291.974-.291" class="s1" transform="translate(-3.808 -4.23)scale(1.31674)"/></g></svg>