<svg xmlns="http://www.w3.org/2000/svg" width="16" height="16" version="1.2"><g style="display:inline"><path fill-rule="evenodd" d="M1 4.2V9c0 1.4 0 2.1.3 2.6.2.5.6.9 1.1 1.1.5.3 1.2.3 2.6.3h.5v-2.9c0-2 0-2.9.4-3.7.3-.6.9-1.2 1.5-1.5.8-.4 1.7-.4 3.7-.4h2.7q0-.1-.1-.1c-.2-.5-.6-.9-1.1-1.1C12.1 3 11.4 3 10 3H8.1q-.1 0-.2-.1l-.1-.1-.6-.6c-.5-.5-.7-.7-.9-.8q-.4-.2-.8-.3C5.3 1 5 1 4.3 1h-.1c-1.1 0-1.7 0-2.1.2q-.6.3-.9.9c-.2.4-.2 1-.2 2.1" style="fill:#8080a0"/></g><path d="M7 8.8v-1c0-.5 0-.8.1-1 .1-.3.4-.6.7-.7.2-.1.5-.1 1-.1h4c.4 0 .5 0 .7.1q.2.1.2.2c.1.2.1.3.1.7v2.3c-.1 1.6-1.3 2.8-2.8 2.9H9.9c-1.6-.1-2.8-1.3-2.9-2.9z" style="fill:#f17f66"/><path d="m13.828 6.993.795.027.132.927s-.265.742-.9.795c-.636.053-.133 1.06-.133 1.06s1.695-.107 1.96-1.484-.185-2.331-.795-2.305c-.609.027-1.562-.026-1.562-.026Z" style="display:inline;fill:#f17f66;fill-opacity:1"/><path d="M7.491 13.113h6.165a.437.437 45 0 1 .437.437.494.494 135.46 0 1-.498.49H7.51a.517.517 45 0 1-.517-.517.456.456 140.495 0 1 .498-.41" style="fill:#f17f66;fill-opacity:1"/></svg>