<svg xmlns="http://www.w3.org/2000/svg" width="16" height="16" version="1.2"><g fill-rule="evenodd"><path d="M1 9V4.2c0-1.1 0-1.7.2-2.1q.3-.6.9-.9c.4-.2 1-.2 2.1-.2h.1c.7 0 1 0 1.2.1q.4.1.8.3c.2.1.4.3.9.8l.6.6.1.1q.1.1.2.1H10c1.4 0 2.1 0 2.6.3.5.2.9.6 1.1 1.1.2.4.3.9.3 1.8-1-1-2.4-1.7-4-1.7C7 4.5 4.5 7 4.5 10q0 1.65.9 3H5c-1.4 0-2.1 0-2.6-.3-.5-.2-.9-.6-1.1-1.1C1 11.1 1 10.4 1 9" style="fill:#8080a0"/><path d="M10 14c2.2 0 4-1.8 4-4s-1.8-4-4-4-4 1.8-4 4 1.8 4 4 4M8.9 8.1c-.2-.3-.6-.3-.8 0-.3.2-.3.6 0 .8l1 1.1-1 1.1c-.3.2-.3.6 0 .8.2.3.6.3.8 0l1.1-1 1.1 1c.2.3.6.3.8 0 .3-.2.3-.6 0-.8l-1-1.1 1-1.1c.3-.2.3-.6 0-.8-.2-.3-.6-.3-.8 0l-1.1 1z" style="fill:#f1667f"/></g></svg>