<svg xmlns="http://www.w3.org/2000/svg" width="16" height="16" version="1.2"><path d="M4.2 1c-1.1 0-1.7 0-2.1.2a1.2 1.2 0 0 1-.3.2l-.2.2-.2.2a1.2 1.2 0 0 1-.2.3c-.2.4-.2 1-.2 2.1V9c0 1.4 0 2.1.3 2.6l.2.4q.1.1.2.3.2.1.3.2l.4.2c.5.3 1.2.3 2.6.3l2.055-.026-1.054-.638-.465-.706.027-3.153.714-.954.743-.476v-.955l.45-.74.874-.743.717-.29L12 4.423l.9.556.53.927.568.435c-.008-.96-.052-1.53-.299-1.942L13.5 4a1.2 1.2 0 0 1-.2-.3 1.2 1.2 0 0 1-.3-.2l-.4-.2C12.1 3 11.4 3 10 3H8v-.1h-.1l-.1-.1-.6-.6c-.5-.5-.7-.7-.9-.8q-.1-.1-.2-.1-.1-.1-.2-.1t-.2-.1h-.2C5.3 1 5 1 4.3 1Z" style="fill:#8080a0"/><path fill-rule="evenodd" d="M10.4 9.4h1.1c.3 0 .5 0 .6-.1h.1q0-.1.1-.1v-.1h.1c.1-.2.1-.3.1-.7V8c0-.6 0-1-.1-1.2l-.2-.4q-.1-.2-.3-.4-.1-.1-.3-.2l-.4-.2c-.2-.1-.6-.1-1.2-.1-.5 0-.7 0-.9.1q-.1 0-.2.1-.2.1-.3.2t-.1.2l-.2.2v1h2.1v.6H8.7q-.4 0-.8.2-.4.1-.8.4-.3.4-.4.8-.2.4-.2.8v.2q0 .3.1.6.1.2.3.4t.5.4q.3.1.6.1c0-.9 0-1.3.2-1.6q0-.1.1-.2 0-.1.1-.2t.2-.1q.1-.1.2-.1c.3-.2.7-.2 1.6-.2m-.6-2.8q0-.2-.2-.4-.1-.1-.3-.1t-.3.1q-.1.2-.1.4 0 .1.1.3.1.1.3.1t.3-.1q.2-.2.2-.3" style="fill:#7380f9"/><path fill-rule="evenodd" d="M11 10.3H9.2q0 .1-.1.1v.1H9q0 .1-.1.1v1.1c0 .6 0 1 .1 1.2q0 .2.1.4l.3.3.3.3.4.2c.3.1.6.1 1.3.1.4 0 .6 0 .8-.1q.2 0 .3-.1l.2-.2.2-.2q.1-.1.1-.3c.1-.1.1-.4.1-.8v-.1H11v-.6h1.6q.5 0 .9-.2t.7-.5.5-.7q.1-.4.1-.8v-.2q0-.3-.1-.6t-.3-.5-.5-.3-.5-.1c0 .8 0 1.3-.2 1.6q-.1.1-.1.2-.1.1-.2.1l-.2.2q-.1.1-.2.1c-.3.2-.7.2-1.5.2m.6 2.8q0 .2.1.3.1.2.3.2t.3-.2q.2-.1.2-.3t-.2-.3q-.1-.1-.3-.1t-.3.1-.1.3" style="fill:#f5aa52"/></svg>