<svg xmlns="http://www.w3.org/2000/svg" width="16" height="16" version="1.2"><path d="m7.1 7.9-.7 1.2c-.5.8-.7 1.2-.7 1.5.1.3.2.5.5.7.2.2.7.2 1.6.2h1.4c.9 0 1.4 0 1.6-.2.3-.2.4-.4.5-.7 0-.3-.2-.7-.7-1.5l-.7-1.2c-.5-.8-.7-1.2-1-1.3s-.5-.1-.8 0-.5.5-1 1.3" style="fill:#ffab5d"/><path fill-rule="evenodd" d="M9.4 13c.5.9 1.5 1.5 2.6 1.5 1.7 0 3-1.3 3-3s-1.3-3-3-3q.3.5.5.9c.1.3.3.8.2 1.4l-1.4-.2c0-.3-.2-.7-.7-1.5l-.1-.2c-.9.5-1.5 1.5-1.5 2.6m.4 1.5h1c.3-.1.9-.1 1.3-.5l-.9-1.2.9 1.2c.6-.4 1-1 1-1.7l-1.4-.2c-.1.3-.2.5-.5.7-.2.2-.7.2-1.6.2H9" style="fill:#f5aa52"/><path fill-rule="evenodd" d="M1 4.2V9c0 1.4 0 2.1.3 2.6.2.5.6.9 1.1 1.1.5.3 1.2.3 2.6.3h2.2q-.2-.1-.4-.1l-.9-.3h-.3c-1.2-.4-1.8-1.8-1.2-2.9q0-.1.1-.2L6.7 6c.1-.2.2-.3.2-.4.8-1.1 2.4-1.1 3.2 0 .1.1.1.2.3.4v.1c.4.6 1 .9 1.7.9s1.3.2 1.9.5V7c0-1.4 0-2.1-.3-2.6-.2-.5-.6-.9-1.1-1.1C12.1 3 11.4 3 10 3H8.1q-.1 0-.2-.1l-.1-.1-.6-.6c-.5-.5-.7-.7-.9-.8q-.4-.2-.8-.3C5.3 1 5 1 4.3 1h-.1c-1.1 0-1.7 0-2.1.2q-.6.3-.9.9c-.2.4-.2 1-.2 2.1" style="fill:#8080a0"/></svg>