<svg version="1.2" xmlns="http://www.w3.org/2000/svg" viewBox="0 0 16 16" width="16" height="16">
	<title>folder-log</title>
	<style>
		.s0 { fill: #8080a0 } 
		.s1 { fill: #5bafd4 } 
	</style>
	<g id="Layer 1">
		<path fill-rule="evenodd" class="s0" d="m1 4.2v4.8c0 1.4 0 2.1 0.3 2.6 0.2 0.5 0.6 0.9 1.1 1.1 0.4 0.3 1 0.3 2.1 0.3v-3.7c0-1.7 0-2.5 0.3-3.2 0.3-0.5 0.8-1 1.3-1.3 0.7-0.3 1.5-0.3 3.2-0.3h2q0.6 0.2 1.2 0.6c0.2 0.1 0.4 0.3 0.7 0.7 0.4 0.3 0.6 0.5 0.7 0.7q0.1 0 0.1 0.1c0-1.1 0-1.8-0.3-2.2-0.2-0.5-0.6-0.9-1.1-1.1-0.5-0.3-1.2-0.3-2.6-0.3h-1.9q-0.1 0-0.2-0.1l-0.1-0.1-0.6-0.6c-0.5-0.5-0.7-0.7-0.9-0.8q-0.4-0.2-0.8-0.3c-0.2-0.1-0.5-0.1-1.2-0.1h-0.1c-1.1 0-1.7 0-2.1 0.2q-0.6 0.3-0.9 0.9c-0.2 0.4-0.2 1-0.2 2.1z"/>
		<path class="s1" d="m8.8 6c-1 0-1.5 0-1.8 0.2-0.4 0.2-0.6 0.4-0.8 0.8-0.2 0.3-0.2 0.8-0.2 1.8v3.6c0 1 0 1.4 0.2 1.8 0.2 0.4 0.4 0.6 0.8 0.8 0.3 0.2 0.8 0.2 1.8 0.2h2.1c1 0 1.5 0 1.9-0.2 0.3-0.2 0.6-0.4 0.8-0.8 0.2-0.4 0.2-0.8 0.2-1.8v-2.7c0-0.3 0-0.4-0.1-0.6q0-0.2-0.1-0.4c-0.1-0.2-0.2-0.3-0.5-0.5l-1.5-1.6c-0.2-0.2-0.4-0.3-0.5-0.4q-0.2-0.1-0.4-0.1c-0.2-0.1-0.3-0.1-0.7-0.1zm0.9 1.6q0.6 0 0.6 1v0.2h0.2q0.9 0 0.9 0.6 0 0.7-0.9 0.7h-0.2v0.2q0 1-0.6 1-0.7 0-0.7-1v-0.2h-0.2q-1 0-1-0.7 0-0.6 1-0.6h0.2v-0.2q0-1 0.7-1zm-0.9 4.7h1.7q0.9 0 0.9 0.6 0 0.7-0.9 0.7h-1.7q-1 0-1-0.7 0-0.6 1-0.6z"/>
	</g>
</svg>