<svg version="1.2" xmlns="http://www.w3.org/2000/svg" viewBox="0 0 16 16" width="16" height="16">
	<title>utility</title>
	<style>
		.s0 { fill: #8080a0 } 
		.s1 { fill: #a67cf8 } 
	</style>
	<g id="Layer 1">
		<path fill-rule="evenodd" class="s0" d="m1 4.2v4.8c0 1.4 0 2.1 0.3 2.6 0.2 0.5 0.6 0.9 1.1 1.1 0.5 0.3 1.2 0.3 2.6 0.3h0.4c-0.6-0.9-0.9-1.9-0.9-3 0-3 2.5-5.5 5.5-5.5 1.6 0 3 0.7 4 1.7 0-0.9-0.1-1.4-0.3-1.8-0.2-0.5-0.6-0.9-1.1-1.1-0.5-0.3-1.2-0.3-2.6-0.3h-1.7q-0.1 0-0.2 0-0.1 0-0.2-0.1 0 0-0.1-0.1l-0.6-0.6c-0.5-0.5-0.7-0.7-0.9-0.8q-0.4-0.2-0.8-0.3c-0.2-0.1-0.5-0.1-1.2-0.1h-0.1c-1.1 0-1.7 0-2.1 0.2q-0.6 0.3-0.9 0.9c-0.2 0.4-0.2 1-0.2 2.1z"/>
		<path class="s1" d="m6.1 9c0 0 0 0.2 0 0.2 0.1-0.4 0.6-0.5 0.8-0.3 0 0-0.1-0.1 0 0l1.1 1.1c0.6 0.6 1.4 0.6 2 0 0.6-0.6 0.6-1.4 0-2l-1.1-1.1c-0.1-0.1 0 0 0 0-0.2-0.2-0.1-0.7 0.3-0.8 0 0-0.2 0-0.2 0q0.5-0.1 1-0.1c2.2 0 4 1.8 4 4q0 0.1 0 0.2 0 0.9 0 0.9c0 0.8 0 0.8 0.5 1.4q0 0 0.2 0.2 0.1 0.1 0.1 0.2c0.4 0.3 0.4 0.9 0 1.2q0 0.1-0.1 0.2l-0.4 0.4q-0.1 0.1-0.2 0.1c-0.3 0.4-0.9 0.4-1.2 0q-0.1 0-0.2-0.1-0.2-0.2-0.2-0.2c-0.6-0.5-0.6-0.5-1.4-0.5q0 0-0.9 0-0.1 0-0.2 0c-2.2 0-4-1.8-4-4q0-0.5 0.1-1z"/>
	</g>
</svg>