<svg xmlns="http://www.w3.org/2000/svg" width="16" height="16" version="1.2"><path fill-rule="evenodd" d="M1 9V4.2c0-1.1 0-1.7.2-2.1q.3-.6.9-.9c.4-.2 1-.2 2.1-.2h.1c.7 0 1 0 1.2.1q.4.1.8.3c.2.1.4.3.9.8l.6.6.1.1q.1.1.2.1H10c1.4 0 2.1 0 2.6.3.5.2.9.6 1.1 1.1.2.2.2.5.3.9l-.2-.2c-1-1-2.5-.9-3.4-.2-.5.3-.9.6-1.4.8S8.2 6 8 6h-.2c-1.2 0-2.2.9-2.4 2.1l-.7 3.8q-.1.6.1 1.1c-1.3 0-1.9 0-2.4-.3-.5-.2-.9-.6-1.1-1.1C1 11.1 1 10.4 1 9" style="fill:#8080a0"/><path d="M11.2 6.1c.5-.3 1.1-.3 1.5.1l1.1 1.1c.4.4.4 1 .1 1.5-.7.9-1.4 2.3-1.4 3.2v.2c0 .4-.3.9-.8.9l-3.9.8c-.3 0-.4-.3-.2-.5l1.9-1.9c.6 0 1-.4 1-1s-.4-1-1-1-1 .4-1 1l-1.9 1.9c-.2.2-.5.1-.5-.2l.8-3.9c0-.5.5-.8.9-.8H8c.9 0 2.3-.7 3.2-1.4" style="fill:#f17f66"/></svg>