<svg xmlns="http://www.w3.org/2000/svg" width="16" height="16" version="1.2"><path d="M4.2 1c-1.1 0-1.7 0-2.1.2q-.6.3-.9.9c-.2.4-.2 1-.2 2.1V9c0 1.4 0 2.1.3 2.6.2.5.6.9 1.1 1.1.5.3 1.2.3 2.6.3h.7l.1-5.7c0-1.1 1.4-2.6 2.5-2.6h5.5v-.2h-.1v-.1c-.2-.5-.6-.9-1.1-1.1C12.1 3 11.4 3 10 3H8.1q-.1 0-.2-.1l-.1-.1-.6-.6c-.5-.5-.7-.7-.9-.8q-.1 0-.2-.1-.1 0-.2-.1h-.2q-.1-.1-.2-.1C5.3 1 5 1 4.3 1z" style="fill:#8080a0"/><path d="M9 6c-1.1 0-2 .9-2 2v4c0 1.1.9 2 2 2h4c1.1 0 2-.9 2-2V8c0-1.1-.9-2-2-2zm2.262 1.5q.2 0 .4.2c.1.2.1.4.1 1v2.6c0 .6 0 .8-.1 1q-.2.2-.4.2c-.2 0-.401-.2-.801-.5l-1.2-1h-.198c-.3 0-.4 0-.5-.1q-.202 0-.202-.2c-.1-.1-.1-.2-.1-.5v-.4c0-.3 0-.4.1-.5q0-.2.201-.2c.1-.1.2-.1.5-.1h.2l1.199-1c.4-.3.6-.5.8-.5m1.5 1.5c.6 0 1 .4 1 1s-.4 1-1 1z" style="fill:#f1667f"/></svg>