<svg xmlns="http://www.w3.org/2000/svg" width="16" height="16" version="1.2"><path fill-rule="evenodd" d="M1 4.2V9c0 1.4 0 2.1.3 2.6.2.5.6.9 1.1 1.1.5.3 1.2.3 2.6.3h.5v-2.9c0-2 0-2.9.4-3.7.3-.6.9-1.2 1.5-1.5.8-.4 1.7-.4 3.7-.4h2.7q0-.1-.1-.1c-.2-.5-.6-.9-1.1-1.1C12.1 3 11.4 3 10 3H8.1q-.1 0-.2-.1l-.1-.1-.6-.6c-.5-.5-.7-.7-.9-.8q-.4-.2-.8-.3C5.3 1 5 1 4.3 1h-.1c-1.1 0-1.7 0-2.1.2q-.6.3-.9.9c-.2.4-.2 1-.2 2.1" style="fill:#8080a0"/><path fill-rule="evenodd" d="M7.2 9.9c0-.6 0-.9.1-1.1q.2-.3.5-.5c.2-.1.5-.1 1.1-.1h3.8c.6 0 .9 0 1.1.1q.3.2.5.5c.1.2.1.5.1 1.1v1.8c0 .6 0 .9-.1 1.1q-.2.3-.5.4c-.2.1-.5.1-1.1.1H8.9c-.6 0-.9 0-1.1-.1q-.3-.1-.5-.4c-.1-.2-.1-.5-.1-1.1z" style="fill:#a67cf8"/><path d="M9.068 9.842v-1.7s.123-1.205.873-1.483c.421-.156 1.044-.364 1.7.159 0 0 .827.524.827 1.324.1.8 0 1.7 0 1.7z" style="fill:none;stroke:#a67cf8;stroke-miterlimit:100"/></svg>