<svg xmlns="http://www.w3.org/2000/svg" width="16" height="16" version="1.2"><path d="M4.2 1c-1.1 0-1.7 0-2.1.2q-.6.3-.9.9c-.2.4-.2 1-.2 2.1V9c0 1.4 0 2.1.3 2.6.2.5.6.9 1.1 1.1.5.3 1.2.3 2.6.3h.5V8c0-1.2 0-1.8.3-2.3.1-.4.5-.8.9-.9.5-.3 1.1-.3 2.3-.3h4.8q-.1 0-.1-.1c-.2-.5-.6-.9-1.1-1.1C12.1 3 11.4 3 10 3H8.1q-.1 0-.2-.1l-.1-.1-.6-.6c-.5-.5-.7-.7-.9-.8q-.1 0-.2-.1-.1 0-.2-.1h-.2q-.1-.1-.2-.1C5.3 1 5 1 4.3 1z" style="fill:#8080a0"/><path d="M9.5 6c-.9 0-1.3 0-1.6.2-.3.1-.6.4-.7.7-.2.3-.2.7-.2 1.6V11c0 .9 0 1.3.2 1.6.1.3.4.6.7.7.3.2.7.2 1.6.2H12c.9 0 1.3 0 1.6-.2.3-.1.6-.4.7-.7.2-.3.2-.7.2-1.6V8.5c0-.9 0-1.3-.2-1.6-.1-.3-.4-.6-.7-.7-.3-.2-.7-.2-1.6-.2zM8.2 8.3h.1l1.9 1q.1 0 .2.1.1.2.1.5t-.1.5q0 .1-.1.1t-.1.1l-1.9.9H8l-.1-.1-.1-.1v-.2q-.1 0 0 0v-.3l.2-.2q.1-.1.3-.1l1.3-.6-1.4-.6H8l-.2-.2v-.3h-.1q0-.2.2-.4.1 0 .1-.1zm3.5 2.8h1.1q.3 0 .4.1.2.1.2.3t-.2.3q-.1.1-.4.1h-1.1q-.3 0-.4-.1v-.1h-.1v-.2q0-.2.1-.3t.4-.1" style="fill:#a67cf8"/></svg>