<svg xmlns="http://www.w3.org/2000/svg" width="16" height="16" version="1.2"><path d="M4.2 1c-1.1 0-1.7 0-2.1.2q-.6.3-.9.9c-.2.4-.2 1-.2 2.1V9c0 1.4 0 2.1.3 2.6.2.5.6.9 1.1 1.1.5.3 1.2.3 2.6.3h.5V8c0-1.2 0-1.8.3-2.3.1-.4.5-.8.9-.9.5-.3 1.1-.3 2.3-.3h4.8q-.1 0-.1-.1c-.2-.5-.6-.9-1.1-1.1C12.1 3 11.4 3 10 3H8.1q-.1 0-.2-.1l-.1-.1-.6-.6c-.5-.5-.7-.7-.9-.8q-.1 0-.2-.1-.1 0-.2-.1h-.2q-.1-.1-.2-.1C5.3 1 5 1 4.3 1z" style="fill:#8080a0"/><path fill-rule="evenodd" d="M7 7.3q0-.3.1-.5.1-.3.3-.4.1-.2.4-.3.2-.1.4-.1h5q.3 0 .5.1.3.1.4.3.2.1.3.4.1.2.1.5v5q0 .2-.1.4-.1.3-.3.4-.1.2-.4.3-.2.1-.5.1h-5q-.2 0-.4-.1-.3-.1-.4-.3-.2-.1-.3-.4-.1-.2-.1-.4zm1.9 0h.6v.6h-.6zm3.7 0H12v1.9h.6zM8.3 9.4v.3q0 .2.1.3l.2.2q.1.1.3.1v2h.6v-2c.3-.1.6-.4.6-.7.1-.4-.1-.7-.4-.9s-.6-.3-.9-.1c-.4.2-.5.5-.6.8zm3.8 2.2c-.4-.2-.7-.6-.6-1.1.1-.4.5-.7.9-.7.5 0 .9.3.9.7.1.5-.1.9-.6 1.1v.7h-.6z" style="fill:#a67cf8"/></svg>