<svg xmlns="http://www.w3.org/2000/svg" width="16" height="16" version="1.2"><g fill-rule="evenodd"><path d="M1 4.2V9c0 1.4 0 2.1.3 2.6.2.5.6.9 1.1 1.1q.45.3 1.2.3c.1-.4.5-.8.9-.9q.1 0 .1-.1t-.1-.1c-.6-.2-1-.7-1-1.4V9c0-.5.2-1 .6-1.2.4-.3.8-.6.9-1.1.7-1.9 2.4-3.2 4.5-3.2.8 0 1.5.7 1.5 1.5v1.5q0 .4-.2.7c-.1.2 0 .7.3.8q.2.1.3 0 1-.5 2.1-.5h.5V7c0-1.4 0-2.1-.3-2.6-.2-.5-.6-.9-1.1-1.1C12.1 3 11.4 3 10 3H8.1q-.1 0-.2-.1l-.1-.1-.6-.6c-.5-.5-.7-.7-.9-.8q-.4-.2-.8-.3C5.3 1 5 1 4.3 1h-.1c-1.1 0-1.7 0-2.1.2q-.6.3-.9.9c-.2.4-.2 1-.2 2.1" style="fill:#80808a"/><path d="M5 15v-1.5c.6 0 1-.4 1.1-1l.1-2H5V9h1.3V8c.1-1.7 1.5-3 3.2-3v1.5c-.8 0-1.5.7-1.6 1.5v1H9c.9 0 1.7.4 2.2 1 .6-.6 1.4-1 2.3-1h.5v1.5h-.5c-.8 0-1.5.7-1.5 1.5s.7 1.5 1.5 1.5h.5V15h-.5c-.9 0-1.7-.4-2.3-1-.5.6-1.3 1-2.2 1h-.5v-1.5H9c.8 0 1.5-.7 1.5-1.5s-.7-1.5-1.5-1.5H7.8l-.2 2C7.6 13.9 6.4 15 5 15" style="fill:#a67cf8"/></g></svg>