<svg xmlns="http://www.w3.org/2000/svg" id="svg5" width="16" height="16" version="1.2"><style id="style1">.s1{fill:#5bafd4}</style><path id="path1" d="M4.2 1c-1.1 0-1.7 0-2.1.2q-.6.3-.9.9c-.2.4-.2 1-.2 2.1V9c0 1.4 0 2.1.3 2.6.2.5.6.9 1.1 1.1.5.3 1.2.3 2.6.3h1.908l-.842-.633a2.3 2.3 47.925 0 1-.588-.652 1.3 1.3 75.884 0 1-.174-.692l.04-3.128a1.74 1.74 104.416 0 1 .206-.798 1.55 1.55 138.773 0 1 .561-.492L7.63 5.581a1.4 1.4 163.778 0 1 .82-.239l.194.005a.47.47 19.563 0 1 .27.097l.635.488a.39.39 175.446 0 0 .52-.042l1.099-1.164a1.38 1.38 156.659 0 1 1.004-.434h.044a1.4 1.4 16.547 0 1 .77.23l.948.617c-.044-.3-.114-.537-.235-.739-.2-.5-.6-.9-1.1-1.1C12.1 3 11.4 3 10 3H8.1q-.1 0-.2-.1l-.1-.1-.6-.6c-.5-.5-.7-.7-.9-.8a4 4 0 0 0-.8-.3C5.3 1 5 1 4.3 1Z" style="fill:#8080a0"/><g id="Layer 1" transform="translate(5.203 4.117)scale(.66998)"><path id="path2" d="M13.8 4.1q-.1-.1-.2-.1h-.3l-.1.1-.1.1-2.1 2L9.1 8l-2.2 2.1-2 2h-.1v.1h-.2l-.1.1q0-.1-.1-.1h-.2l-2-1.5h.2q.1.1.2 0h.1q.1-.1.2-.1L4 9.3 5.1 8l1.8-2.1 3.2-3.7q0-.1.1-.1l.1-.1h.2q.1 0 .3.1z" class="s1"/><path id="path3" d="m13.8 11.9-3 2q-.1.1-.2.1h-.2q-.1 0-.1-.1-.1 0-.2-.1l-3.2-3.7L5.1 8 4 6.7 2.9 5.4q-.1 0-.2-.1h-.1q-.1-.1-.2 0-.1 0-.2.1l2-1.5.1-.1h.1q.1-.1.2 0h.1q.1 0 .1.1h.1l2 2L9.1 8 11 9.8l2.1 2 .1.1q.1 0 .1.1h.4q0-.1.1-.1" class="s1"/><path id="path4" d="M14 4.5v7.1q0 .1-.1.1v.1l-.1.1-3 2 .1-.1v-.1q.1 0 .1-.1V2.4q0-.1-.1-.1v-.1l-.1-.1 3 2 .1.1v.1q.1 0 .1.1z" class="s1"/><path id="path5" d="m4.2 12.2-2-1.5q0-.1-.1-.1v-.1l-.1-.1V5.6l.1-.1v-.1q.1 0 .1-.1l2-1.4h-.1v8.2q.1 0 .1.1" class="s1"/></g></svg>