<svg xmlns="http://www.w3.org/2000/svg" width="16" height="16" version="1.2"><g fill-rule="evenodd"><path d="M1 9V4.2c0-1.1 0-1.7.2-2.1q.3-.6.9-.9c.4-.2 1-.2 2.1-.2h.1c.7 0 1 0 1.2.1q.4.1.8.3c.2.1.4.3.9.8l.6.6.1.1q.1.1.2.1H10c1.4 0 2.1 0 2.6.3.5.2.9.6 1.1 1.1q.2.2.2.6c-.4-.3-.9-.5-1.5-.5H7.6C6.1 4.5 5 5.7 5.1 7.2l.4 5.2q0 .3.1.6H5c-1.4 0-2.1 0-2.6-.3-.5-.2-.9-.6-1.1-1.1C1 11.1 1 10.4 1 9" style="fill:#8080a0"/><path d="m13.4 7.7-.3 4.2c-.1.4-.1.6-.1.8q-.1.2-.3.3c-.2.2-.3.2-.7.3l-1.5.5c-.2.1-.3.1-.4.1q-.1.1-.2 0c-.1 0-.2 0-.4-.1L8 13.3c-.4-.1-.5-.1-.7-.3q-.2-.1-.3-.3c0-.2 0-.4-.1-.8l-.3-4.2c0-.6 0-.9.1-1.1q.1-.3.4-.5c.2-.1.5-.1 1.1-.1h3.6c.6 0 .9 0 1.1.1q.3.2.4.5c.1.2.1.5.1 1.1M10 13l1.7-.4c.2-.1.3-.2.3-.5l.5-4.6c0-.2-.3-.5-.5-.5h-2z" style="fill:#f17f66"/></g></svg>