<svg xmlns="http://www.w3.org/2000/svg" width="16" height="16" version="1.2"><path fill-rule="evenodd" d="M1 4.2V9c0 1.4 0 2.1.3 2.6.2.5.6.9 1.1 1.1.4.3 1 .3 2.1.3V9.3c0-1.7 0-2.5.3-3.2.3-.5.8-1 1.3-1.3.7-.3 1.5-.3 3.2-.3h2q.6.2 1.2.6c.2.1.4.3.7.7.4.3.6.5.7.7q.1 0 .1.1c0-1.1 0-1.8-.3-2.2-.2-.5-.6-.9-1.1-1.1C12.1 3 11.4 3 10 3H8.1q-.1 0-.2-.1l-.1-.1-.6-.6c-.5-.5-.7-.7-.9-.8q-.4-.2-.8-.3C5.3 1 5 1 4.3 1h-.1c-1.1 0-1.7 0-2.1.2q-.6.3-.9.9c-.2.4-.2 1-.2 2.1" style="fill:#8080a0"/><path d="M8.8 6c-1 0-1.5 0-1.8.2-.4.2-.6.4-.8.8-.2.3-.2.8-.2 1.8v3.6c0 1 0 1.4.2 1.8s.4.6.8.8c.3.2.8.2 1.8.2h2.1c1 0 1.5 0 1.9-.2.3-.2.6-.4.8-.8s.2-.8.2-1.8V9.7c0-.3 0-.4-.1-.6q0-.2-.1-.4c-.1-.2-.2-.3-.5-.5l-1.5-1.6c-.2-.2-.4-.3-.5-.4q-.2-.1-.4-.1c-.2-.1-.3-.1-.7-.1zm1.1 1.8q.4 0 .6.2.2.3.2.7v1q0 .2-.1.3v.5q-.1.2-.1.3 0 .5-.1.7-.2.2-.5.2-.4 0-.5-.2t-.2-.7q0-.5-.1-1V8.7q0-.4.2-.7.2-.2.6-.2m0 4.4q.3 0 .6.2.2.2.2.6t-.2.6q-.3.2-.6.2-.4 0-.6-.2-.1 0-.1-.1-.1-.1-.1-.2v-.1Q9 13.1 9 13q0-.4.3-.6.2-.2.6-.2" style="fill:#f1667f"/></svg>