<svg xmlns="http://www.w3.org/2000/svg" width="16" height="16" version="1.2"><g fill-rule="evenodd"><path d="M1 4.2V9c0 1.4 0 2.1.3 2.6.2.5.6.9 1.1 1.1.3.2.6.2 1.1.3V8.5c0-2.2 1.8-4 4-4 1.3 0 2.4.6 3.1 1.5.4.5 1.1.7 1.7.6q.3-.1.7-.1h1c0-1.1 0-1.7-.3-2.1-.2-.5-.6-.9-1.1-1.1C12.1 3 11.4 3 10 3H8.1q-.1 0-.2-.1l-.1-.1-.6-.6c-.5-.5-.7-.7-.9-.8q-.4-.2-.8-.3C5.3 1 5 1 4.3 1h-.1c-1.1 0-1.7 0-2.1.2q-.6.3-.9.9c-.2.4-.2 1-.2 2.1" style="fill:#80808a"/><path d="M5 8.5v5c0 .3.2.5.5.5H6c.3 0 .5-.2.5-.5V11h2v2.5c0 .3.2.5.5.5h.5c.3 0 .5-.2.5-.5v-5C10 7.1 8.9 6 7.5 6S5 7.1 5 8.5m1.5 1v-1c0-.6.4-1 1-1s1 .4 1 1v1zM14 8h-1c-1.1 0-2 .9-2 2h1.5c0-.6.4-1 1-1s1 .4 1 1v.5h-2c-.9 0-1.6.6-1.7 1.5-.2 1.1.7 2 1.7 2h.8c.4 0 .9-.2 1.2-.5 0 .3.2.5.5.5h.5c.3 0 .5-.2.5-.5V10c0-1.1-.9-2-2-2m-1 3.5h1.5v.5c0 .5-.5 1-1 1H13c-.5 0-.8-.5-.7-1 .1-.3.4-.5.7-.5" style="fill:#f17f66"/></g></svg>