<svg xmlns="http://www.w3.org/2000/svg" width="16" height="16" version="1.2"><g fill-rule="evenodd"><path d="M1 4.2V9c0 1.4 0 2.1.3 2.6.2.5.6.9 1.1 1.1.3.2.6.2 1.1.3V9.5c0-1.4 0-2.1.3-2.6.2-.5.6-.9 1.1-1.1.5-.3 1.2-.3 2.6-.3H14c-.1-.5-.1-.8-.3-1.1-.2-.5-.6-.9-1.1-1.1C12.1 3 11.4 3 10 3H8.1q-.1 0-.2-.1l-.1-.1-.6-.6c-.5-.5-.7-.7-.9-.8q-.4-.2-.8-.3C5.3 1 5 1 4.3 1h-.1c-1.1 0-1.7 0-2.1.2q-.6.3-.9.9c-.2.4-.2 1-.2 2.1" style="fill:#8080a0"/><path d="M5.1 7.6c-.1.2-.1.4-.1.9s0 .7.1.9a.64.64 0 0 0 .5.5c.2.1.4.1.9.1h6c.713 0 2.705-.74 2.709-1.497C15.213 7.76 13.244 7 12.5 7h-6c-.5 0-.7 0-.9.1a.64.64 0 0 0-.5.5m2.592 6.109h6.027c.5 0 .7 0 .9-.1a.64.64 0 0 0 .5-.5c.1-.2.1-.4.1-.9s0-.7-.1-.9a.64.64 0 0 0-.5-.5c-.2-.1-.4-.1-.9-.1H7.692c-.794 0-2.844.8-2.806 1.585.035.71 2.081 1.415 2.806 1.415m4.042-5.262c0-.4.3-.7.7-.7s.8.3.8.7-.4.8-.8.8-.7-.4-.7-.8m-4.821 3.709c0-.4.3-.7.7-.7s.8.3.8.7-.4.8-.8.8-.7-.4-.7-.8" style="fill:#8cc162"/></g></svg>