<?xml version="1.0" encoding="UTF-8" standalone="no"?>
<svg
   version="1.2"
   viewBox="0 0 16 16"
   width="16"
   height="16"
   id="svg2"
   sodipodi:docname="route.svg"
   inkscape:version="1.4 (e7c3feb100, 2024-10-09)"
   xmlns:inkscape="http://www.inkscape.org/namespaces/inkscape"
   xmlns:sodipodi="http://sodipodi.sourceforge.net/DTD/sodipodi-0.dtd"
   xmlns="http://www.w3.org/2000/svg"
   xmlns:svg="http://www.w3.org/2000/svg"
   xmlns:rdf="http://www.w3.org/1999/02/22-rdf-syntax-ns#"
   xmlns:cc="http://creativecommons.org/ns#"
   xmlns:dc="http://purl.org/dc/elements/1.1/">
  <defs
     id="defs2" />
  <sodipodi:namedview
     id="namedview2"
     pagecolor="#505050"
     bordercolor="#eeeeee"
     borderopacity="1"
     inkscape:showpageshadow="0"
     inkscape:pageopacity="0"
     inkscape:pagecheckerboard="0"
     inkscape:deskcolor="#505050"
     inkscape:zoom="3.3366601"
     inkscape:cx="-47.952142"
     inkscape:cy="-33.8662"
     inkscape:window-width="1316"
     inkscape:window-height="746"
     inkscape:window-x="20"
     inkscape:window-y="20"
     inkscape:window-maximized="0"
     inkscape:current-layer="Layer 1" />
  <title
     id="title1">server</title>
  <style
     id="style1">
		.s0 { fill: #8080a0 } 
		.s1 { fill: #8cc162 } 
	</style>
  <g
     id="Layer 1">
    <path
       fill-rule="evenodd"
       class="s0"
       d="m1 4.2v4.8c0 1.4 0 2.1 0.3 2.6 0.2 0.5 0.6 0.9 1.1 1.1 0.3 0.2 0.6 0.2 1.1 0.3v-3.5c0-1.4 0-2.1 0.3-2.6 0.2-0.5 0.6-0.9 1.1-1.1 0.5-0.3 1.2-0.3 2.6-0.3h6.5c-0.1-0.5-0.1-0.8-0.3-1.1-0.2-0.5-0.6-0.9-1.1-1.1-0.5-0.3-1.2-0.3-2.6-0.3h-1.7q-0.1 0-0.2 0-0.1 0-0.2-0.1 0 0-0.1-0.1l-0.6-0.6c-0.5-0.5-0.7-0.7-0.9-0.8q-0.4-0.2-0.8-0.3c-0.2-0.1-0.5-0.1-1.2-0.1h-0.1c-1.1 0-1.7 0-2.1 0.2q-0.6 0.3-0.9 0.9c-0.2 0.4-0.2 1-0.2 2.1z"
       id="path1" />
    <path
       fill-rule="evenodd"
       class="s1"
       d="M 5.1,7.6 C 5,7.8 5,8 5,8.5 5,9 5,9.2 5.1,9.4 5.1666667,9.6666667 5.3333333,9.8333333 5.6,9.9 5.8,10 6,10 6.5,10 h 6 C 13.212884,10 15.205067,9.2604416 15.208922,8.5025457 15.212697,7.7606115 13.243666,7 12.5,7 h -6 C 6,7 5.8,7 5.6,7.1 5.3333333,7.1666667 5.1666667,7.3333333 5.1,7.6 Z m 2.592053,6.108609 h 6.02649 c 0.5,0 0.7,0 0.9,-0.1 0.266667,-0.06667 0.433333,-0.233333 0.5,-0.5 0.1,-0.2 0.1,-0.4 0.1,-0.9 0,-0.5 0,-0.7 -0.1,-0.9 -0.06667,-0.266667 -0.233333,-0.433333 -0.5,-0.5 -0.2,-0.1 -0.4,-0.1 -0.9,-0.1 h -6.02649 c -0.7944185,0 -2.8438528,0.799789 -2.8057354,1.585066 0.034513,0.711029 2.0811487,1.414934 2.8057354,1.414934 z m 4.041722,-5.2615891 c 0,-0.4 0.3,-0.7 0.7,-0.7 0.4,0 0.8,0.3 0.8,0.7 0,0.4 -0.4,0.8 -0.8,0.8 -0.4,0 -0.7,-0.4 -0.7,-0.8 z M 6.9125828,12.155629 c 0,-0.4 0.3,-0.7 0.7,-0.7 0.4,0 0.8,0.3 0.8,0.7 0,0.4 -0.4,0.8 -0.8,0.8 -0.4,0 -0.7,-0.4 -0.7,-0.8 z"
       id="path2"
       sodipodi:nodetypes="csccsssssccssccsccssssssssssssss" />
  </g>
  <metadata
     id="metadata2">
    <rdf:RDF>
      <cc:Work
         rdf:about="">
        <dc:title>server</dc:title>
      </cc:Work>
    </rdf:RDF>
  </metadata>
</svg>
