<svg xmlns="http://www.w3.org/2000/svg" width="16" height="16" version="1.2"><path fill-rule="evenodd" d="M1 9V4.2c0-1.1 0-1.7.2-2.1q.3-.6.9-.9c.4-.2 1-.2 2.1-.2h.1c.7 0 1 0 1.2.1q.4.1.8.3c.2.1.4.3.9.8l.6.6.1.1q.1.1.2.1H10c1.4 0 2.1 0 2.6.3.5.2.9.6 1.1 1.1q.1.1.1.2-.4-.1-.8-.1H8C6.1 4.5 4.5 6.1 4.5 8v5c-1.1 0-1.7 0-2.1-.3-.5-.2-.9-.6-1.1-1.1C1 11.1 1 10.4 1 9" style="fill:#8080a0"/><path d="M14 7.6c0-.6 0-.8-.1-1.1l-.4-.4C13.2 6 13 6 12.4 6H9.2c-1.1 0-1.7 0-2.1.2q-.6.3-.9.9c-.2.4-.2 1-.2 2.1v2.6c0 1.1 0 1.7.2 2.1q.3.6.9.9c.4.2 1 .2 2.1.2H13c.6 0 1-.4 1-1 0-.3-.2-.5-.5-.5H8.3c-.5 0-.8-.3-.8-.7 0-.5.3-.8.8-.8h4.9c.3 0 .4 0 .5-.1q.2 0 .2-.2c.1-.1.1-.2.1-.5z" style="fill:#7380f9"/></svg>