<svg version="1.2" xmlns="http://www.w3.org/2000/svg" viewBox="0 0 16 16" width="16" height="16">
	<title>app</title>
	<style>
		.s0 { fill: #8080a0 } 
		.s1 { fill: none;stroke: #f1667f;stroke-width: 1.5 } 
		.s2 { fill: #f1667f } 
	</style>
	<g id="Layer 1">
		<path fill-rule="evenodd" class="s0" d="m1 4.2v4.8c0 1.4 0 2.1 0.3 2.6 0.2 0.5 0.6 0.9 1.1 1.1 0.5 0.3 1.2 0.3 2.6 0.3h0.5v-2.9c0-2 0-2.9 0.4-3.7 0.3-0.6 0.9-1.2 1.5-1.5 0.8-0.4 1.7-0.4 3.7-0.4h2.7q0-0.1-0.1-0.1c-0.2-0.5-0.6-0.9-1.1-1.1-0.5-0.3-1.2-0.3-2.6-0.3h-1.7q-0.1 0-0.2 0-0.1 0-0.2-0.1 0 0-0.1-0.1l-0.6-0.6c-0.5-0.5-0.7-0.7-0.9-0.8q-0.4-0.2-0.8-0.3c-0.2-0.1-0.5-0.1-1.2-0.1h-0.1c-1.1 0-1.7 0-2.1 0.2q-0.6 0.3-0.9 0.9c-0.2 0.4-0.2 1-0.2 2.1z"/>
		<path class="s1" d="m9 6.8h3c0.7 0 1.3 0.5 1.3 1.2l-0.1 2c0 0.7-0.5 1.3-1.2 1.3h-3c-0.7 0-1.3-0.6-1.3-1.3v-2c0-0.7 0.6-1.2 1.3-1.2z"/>
		<path class="s2" d="m7.8 13h5.5c0.4 0 0.7 0.3 0.7 0.8v-0.1c0 0.5-0.3 0.8-0.7 0.8h-5.5c-0.5 0-0.8-0.3-0.8-0.8 0-0.4 0.3-0.7 0.8-0.7z"/>
	</g>
</svg>