<svg version="1.2" xmlns="http://www.w3.org/2000/svg" viewBox="0 0 16 16" width="16" height="16">
	<title>shared</title>
	<style>
		.s0 { fill: #8080a0 } 
		.s1 { fill: #a67cf8 } 
	</style>
	<g id="Layer 1">
		<path fill-rule="evenodd" class="s0" d="m1 4.2v4.8c0 1.4 0 2.1 0.3 2.6 0.2 0.5 0.6 0.9 1.1 1.1 0.5 0.3 1.2 0.3 2.6 0.3h0.5v-0.6c0-0.6 0.2-1.2 0.5-1.7 0.3-0.4 0.5-1 0.5-1.6v-0.4c0-1.1 0-1.7 0.2-2.1 0.3-0.9 1-1.6 1.9-1.9 0.4-0.2 1-0.2 2.1-0.2h3.1q0-0.1-0.1-0.1c-0.2-0.5-0.6-0.9-1.1-1.1-0.5-0.3-1.2-0.3-2.6-0.3h-1.7q-0.1 0-0.2 0-0.1 0-0.2-0.1 0 0-0.1-0.1l-0.6-0.6c-0.5-0.5-0.7-0.7-0.9-0.8q-0.4-0.2-0.8-0.3c-0.2-0.1-0.5-0.1-1.2-0.1h-0.1c-1.1 0-1.7 0-2.1 0.2q-0.6 0.3-0.9 0.9c-0.2 0.4-0.2 1-0.2 2.1z"/>
		<path class="s1" d="m11.6 14h-2.6c-0.5 0-0.7 0-0.9-0.1-0.5-0.1-0.9-0.5-1-1-0.1-0.2-0.1-0.4-0.1-0.9h6v-1h-5v-2.6c0-0.8 0-1.3 0.2-1.6q0.2-0.4 0.6-0.6c0.3-0.2 0.8-0.2 1.6-0.2h2.6c0.5 0 0.7 0 0.9 0.1 0.5 0.1 0.9 0.5 1 1 0.1 0.2 0.1 0.4 0.1 0.9h-1v3.6c0 0.8 0 1.3-0.2 1.6q-0.2 0.4-0.6 0.6c-0.3 0.2-0.8 0.2-1.6 0.2z"/>
	</g>
</svg>