<svg xmlns="http://www.w3.org/2000/svg" width="16" height="16" fill="none"><path d="M4.2 1c-1.12 0-1.68 0-2.108.219a2 2 0 0 0-.873.873C1 2.52 1 3.079 1 4.199V9c0 1.4.001 2.1.273 2.635.24.47.622.852 1.092 1.092C2.9 12.999 3.6 13 5 13h1.271l-.765-.074S4.44 3.879 13.803 4.4c.008 0-.004-.01.004-.01-.04-.213.004.141-.08-.025a2.5 2.5 0 0 0-1.092-1.092C12.1 3.001 11.4 3 10 3H8.332c-.122 0-.185 0-.242-.014a.5.5 0 0 1-.145-.06c-.05-.031-.093-.074-.18-.16l-.593-.594c-.433-.433-.648-.648-.9-.803a2.5 2.5 0 0 0-.723-.3C5.26.998 4.955 1 4.344 1Z" style="fill:#8080a0;fill-opacity:1"/><path d="M12.372 6.022a5.36 5.36 0 0 0-5.36 5.36v1.322a.317.317 0 0 0 .319.318h1.897a4.785 4.785 0 0 0 4.785-4.785V6.504a.48.48 0 0 0-.482-.482zm-.424.903a.44.44 0 0 1 .407.314.44.44 0 0 1-.297.543c-1.743.513-2.464 1.483-2.807 2.34s-.271 1.572-.271 1.572a.44.44 0 0 1-.393.479.44.44 0 0 1-.479-.393s-.093-.926.33-1.983 1.397-2.274 3.374-2.855a.4.4 0 0 1 .136-.017" style="fill:#8cc162;fill-opacity:1;stroke-width:.875001"/></svg>