<svg xmlns="http://www.w3.org/2000/svg" id="svg3" width="16" height="16" version="1.2"><style id="style1">.s1{fill:#f17f66}</style><g id="Layer 1"><path id="path1" d="M4.2 1c-1.1 0-1.7 0-2.1.2q-.6.3-.9.9c-.2.4-.2 1-.2 2.1V9c0 1.4 0 2.1.3 2.6.2.5.6.9 1.1 1.1.5.3 1.2.3 2.6.3h.36l.892-4.205.45-.953.53-.53.822-.187 1.376.08 1.112-.688.107-1.087.635-.583.743-.318.954.027.978.778c-.038-.397-.114-.69-.26-.934-.2-.5-.6-.9-1.1-1.1C12.1 3 11.4 3 10 3H8.1q-.1 0-.2-.1l-.1-.1-.6-.6c-.5-.5-.7-.7-.9-.8a4 4 0 0 0-.8-.3C5.3 1 5 1 4.3 1Z" style="fill:#8080a0"/><path id="path2" d="M10.4 7.8c.4-.2.6-.3.7-.4.1 0 .2 0 .3.1.1 0 .2.1.4.4l1.1 1c.2.2.3.4.4.5v.3q0 .15-.3.6-.6 1.05-.6 2.1c0 .2 0 .3-.1.4q0 .3-.3.4s-.1 0-.3.1l-3.8.7q-.3.1-.4.1v-.2l.2-.3 1.5-1.4q.2-.2.5-.2c.5 0 .9-.4.9-.9s-.4-.9-.9-.9-.9.4-.9.9q0 .3-.2.5L7.1 13q-.2.3-.3.3t-.1-.1q-.1 0 0-.4l.8-3.7c0-.2 0-.3.1-.4q.1-.2.3-.3h.4q1.2 0 2.1-.6" class="s1"/><path id="path3" d="m14 8.8-2.1-2v-.1c-.2-.2-.2-.6 0-.8q0-.1.1-.1c.2-.2.5-.2.8 0v.1l2.1 2V8c.2.2.2.6 0 .8l-.1.1c-.2.2-.5.2-.8 0z" class="s1"/></g></svg>