<svg xmlns="http://www.w3.org/2000/svg" width="16" height="16" version="1.2"><path fill-rule="evenodd" d="M1 9V4.2c0-1.1 0-1.7.2-2.1q.3-.6.9-.9c.4-.2 1-.2 2.1-.2h.1c.7 0 1 0 1.2.1q.4.1.8.3c.2.1.4.3.9.8l.6.6.1.1q.1.1.2.1H10c1.4 0 2.1 0 2.6.3.5.2.9.6 1.1 1.1.3.4.3 1 .3 2.1h-.1l-2.4-1.4c-.3-.1-.6-.3-1-.4q-.5-.1-1 0c-.4.1-.7.3-1 .4L6.1 6.5H6c-.2.1-.6.3-.8.6q-.4.4-.6 1c-.1.3-.1.8-.1 1v2.8c0 .2 0 .7.1 1v.1c-1.1 0-1.7 0-2.2-.3-.5-.2-.9-.6-1.1-1.1C1 11.1 1 10.4 1 9" style="fill:#8080a0"/><path fill-rule="evenodd" d="M9.8 6.2c-.2 0-.3.1-.6.2L6.8 7.8c-.3.2-.4.2-.5.4q-.2.1-.3.3v4q.1.2.3.3c.1.2.2.2.5.4l2.4 1.4c.3.1.4.2.6.2q.2.1.4 0c.2 0 .3-.1.6-.2l2.4-1.4c.3-.2.4-.2.5-.4q.2-.1.2-.3c.1-.2.1-.3.1-.7V9.2c0-.4 0-.5-.1-.7q0-.2-.2-.3c-.1-.2-.2-.2-.5-.4l-2.4-1.4c-.3-.1-.4-.2-.6-.2q-.2-.1-.4 0M8.3 8.9c-.3-.1-.7 0-.9.3-.1.3 0 .7.3.9l1.7.8V13c0 .3.3.6.6.6s.6-.3.6-.6v-2.1l1.7-.8c.3-.2.4-.6.3-.9-.2-.3-.6-.4-.9-.3l-1.7.9z" style="fill:#8cc162"/></svg>