<?xml version="1.0" encoding="UTF-8" standalone="no"?>
<svg
   version="1.2"
   viewBox="0 0 16 16"
   width="16"
   height="16"
   id="svg3"
   sodipodi:docname="folder-lua.svg"
   inkscape:version="1.4 (e7c3feb100, 2024-10-09)"
   xmlns:inkscape="http://www.inkscape.org/namespaces/inkscape"
   xmlns:sodipodi="http://sodipodi.sourceforge.net/DTD/sodipodi-0.dtd"
   xmlns="http://www.w3.org/2000/svg"
   xmlns:svg="http://www.w3.org/2000/svg">
  <defs
     id="defs3" />
  <sodipodi:namedview
     id="namedview3"
     pagecolor="#505050"
     bordercolor="#eeeeee"
     borderopacity="1"
     inkscape:showpageshadow="0"
     inkscape:pageopacity="0"
     inkscape:pagecheckerboard="0"
     inkscape:deskcolor="#505050"
     inkscape:zoom="48.8125"
     inkscape:cx="8"
     inkscape:cy="5.9513444"
     inkscape:window-width="1409"
     inkscape:window-height="793"
     inkscape:window-x="102"
     inkscape:window-y="102"
     inkscape:window-maximized="0"
     inkscape:current-layer="svg3" />
  <title
     id="title1">folder-icon</title>
  <style
     id="style1">
		.s0 { fill: #8080a0 } 
		.s1 { fill: #7380f9 } 
	</style>
  <g
     id="Layer 1">
    <path
       id="path1"
       class="s0"
       d="M 4.1992188 1 C 3.0992188 1 2.4996094 0.9992187 2.0996094 1.1992188 C 2.0329427 1.2658854 1.9341146 1.333724 1.8007812 1.4003906 L 1.5996094 1.5996094 L 1.4003906 1.8007812 C 1.333724 1.9341146 1.2658854 2.0329427 1.1992188 2.0996094 C 0.9992187 2.4996094 1 3.0992187 1 4.1992188 L 1 9 C 1 10.4 1.0007813 11.099609 1.3007812 11.599609 L 1.5 12 C 1.5666667 12.066667 1.632552 12.167448 1.6992188 12.300781 C 1.8325521 12.367448 1.9333333 12.433333 2 12.5 L 2.4003906 12.699219 C 2.9003906 12.999219 3.6 13 5 13 L 6.46875 13 C 5.7776384 12.084731 5.4003906 11.018839 5.4003906 9.8007812 C 5.5003906 8.5007812 6 7.3007812 7 6.3007812 C 7.9 5.4007812 9.2 4.9003906 10.5 4.9003906 C 11.114565 4.9476648 11.728477 5.0856384 12.300781 5.3222656 C 12.546789 4.7673629 12.991476 4.3144594 13.539062 4.078125 L 13.5 4 C 13.433333 3.9333333 13.367448 3.8325521 13.300781 3.6992188 C 13.167448 3.632552 13.066667 3.5666667 13 3.5 L 12.599609 3.3007812 C 12.099609 3.0007814 11.4 3 10 3 L 8.3007812 3 L 8.0996094 3 L 8 3 L 8 2.9003906 L 7.9003906 2.9003906 L 7.8007812 2.8007812 L 7.1992188 2.1992188 C 6.6992188 1.6992187 6.5007813 1.5003906 6.3007812 1.4003906 C 6.2341146 1.333724 6.166276 1.3007813 6.0996094 1.3007812 C 6.0329427 1.2341146 5.9670573 1.1992187 5.9003906 1.1992188 C 5.833724 1.1992187 5.7658854 1.166276 5.6992188 1.0996094 L 5.5 1.0996094 C 5.3 0.99960935 5.0007813 1 4.3007812 1 L 4.1992188 1 z " />
    <path
       fill-rule="evenodd"
       class="s1"
       d="m10.4 13.3c0.9 0.1 1.7-0.3 2.4-0.9 0.7-0.6 1-1.5 1-2.4 0.1-0.9-0.3-1.8-0.9-2.5-0.6-0.6-1.5-1-2.4-1-0.9 0-1.8 0.3-2.5 1-0.6 0.6-1 1.5-1 2.4 0 0.9 0.3 1.8 1 2.4 0.6 0.7 1.5 1 2.4 1zm1-3.2c0.3 0 0.6-0.1 0.8-0.3 0.2-0.2 0.4-0.5 0.4-0.8 0-0.3-0.1-0.6-0.3-0.8-0.3-0.3-0.5-0.4-0.8-0.4-0.3 0-0.6 0.1-0.9 0.3-0.2 0.2-0.3 0.5-0.3 0.8 0 0.3 0.1 0.6 0.3 0.8 0.2 0.3 0.5 0.4 0.8 0.4z"
       id="path2" />
    <path
       id="Layer copy 2"
       class="s1"
       d="m14.3 7.3c-0.6 0-1.1-0.5-1.1-1.2 0-0.6 0.5-1.1 1.2-1.1 0.6 0 1.1 0.5 1.1 1.2 0 0.6-0.6 1.1-1.2 1.1z" />
  </g>
</svg>
