<svg xmlns="http://www.w3.org/2000/svg" width="16" height="16" version="1.2"><g fill-rule="evenodd"><path d="M1 9V4.2c0-1.1 0-1.7.2-2.1q.3-.6.9-.9c.4-.2 1-.2 2.1-.2h.1c.7 0 1 0 1.2.1q.4.1.8.3c.2.1.4.3.9.8l.6.6.1.1q.1.1.2.1H10c1.4 0 2.1 0 2.6.3.5.2.9.6 1.1 1.1.2.3.3.7.3 1.3q-.4-.3-.8-.5c-.9-.5-2.1-.7-3.2-.7s-2.3.2-3.2.7c-.8.4-2.3 1.4-2.3 3.3V13c-1.1 0-1.7 0-2.1-.3-.5-.2-.9-.6-1.1-1.1C1 11.1 1 10.4 1 9" style="fill:#8080a0"/><path d="M14 11.6v.9c0 1-.8 1.6-1.4 2-.7.3-1.7.5-2.6.5-1 0-1.9-.2-2.6-.5-.6-.4-1.4-1-1.4-2v-.9q.3.3.6.5c.9.6 2.1.9 3.4.9s2.5-.3 3.4-.9q.3-.2.6-.5m0-2.1v-1c0-1-.8-1.6-1.4-2-.7-.3-1.7-.5-2.6-.5-1 0-1.9.2-2.6.5-.6.4-1.4 1-1.4 2v1c0 1.4 1.8 2.5 4 2.5s4-1.1 4-2.5m-7-1C7 7.7 8.3 7 10 7s3 .7 3 1.5-1.3 1.5-3 1.5-3-.7-3-1.5" style="fill:#a67cf8"/></g></svg>