<svg version="1.2" xmlns="http://www.w3.org/2000/svg" viewBox="0 0 16 16" width="16" height="16">
	<title>doc</title>
	<style>
		.s0 { fill: #8080a0 } 
		.s1 { fill: #7380f9 } 
	</style>
	<g id="Layer 1">
		<path fill-rule="evenodd" class="s0" d="m1 9v-4.8c0-1.1 0-1.7 0.2-2.1q0.3-0.6 0.9-0.9c0.4-0.2 1-0.2 2.1-0.2h0.1c0.7 0 1 0 1.2 0.1q0.4 0.1 0.8 0.3c0.2 0.1 0.4 0.3 0.9 0.8l0.6 0.6q0.1 0.1 0.1 0.1 0.1 0.1 0.2 0.1 0.1 0 0.2 0h1.7c1.4 0 2.1 0 2.6 0.3 0.5 0.2 0.9 0.6 1.1 1.1q0.1 0.1 0.1 0.2-0.4-0.1-0.8-0.1h-5c-1.9 0-3.5 1.6-3.5 3.5v5c-1.1 0-1.7 0-2.1-0.3-0.5-0.2-0.9-0.6-1.1-1.1-0.3-0.5-0.3-1.2-0.3-2.6z"/>
		<path class="s1" d="m14 7.6c0-0.6 0-0.8-0.1-1.1q-0.2-0.2-0.4-0.4c-0.3-0.1-0.5-0.1-1.1-0.1h-3.2c-1.1 0-1.7 0-2.1 0.2q-0.6 0.3-0.9 0.9c-0.2 0.4-0.2 1-0.2 2.1v2.6c0 1.1 0 1.7 0.2 2.1q0.3 0.6 0.9 0.9c0.4 0.2 1 0.2 2.1 0.2h3.8c0.6 0 1-0.4 1-1 0-0.3-0.2-0.5-0.5-0.5h-5.2c-0.5 0-0.8-0.3-0.8-0.7 0-0.5 0.3-0.8 0.8-0.8h4.9c0.3 0 0.4 0 0.5-0.1q0.2 0 0.2-0.2c0.1-0.1 0.1-0.2 0.1-0.5z"/>
	</g>
</svg>