<?xml version="1.0" encoding="UTF-8" standalone="no"?>
<svg
   version="1.2"
   viewBox="0 0 16 16"
   width="16"
   height="16"
   id="svg5"
   sodipodi:docname="vscode.svg"
   inkscape:version="1.4 (e7c3feb100, 2024-10-09)"
   xmlns:inkscape="http://www.inkscape.org/namespaces/inkscape"
   xmlns:sodipodi="http://sodipodi.sourceforge.net/DTD/sodipodi-0.dtd"
   xmlns="http://www.w3.org/2000/svg"
   xmlns:svg="http://www.w3.org/2000/svg">
  <defs
     id="defs5">
    <inkscape:path-effect
       effect="fillet_chamfer"
       id="path-effect6"
       is_visible="true"
       lpeversion="1"
       nodesatellites_param="F,0,0,1,0,0,0,1 @ F,0,0,1,0,0,0,1 @ F,0,0,1,0,0,0,1 @ F,0,0,1,0,0,0,1 @ F,0,0,1,0,0,0,1 @ F,0,0,1,0,0,0,1 @ F,0,0,1,0,0,0,1 @ F,0,0,1,0,0,0,1 @ F,0,0,1,0,0,0,1 @ F,0,0,1,0,0.44735634,0,1 @ F,0,0,1,0,0.39472414,0,1 @ F,0,0,1,0,0.42402048,0,1 @ F,0,0,1,0,0.56321142,0,1 @ F,0,0,1,0,0.448616,0,1 @ F,0,0,1,0,0.15135659,0,1 @ F,0,0,1,0,0.35237153,0,1 @ F,0,0,1,0,0.59543869,0,1 @ F,0,0,1,0,0.41932729,0,1 @ F,0,0,1,0,0,0,1 @ F,0,0,1,0,0,0,1 @ F,0,0,1,0,0,0,1 @ F,0,0,1,0,0,0,1 @ F,0,0,1,0,0,0,1 @ F,0,0,1,0,0,0,1 @ F,0,0,1,0,0,0,1 @ F,0,0,1,0,0,0,1 @ F,0,0,1,0,0,0,1 @ F,0,0,1,0,0,0,1 @ F,0,0,1,0,0,0,1 @ F,0,0,1,0,0,0,1"
       radius="0"
       unit="px"
       method="auto"
       mode="F"
       chamfer_steps="1"
       flexible="false"
       use_knot_distance="true"
       apply_no_radius="true"
       apply_with_radius="true"
       only_selected="false"
       hide_knots="false" />
  </defs>
  <sodipodi:namedview
     id="namedview5"
     pagecolor="#505050"
     bordercolor="#eeeeee"
     borderopacity="1"
     inkscape:showpageshadow="0"
     inkscape:pageopacity="0"
     inkscape:pagecheckerboard="0"
     inkscape:deskcolor="#505050"
     inkscape:zoom="37.75"
     inkscape:cx="8.013245"
     inkscape:cy="6.5960265"
     inkscape:window-width="1316"
     inkscape:window-height="755"
     inkscape:window-x="20"
     inkscape:window-y="20"
     inkscape:window-maximized="0"
     inkscape:current-layer="svg5" />
  <title
     id="title1">folder</title>
  <style
     id="style1">
		.s0 { fill: #8080a0 } 
		.s1 { fill: #5bafd4 } 
	</style>
  <path
     id="path1"
     class="s0"
     d="M 4.1992188,1 C 3.0992187,1 2.4996094,0.99921875 2.0996094,1.1992188 c -0.4,0.2 -0.7003906,0.5003906 -0.9003906,0.9003906 C 0.99921875,2.4996094 1,3.0992187 1,4.1992188 V 9 c 0,1.4 7.812e-4,2.099609 0.3007812,2.599609 0.2,0.5 0.5996094,0.89961 1.0996094,1.09961 C 2.9003906,12.999219 3.6,13 5,13 H 6.9082031 L 6.0664498,12.366628 A 2.3087858,2.3087858 47.925277 0 1 5.4778509,11.714635 1.2987518,1.2987518 75.884209 0 1 5.3039916,11.023279 L 5.3449163,7.8950495 A 1.7438267,1.7438267 104.41606 0 1 5.5500681,7.0969648 1.5470046,1.5470046 138.77261 0 1 6.1114783,6.6050131 l 1.5185365,-1.0241 A 1.3994718,1.3994718 163.77812 0 1 8.4504045,5.342228 l 0.1932163,0.00523 a 0.46552514,0.46552514 19.562885 0 1 0.2712615,0.096394 l 0.6339642,0.487757 a 0.38959056,0.38959056 175.44555 0 0 0.5210185,-0.041503 l 1.09806,-1.164529 a 1.3798501,1.3798501 156.65863 0 1 1.003932,-0.433221 h 0.04383 a 1.4114157,1.4114157 16.546524 0 1 0.770633,0.2289528 l 0.947277,0.6173583 c -0.0431,-0.2990253 -0.113521,-0.5368581 -0.234375,-0.7382813 -0.2,-0.5 -0.59961,-0.8996093 -1.09961,-1.0996094 C 12.099609,3.0007813 11.4,3 10,3 H 8.3007812 8.0996094 C 8.0329427,3 7.9670573,2.9670573 7.9003906,2.9003906 L 7.8007812,2.8007812 7.1992188,2.1992188 c -0.5,-0.5 -0.6984375,-0.6988282 -0.8984376,-0.7988282 C 6.0341146,1.2670573 5.7666667,1.166276 5.5,1.0996094 5.3,0.99960938 5.0007813,1 4.3007812,1 Z"
     sodipodi:nodetypes="sssssccscccccccccccccscsscsscss"
     inkscape:path-effect="#path-effect6"
     inkscape:original-d="M 4.1992188,1 C 3.0992187,1 2.4996094,0.99921875 2.0996094,1.1992188 c -0.4,0.2 -0.7003906,0.5003906 -0.9003906,0.9003906 C 0.99921875,2.4996094 1,3.0992187 1,4.1992188 V 9 c 0,1.4 7.812e-4,2.099609 0.3007812,2.599609 0.2,0.5 0.5996094,0.89961 1.0996094,1.09961 C 2.9003906,12.999219 3.6,13 5,13 H 6.9082031 L 5.7089844,12.097656 5.2988281,11.417969 5.350463,7.4710653 5.6445312,6.9199219 8.0019531,5.3300781 8.7949219,5.3515621 9.828125,6.146484 11.576418,4.2923604 h 1.058593 l 1.298583,0.8463111 c -0.0431,-0.2990253 -0.113521,-0.5368581 -0.234375,-0.7382813 -0.2,-0.5 -0.59961,-0.8996093 -1.09961,-1.0996094 C 12.099609,3.0007813 11.4,3 10,3 H 8.3007812 8.0996094 C 8.0329427,3 7.9670573,2.9670573 7.9003906,2.9003906 L 7.8007812,2.8007812 7.1992188,2.1992188 c -0.5,-0.5 -0.6984375,-0.6988282 -0.8984376,-0.7988282 C 6.0341146,1.2670573 5.7666667,1.166276 5.5,1.0996094 5.3,0.99960938 5.0007813,1 4.3007812,1 Z" />
  <g
     id="Layer 1"
     transform="matrix(0.66997793,0,0,0.66997793,5.2030905,4.1169977)">
    <path
       class="s1"
       d="M 13.8,4.1 Q 13.7,4 13.6,4 13.5,4 13.5,4 13.4,4 13.3,4 13.2,4.1 13.2,4.1 L 13.1,4.2 11,6.2 9.1,8 l -2.2,2.1 -2,2 H 4.8 q 0,0 0,0.1 -0.1,0 -0.1,0 -0.1,0 -0.1,0 -0.1,0.1 -0.1,0.1 0,-0.1 -0.1,-0.1 0,0 -0.1,0 -0.1,0 -0.1,0 l -2,-1.5 q 0.1,0 0.2,0 0.1,0.1 0.2,0 0,0 0.1,0 0.1,-0.1 0.2,-0.1 L 4,9.3 5.1,8 6.9,5.9 10.1,2.2 q 0,-0.1 0.1,-0.1 0,0 0.1,-0.1 0,0 0.1,0 0,0 0.1,0 0.1,0 0.3,0.1 z"
       id="path2" />
    <path
       class="s1"
       d="m 13.8,11.9 -3,2 q -0.1,0.1 -0.2,0.1 -0.1,0 -0.2,0 -0.1,0 -0.1,-0.1 -0.1,0 -0.2,-0.1 L 6.9,10.1 5.1,8 4,6.7 2.9,5.4 q -0.1,0 -0.2,-0.1 -0.1,0 -0.1,0 -0.1,-0.1 -0.2,0 -0.1,0 -0.2,0.1 l 2,-1.5 q 0.1,-0.1 0.1,-0.1 0.1,0 0.1,0 0.1,-0.1 0.2,0 0,0 0.1,0 0.1,0 0.1,0.1 h 0.1 l 2,2 2.2,2.1 1.9,1.8 2.1,2 0.1,0.1 q 0.1,0 0.1,0.1 0.1,0 0.1,0 0.1,0 0.1,0 0,0 0.1,0 0.1,0 0.1,0 0,-0.1 0.1,-0.1 z"
       id="path3" />
    <path
       class="s1"
       d="m 14,4.5 v 7 q 0,0.1 0,0.1 0,0.1 -0.1,0.1 0,0.1 0,0.1 -0.1,0.1 -0.1,0.1 l -3,2 q 0,0 0.1,-0.1 0,0 0,-0.1 0.1,0 0.1,-0.1 0,0 0,-0.1 v -11 q 0,-0.1 0,-0.1 0,-0.1 -0.1,-0.1 0,-0.1 0,-0.1 -0.1,-0.1 -0.1,-0.1 l 3,2 q 0,0 0.1,0.1 0,0 0,0.1 0.1,0 0.1,0.1 z"
       id="path4" />
    <path
       class="s1"
       d="m 4.2,12.2 -2,-1.5 q 0,-0.1 -0.1,-0.1 0,-0.1 0,-0.1 Q 2,10.4 2,10.4 2,10.3 2,10.2 V 5.8 q 0,-0.1 0,-0.2 0,0 0.1,-0.1 0,0 0,-0.1 0.1,0 0.1,-0.1 l 2,-1.4 q 0,0 -0.1,0 0,0.1 0,0.1 0,0.1 0,0.1 0,0.1 0,0.2 v 7.5 q 0,0 0,0.1 0,0 0,0.1 0,0 0,0.1 0.1,0 0.1,0.1 z"
       id="path5" />
  </g>
</svg>
