<svg xmlns="http://www.w3.org/2000/svg" width="16" height="16" version="1.2"><path d="M4.2 1c-1.1 0-1.7 0-2.1.2a1.2 1.2 0 0 1-.3.2l-.2.2-.2.2a1.2 1.2 0 0 1-.2.3c-.2.4-.2 1-.2 2.1V9c0 1.4 0 2.1.3 2.6l.2.4q.1.1.2.3.2.1.3.2l.4.2c.5.3 1.2.3 2.6.3h.8v-2.723l.266-.82.795-.98.98-.82.848-.452.847-.423.928-.216 3.534-.025c-.004-1.081-.036-1.703-.299-2.14L13.5 4a1.2 1.2 0 0 1-.2-.3 1.2 1.2 0 0 1-.3-.2l-.4-.2C12.1 3 11.4 3 10 3H8v-.1h-.1l-.1-.1-.6-.6c-.5-.5-.7-.7-.9-.8q-.1-.1-.2-.1-.1-.1-.2-.1t-.2-.1h-.2C5.3 1 5 1 4.3 1Z" style="fill:#8080a0"/><path fill-rule="evenodd" d="M16 6.3v.5c0 1.6-1.2 2.9-2.8 2.9v3.9c0 .2-.1.2-.3.2h-1.4v-1c0-.2-.2-.3-.4-.3-.1 0-.3.1-.3.3v1.1H9.2v-1.1c0-.2-.1-.3-.2-.3-.2 0-.3.2-.3.3v1l-1.4.1q-.3 0-.3-.3V11c0-1.1.7-2 1.6-2.3q0 .1-.1.3c0 .6.2 1.2.6 1.6s.9.6 1.4.6h.2c.5 0 1-.2 1.4-.6.1-.1.1-.4 0-.4-.1-.1-.3-.1-.4 0-.3.3-.7.4-1.1.4-.4.1-.8-.1-1.1-.4S9 9.5 9.1 9q0-.6.4-.8l.5-.4h3.5c.8 0 1.4-.8 1.4-1.4q0-.3.3-.3h.5c.2 0 .3.1.3.2" style="fill:#5bafd4"/></svg>