<svg xmlns="http://www.w3.org/2000/svg" width="16" height="16" version="1.2"><g fill-rule="evenodd"><path d="M1 4.2V9c0 1.4 0 2.1.3 2.6.2.5.6.9 1.1 1.1.4.3 1 .3 2.1.3V9.3c0-1.7 0-2.5.3-3.2.3-.5.8-1 1.3-1.3.7-.3 1.5-.3 3.2-.3h2q.6.2 1.2.6c.2.1.4.3.7.7.4.3.6.5.7.7q.1 0 .1.1c0-1.1 0-1.8-.3-2.2-.2-.5-.6-.9-1.1-1.1C12.1 3 11.4 3 10 3H8.1q-.1 0-.2-.1l-.1-.1-.6-.6c-.5-.5-.7-.7-.9-.8q-.4-.2-.8-.3C5.3 1 5 1 4.3 1h-.1c-1.1 0-1.7 0-2.1.2q-.6.3-.9.9c-.2.4-.2 1-.2 2.1" style="fill:#8080a0"/><path d="M6.2 6.8c-.2.3-.2.8-.2 1.6v4.2c0 .8 0 1.3.2 1.6q.2.4.6.6c.3.2.8.2 1.6.2h3.2c.8 0 1.3 0 1.6-.2q.4-.2.6-.6c.2-.3.2-.8.2-1.6V9.8c0-.5 0-.7-.1-.9q0-.3-.2-.6c-.1-.2-.3-.4-.6-.7l-.7-.7c-.3-.3-.5-.5-.7-.6q-.3-.2-.6-.2c-.2-.1-.4-.1-.9-.1H8.4c-.8 0-1.3 0-1.6.2q-.4.2-.6.6M8 9.5h4c.3 0 .5.2.5.5v.5c0 .3-.2.5-.5.5H8c-.3 0-.5-.2-.5-.5V10c0-.3.2-.5.5-.5M8 12h2c.3 0 .5.2.5.5v.5c0 .3-.2.5-.5.5H8c-.3 0-.5-.2-.5-.5v-.5c0-.3.2-.5.5-.5" style="fill:#5bafd4"/></g></svg>