<?xml version="1.0" encoding="UTF-8" standalone="no"?>
<svg
   version="1.2"
   viewBox="0 0 16 16"
   width="16"
   height="16"
   id="svg2"
   sodipodi:docname="component.svg"
   inkscape:version="1.4 (e7c3feb100, 2024-10-09)"
   xmlns:inkscape="http://www.inkscape.org/namespaces/inkscape"
   xmlns:sodipodi="http://sodipodi.sourceforge.net/DTD/sodipodi-0.dtd"
   xmlns="http://www.w3.org/2000/svg"
   xmlns:svg="http://www.w3.org/2000/svg">
  <defs
     id="defs2" />
  <sodipodi:namedview
     id="namedview2"
     pagecolor="#505050"
     bordercolor="#eeeeee"
     borderopacity="1"
     inkscape:showpageshadow="0"
     inkscape:pageopacity="0"
     inkscape:pagecheckerboard="0"
     inkscape:deskcolor="#505050"
     inkscape:zoom="37.75"
     inkscape:cx="7.986755"
     inkscape:cy="8"
     inkscape:window-width="1316"
     inkscape:window-height="746"
     inkscape:window-x="20"
     inkscape:window-y="20"
     inkscape:window-maximized="0"
     inkscape:current-layer="svg2" />
  <title
     id="title1">folder</title>
  <style
     id="style1">
		.s0 { fill: #8080a0 } 
		.s1 { fill: #8cc162 } 
	</style>
  <g
     id="Layer 1">
    <path
       id="path1"
       class="s0"
       d="M 4.1992188,1 C 3.0992187,1 2.4996094,0.99921875 2.0996094,1.1992188 c -0.4,0.2 -0.7003906,0.5003906 -0.9003906,0.9003906 C 0.99921875,2.4996094 1,3.0992187 1,4.1992188 V 9 c 0,1.4 7.812e-4,2.099609 0.3007812,2.599609 0.2,0.5 0.5996094,0.89961 1.0996094,1.09961 C 2.9003906,12.999219 3.6,13 5,13 H 8.3007812 L 6.4003906,11.099609 c -0.6,-0.6 -0.8996093,-0.898828 -1.0996094,-1.2988278 -0.066667,-0.3333333 -0.066667,-0.6666666 0,-1 C 5.4007812,8.5007812 5.8003906,8.1 6.4003906,7.5 l 2,-2.0996094 c 0.6,-0.6 0.9988281,-0.8996093 1.2988282,-1.0996094 0.3333332,-0.066667 0.6666662,-0.066667 1.0000002,0 0.4,0.1 0.70039,0.4996094 1.40039,1.0996094 L 14,7.3007812 V 7 c 0,-1.4 -7.81e-4,-2.0996094 -0.300781,-2.5996094 -0.2,-0.5 -0.59961,-0.8996093 -1.09961,-1.0996094 C 12.099609,3.0007813 11.4,3 10,3 H 8.3007812 8.0996094 C 8.0329427,3 7.9670573,2.9670573 7.9003906,2.9003906 L 7.8007812,2.8007812 7.1992188,2.1992188 c -0.5,-0.5 -0.6984375,-0.6988282 -0.8984376,-0.7988282 C 6.0341146,1.2670573 5.7666667,1.166276 5.5,1.0996094 5.3,0.99960938 5.0007813,1 4.3007812,1 Z"
       sodipodi:nodetypes="sssssccscsccccccccsccscsscsscss" />
    <path
       id="path1 copy"
       fill-rule="evenodd"
       class="s1"
       d="m10.1 5.4c-0.1 0-0.2 0.1-0.4 0.3l-0.7 0.7c-0.2 0.2-0.3 0.3-0.3 0.4q-0.1 0.1 0 0.3c0 0.1 0.1 0.2 0.3 0.4l0.7 0.7c0.2 0.2 0.3 0.3 0.4 0.3q0.2 0.1 0.3 0c0.1 0 0.2-0.1 0.4-0.3l0.7-0.7c0.2-0.2 0.3-0.3 0.3-0.4q0.1-0.2 0-0.3c0-0.2-0.1-0.3-0.3-0.5l-0.7-0.6c-0.2-0.2-0.3-0.3-0.4-0.4q-0.2 0-0.3 0.1z" />
    <path
       id="path1 copy 2"
       fill-rule="evenodd"
       class="s1"
       d="m8 7.5c-0.2 0-0.3 0.1-0.5 0.3l-0.6 0.7c-0.2 0.2-0.3 0.3-0.4 0.4q0 0.2 0.1 0.3c0 0.1 0.1 0.2 0.3 0.4l0.7 0.7c0.2 0.2 0.3 0.3 0.4 0.3q0.2 0.1 0.3 0c0.1 0 0.2-0.1 0.4-0.3l0.7-0.7c0.2-0.2 0.3-0.3 0.3-0.4q0.1-0.2 0-0.3c0-0.1-0.1-0.2-0.3-0.4l-0.7-0.7c-0.2-0.2-0.3-0.3-0.4-0.3q-0.2-0.1-0.3 0z" />
    <path
       id="path1 copy 3"
       fill-rule="evenodd"
       class="s1"
       d="m10.1 9.7c-0.1 0-0.2 0.2-0.4 0.4l-0.7 0.6c-0.2 0.2-0.3 0.3-0.3 0.4q-0.1 0.2 0 0.4c0 0.1 0.1 0.2 0.3 0.4l0.7 0.6c0.2 0.2 0.3 0.3 0.4 0.4q0.2 0 0.3 0c0.1-0.1 0.3-0.2 0.4-0.4l0.7-0.6c0.2-0.2 0.3-0.4 0.3-0.5q0.1-0.1 0-0.3c0-0.1-0.1-0.2-0.3-0.4l-0.7-0.7c-0.2-0.2-0.3-0.3-0.4-0.3q-0.2 0-0.3 0z" />
    <path
       id="path1 copy 4"
       fill-rule="evenodd"
       class="s1"
       d="m12.3 7.5c-0.2 0.1-0.3 0.2-0.5 0.4l-0.6 0.6c-0.2 0.2-0.3 0.4-0.4 0.5q0 0.1 0.1 0.3c0 0.1 0.1 0.2 0.3 0.4l0.7 0.7c0.2 0.2 0.3 0.3 0.4 0.3q0.1 0 0.3 0c0.1 0 0.2-0.2 0.4-0.4l0.7-0.6c0.2-0.2 0.3-0.3 0.3-0.4q0.1-0.2 0-0.4c0-0.1-0.1-0.2-0.3-0.4l-0.7-0.6c-0.2-0.2-0.3-0.3-0.4-0.4q-0.2 0-0.3 0z" />
  </g>
</svg>
