<svg version="1.2" xmlns="http://www.w3.org/2000/svg" viewBox="0 0 16 16" width="16" height="16">
	<title>source</title>
	<style>
		.s0 { fill: #8080a0 } 
		.s1 { fill: #f17f66 } 
	</style>
	<g id="Layer 1">
		<path fill-rule="evenodd" class="s0" d="m1 4.2v4.8c0 1.4 0 2.1 0.3 2.6 0.2 0.5 0.6 0.9 1.1 1.1 0.4 0.3 1 0.3 2.1 0.3q0-0.2 0-0.6v-2.1c0-1.7 0-2.5 0.3-3.2 0.3-0.5 0.8-1 1.3-1.3q0.1 0 0.2 0 0.6-0.3 0.7-0.4c0 0 0 0 0.1 0 0 0 0 0 0 0q0.1-0.1 0.6-0.6c0.5-0.5 1.1-0.8 1.8-0.8 0.7 0 1.3 0.3 1.8 0.8q0.5 0.5 0.6 0.6c0 0 0 0 0 0 0.1 0 0.1 0 0.1 0q0.1 0.1 0.7 0.4 0.1 0 0.2 0 0.7 0.4 1.1 1c0-1.3 0-1.9-0.3-2.4-0.2-0.5-0.6-0.9-1.1-1.1-0.5-0.3-1.2-0.3-2.6-0.3h-1.7q-0.1 0-0.2 0-0.1 0-0.2-0.1 0 0-0.1-0.1l-0.6-0.6c-0.5-0.5-0.7-0.7-0.9-0.8q-0.4-0.2-0.8-0.3c-0.2-0.1-0.5-0.1-1.2-0.1h-0.1c-1.1 0-1.7 0-2.1 0.2q-0.6 0.3-0.9 0.9c-0.2 0.4-0.2 1-0.2 2.1z"/>
		<path fill-rule="evenodd" class="s1" d="m8.5 6.5c0-0.6 0.4-1 1-1 0.6 0 1 0.4 1 1v0.5h0.1c0.8 0 1.3 0 1.6 0.2q0.4 0.2 0.6 0.6c0.2 0.3 0.2 0.8 0.2 1.6v0.1h0.5c0.6 0 1 0.4 1 1 0 0.6-0.4 1-1 1h-0.5v0.1c0 0.8 0 1.3-0.2 1.6q-0.2 0.4-0.6 0.6c-0.3 0.2-0.8 0.2-1.6 0.2h-0.1v-0.5c0-0.6-0.4-1-1-1-0.6 0-1 0.4-1 1v0.5h-0.1c-0.8 0-1.3 0-1.6-0.2q-0.4-0.2-0.6-0.6c-0.2-0.3-0.2-0.8-0.2-1.6v-0.1h0.5c0.6 0 1-0.4 1-1 0-0.6-0.4-1-1-1h-0.5v-0.1c0-0.8 0-1.3 0.2-1.6q0.2-0.4 0.6-0.6c0.3-0.2 0.8-0.2 1.6-0.2h0.1z"/>
	</g>
</svg>