<svg xmlns="http://www.w3.org/2000/svg" width="16" height="16" version="1.2"><path d="M4.2 1c-1.1 0-1.7 0-2.1.2q-.6.3-.9.9c-.2.4-.2 1-.2 2.1V9c0 1.4 0 2.1.3 2.6.2.5.6.9 1.1 1.1.5.3 1.2.3 2.6.3h.55c-.047-.378-.05-.848-.05-1.5V8c0-1.2 0-1.8.3-2.3.1-.4.5-.8.9-.9.5-.3 1.1-.3 2.3-.3h3.5c.522 0 .926 0 1.262.025q-.03-.064-.063-.125c-.2-.5-.6-.9-1.1-1.1C12.1 3 11.4 3 10 3H8.1q-.1 0-.2-.1l-.1-.1-.6-.6c-.5-.5-.7-.7-.9-.8a4 4 0 0 0-.8-.3C5.3 1 5 1 4.3 1Z" style="fill:#8080a0"/><path d="M9.5 6c-.9 0-1.3 0-1.6.2-.3.1-.6.4-.7.7-.2.3-.2.7-.2 1.6V11c0 .9 0 1.3.2 1.6.1.3.4.6.7.7.3.2.7.2 1.6.2H12c.9 0 1.3 0 1.6-.2.3-.1.6-.4.7-.7.2-.3.2-.7.2-1.6V8.5c0-.9 0-1.3-.2-1.6-.1-.3-.4-.6-.7-.7-.3-.2-.7-.2-1.6-.2zm.6 3.4q.4 0 .4.5v1.5q0 .6-.2.9t-.5.5q-.3.1-.7.1-.3 0-.7-.1-.3-.1-.5-.4-.2-.2-.2-.7 0-.1.2-.2.1-.1.3-.1t.3.1.2.4q0 .1.1.2l.1.2h.2q.2 0 .3-.1t.2-.3v-2q0-.5.5-.5m2.7 0h.6q.3.1.5.3l.2.2q.1.1.1.2t-.1.3h-.6q-.1-.1-.2-.1 0-.2-.2-.2-.1-.1-.3-.1t-.3.1q-.1 0-.1.1-.1 0-.1.1t.1.3q.2.1.6.1.4.2.7.3.2.1.4.3.2.3.2.6t-.2.5q-.2.3-.5.4-.4.1-.9.1-.3 0-.6-.1-.3 0-.5-.2-.3-.2-.3-.5 0-.1.1-.2 0-.2.2-.2.2.1.3.1.2.1.2.2.1.1.3.2t.4.1h.3l.2-.2q.1-.1.1-.2 0-.2-.2-.3-.2 0-.6-.1-.7-.2-1-.4-.2-.3-.2-.8 0-.2.2-.5.2-.2.5-.3t.7-.1" style="fill:#f5aa52"/></svg>