<svg xmlns="http://www.w3.org/2000/svg" width="16" height="16" version="1.2"><path d="M4.2 1c-1.1 0-1.7 0-2.1.2q-.6.3-.9.9c-.2.4-.2 1-.2 2.1V9c0 1.4 0 2.1.3 2.6.2.5.6.9 1.1 1.1.5.3 1.2.3 2.6.3h.7l.1-5.7c0-1.1 1.4-2.6 2.5-2.6h5.5v-.2h-.1v-.1c-.2-.5-.6-.9-1.1-1.1C12.1 3 11.4 3 10 3H8.1q-.1 0-.2-.1l-.1-.1-.6-.6c-.5-.5-.7-.7-.9-.8q-.1 0-.2-.1-.1 0-.2-.1h-.2q-.1-.1-.2-.1C5.3 1 5 1 4.3 1z" style="fill:#8080a0"/><path d="M9 6c-1.1 0-2 .9-2 2v4c0 1.1.9 2 2 2h4c1.1 0 2-.9 2-2V8c0-1.1-.9-2-2-2zm.791 1.969c.16 0 .346.113.646.338l2 1.1c.5.2.702.3.702.5a.43.43 0 0 1 0 .4c0 .2-.201.3-.701.5l-2 1.1c-.4.3-.6.398-.8.298q-.2 0-.3-.2c-.1-.1-.1-.3-.1-.8v-2.2c0-.5 0-.7.1-.8q.1-.2.3-.2.074-.036.153-.036" style="fill:#a67cf8"/></svg>