<svg xmlns="http://www.w3.org/2000/svg" width="16" height="16" version="1.2"><path d="M4.2 1c-1.1 0-1.7 0-2.1.2q-.6.3-.9.9c-.2.4-.2 1-.2 2.1V9c0 1.4 0 2.1.3 2.6.2.5.6.9 1.1 1.1.5.3 1.2.3 2.6.3h.963l-.719-1.186v-1.537L9.14 4.291l.822-.53.9-.027.98.903L14 8.89V7c0-1.4 0-2.1-.3-2.6-.2-.5-.6-.9-1.1-1.1C12.1 3 11.4 3 10 3H8.1q-.1 0-.2-.1l-.1-.1-.6-.6c-.5-.5-.7-.7-.9-.8a4 4 0 0 0-.8-.3C5.3 1 5 1 4.3 1z" style="fill:#8080a0"/><path d="m13.9 11.8-.2-.3L11 5.9q0-.1-.1-.1l-.2-.2-.1-.1h-.4q-.1 0-.2.1l-.1.1-.1.1-3.1 4.9q-.1.1-.1.2v.4q0 .1.1.2l1.5 2.3q.1 0 .1.1.1 0 .2.1h.1q.1.1.2.1h.1L9 14l4.4-1.2q.1 0 .2-.1l.1-.1.1-.1q0-.1.1-.1zm-1.1.2-3.5 1 1.3-5.8 2.3 4.8z" style="fill:#5bafd4"/></svg>