<svg xmlns="http://www.w3.org/2000/svg" width="16" height="16" version="1.2"><path fill-rule="evenodd" d="M1 9V4.2c0-1.1 0-1.7.2-2.1q.3-.6.9-.9c.4-.2 1-.2 2.1-.2h.1c.7 0 1 0 1.2.1q.4.1.8.3c.2.1.4.3.9.8l.6.6.1.1q.1.1.2.1H10c1.4 0 2.1 0 2.6.3.5.2.9.6 1.1 1.1q.3.45.3 1.2c-1-.7-2.2-1.1-3.5-1.1-3.3 0-6 2.7-6 6q0 1.3.5 2.5c-1.4 0-2.1 0-2.6-.3-.5-.2-.9-.6-1.1-1.1C1 11.1 1 10.4 1 9" style="fill:#8080a0"/><path d="M10.5 12c-.8 0-1.5-.7-1.5-1.5S9.7 9 10.5 9s1.5.7 1.5 1.5-.7 1.5-1.5 1.5m2.3-5.4c-.7-.4-1.5-.6-2.3-.6s-1.6.2-2.3.6l.7 1.2q.8-.4 1.6-.4t1.6.4zM6.6 8.3c-.4.6-.6 1.4-.6 2.2s.2 1.6.6 2.2l1.2-.6q-.4-.8-.4-1.6t.4-1.6zm1.7 6.1c.6.4 1.4.6 2.2.6s1.6-.2 2.2-.6l-.6-1.2q-.8.4-1.6.4t-1.6-.4zm6.1-1.6c.4-.7.6-1.5.6-2.3s-.2-1.6-.6-2.3l-1.2.7q.4.8.4 1.6t-.4 1.6z" style="fill:#f5aa52"/></svg>