<svg xmlns="http://www.w3.org/2000/svg" width="16" height="16" version="1.2"><path d="M4.2 1c-1.1 0-1.7 0-2.1.2q-.6.3-.9.9c-.2.4-.2 1-.2 2.1V9c0 1.4 0 2.1.3 2.6.2.5.6.9 1.1 1.1.5.3 1.2.3 2.6.3h1.424C5.59 12.03 5.1 10.766 5.1 9.5c0-1.4.6-2.8 1.6-3.8s2.4-1.6 3.8-1.6c1.311 0 2.508.4 3.44 1.078-.043-.318-.115-.568-.24-.778-.2-.5-.6-.9-1.1-1.1C12.1 3 11.4 3 10 3H8.1q-.1 0-.2-.1l-.1-.1-.6-.6c-.5-.5-.7-.7-.9-.8a4 4 0 0 0-.8-.3C5.3 1 5 1 4.3 1Z" style="fill:#8080a0"/><path d="M10.5 5.5c-1.1 0-2.1.4-2.8 1.2-.8.7-1.2 1.7-1.2 2.8s.4 2.1 1.2 2.8c.7.8 1.7 1.2 2.8 1.2q.2 0 .3-.1.2-.1.3-.2a.42.42 0 0 0 0-.4q0-.2-.2-.3a1.6 1.6 0 0 1-.3-.4q-.2-.3-.1-.6t.3-.5q.3-.2.6-.2h1.1c.5 0 1-.2 1.4-.5s.6-.8.6-1.2c0-2-1.8-3.6-4-3.6m.162 1.5h.037c.5 0 .801.3.801.8 0 .386-.279.68-.746.7-.472-.018-.754-.316-.754-.8 0-.388.28-.682.662-.7m-2 1H8.7c.5 0 .801.3.801.8 0 .386-.279.68-.746.7C8.282 9.482 8 9.184 8 8.7c0-.388.28-.682.662-.7m4 0h.037c.5 0 .801.3.801.8 0 .386-.279.68-.746.7-.472-.018-.754-.316-.754-.8 0-.388.28-.682.662-.7" style="fill:#f17f66"/></svg>