<svg version="1.2" xmlns="http://www.w3.org/2000/svg" viewBox="0 0 16 16" width="16" height="16">
	<title>schema</title>
	<style>
		.s0 { fill: #8080a0 }
		.s1 { fill: #5BAFD4 }
	</style>
	<g id="Layer 1">
		<path fill-rule="evenodd" class="s0" d="m1 9v-4.8c0-1.1 0-1.7 0.2-2.1q0.3-0.6 0.9-0.9c0.4-0.2 1-0.2 2.1-0.2h0.1c0.7 0 1 0 1.2 0.1q0.4 0.1 0.8 0.3c0.2 0.1 0.4 0.3 0.9 0.8l0.6 0.6q0.1 0.1 0.1 0.1 0.1 0.1 0.2 0.1 0.1 0 0.2 0h1.7c1.4 0 2.1 0 2.6 0.3 0.5 0.2 0.9 0.6 1.1 1.1 0.2 0.3 0.3 0.7 0.3 1.3q-0.4-0.3-0.8-0.5c-0.9-0.5-2.1-0.7-3.2-0.7-1.1 0-2.3 0.2-3.2 0.7-0.8 0.4-2.3 1.4-2.3 3.3v4q0 0.3 0 0.5c-1.1 0-1.7 0-2.1-0.3-0.5-0.2-0.9-0.6-1.1-1.1-0.3-0.5-0.3-1.2-0.3-2.6z"/>
		<path fill-rule="evenodd" class="s1" d="m14 11.6v0.9c0 1-0.8 1.6-1.4 2-0.7 0.3-1.7 0.5-2.6 0.5-1 0-1.9-0.2-2.6-0.5-0.6-0.4-1.4-1-1.4-2v-0.9q0.3 0.3 0.6 0.5c0.9 0.6 2.1 0.9 3.4 0.9 1.3 0 2.5-0.3 3.4-0.9q0.3-0.2 0.6-0.5zm0-2.1v-1c0-1-0.8-1.6-1.4-2-0.7-0.3-1.7-0.5-2.6-0.5-1 0-1.9 0.2-2.6 0.5-0.6 0.4-1.4 1-1.4 2v1c0 1.4 1.8 2.5 4 2.5 2.2 0 4-1.1 4-2.5zm-7-1c0-0.8 1.3-1.5 3-1.5 1.7 0 3 0.7 3 1.5 0 0.8-1.3 1.5-3 1.5-1.7 0-3-0.7-3-1.5z"/>
	</g>
</svg>