<svg xmlns="http://www.w3.org/2000/svg" width="16" height="16" version="1.2"><path d="M4.2 1c-1.1 0-1.7 0-2.1.2q-.6.3-.9.9c-.2.4-.2 1-.2 2.1V9c0 1.4 0 2.1.3 2.6.2.5.6.9 1.1 1.1.5.3 1.2.3 2.6.3h.7l.105-5.665c.02-1.1 1.43-2.668 2.53-2.662l5.497.026a1.6 1.6 0 0 0-.133-.299c-.2-.5-.6-.9-1.1-1.1C12.1 3 11.4 3 10 3H8.1q-.1 0-.2-.1l-.1-.1-.6-.6c-.5-.5-.7-.7-.9-.8a4 4 0 0 0-.8-.3C5.3 1 5 1 4.3 1Z" style="fill:#8080a0"/><path d="M9 6c-1.1 0-2 .9-2 2v4c0 1.1.9 2 2 2h4c1.1 0 2-.9 2-2V8c0-1.1-.9-2-2-2zm4 1c.6 0 1 .4 1 1s-.4 1-1 1-1-.4-1-1 .4-1 1-1m-3 2 2 2 1-1 1 1v.896A1.103 1.103 0 0 1 12.896 13h-3.98A.915.915 0 0 1 8 12.084V11z" style="fill:#5bafd4"/></svg>