<svg xmlns="http://www.w3.org/2000/svg" width="16" height="16" version="1.2"><path d="M4.2 1c-1.1 0-1.7 0-2.1.2q-.6.3-.9.9c-.2.4-.2 1-.2 2.1V9c0 1.4 0 2.1.3 2.6.2.5.6.9 1.1 1.1.5.3 1.2.3 2.6.3h1.543a1 1 0 0 0-.143-.2l-.2-.4q0-.1-.1-.3l-.5-5.3v-.2q0-.2.1-.3 0-.1.1-.2.1 0 .3-.1l3.8-1.3q.1-.1.3-.1.2-.1.3-.1.2 0 .4.1.2 0 .3.1l2.782.952c-.027-.566-.1-.947-.283-1.252-.2-.5-.6-.9-1.1-1.1C12.1 3 11.4 3 10 3H8.1q-.1 0-.2-.1l-.1-.1-.6-.6c-.5-.5-.7-.7-.9-.8a4 4 0 0 0-.8-.3C5.3 1 5 1 4.3 1z" style="fill:#8080a0"/><path d="M10 6 7.2 7q-.1 0-.2.1l-.1.1q0 .1-.1.2v.2l.5 3.9v.3q.1.1.1.2l.2.2.2.2 2.2 1.2q.1.1.3.1.1.1.2.1.2 0 .3-.1.2 0 .3-.1l2-1.2q.2 0 .3-.2l.2-.2q.1-.1.1-.3.1-.1.1-.3l.5-3.8q0-.1-.1-.2v-.2q-.1-.1-.2-.1 0-.1-.1-.1l-2.8-1q-.2-.1-.3-.1h-.5q-.1 0-.3.1" style="fill:#f1667f"/></svg>