<svg xmlns="http://www.w3.org/2000/svg" xml:space="preserve" width="16" height="16" version="1.2"><path d="M4.2 1c-1.1 0-1.7 0-2.1.2q-.6.3-.9.9c-.2.4-.2 1-.2 2.1V9c0 1.4 0 2.1.3 2.6.2.5.6.9 1.1 1.1.5.3 1.2.3 2.6.3h.55c-.047-.378-.05-.848-.05-1.5V8c0-1.2 0-1.8.3-2.3.1-.4.5-.8.9-.9.5-.3 1.1-.3 2.3-.3h3.5c.522 0 .926 0 1.262.025q-.03-.064-.063-.125c-.2-.5-.6-.9-1.1-1.1C12.1 3 11.4 3 10 3H8.1q-.1 0-.2-.1l-.1-.1-.6-.6c-.5-.5-.7-.7-.9-.8a4 4 0 0 0-.8-.3C5.3 1 5 1 4.3 1Z" style="fill:#8080a0"/><path d="M9.5 6c-.9 0-1.3 0-1.6.2-.3.1-.6.4-.7.7-.2.3-.2.7-.2 1.6V11c0 .9 0 1.3.2 1.6.1.3.4.6.7.7.3.2.7.2 1.6.2H12c.9 0 1.3 0 1.6-.2.3-.1.6-.4.7-.7.2-.3.2-.7.2-1.6V8.5c0-.9 0-1.3-.2-1.6-.1-.3-.4-.6-.7-.7-.3-.2-.7-.2-1.6-.2zm1.123 2.299a.296.296 0 0 1 .283.443l-.75 1.309a.3.3 0 0 1-.408.113.294.294 0 0 1-.111-.404l.75-1.31a.3.3 0 0 1 .236-.151m3.012.002a.3.3 0 0 1 .17.035c.144.08.193.263.111.406l-.75 1.309a.3.3 0 0 1-.408.113.294.294 0 0 1-.112-.404l.75-1.31a.3.3 0 0 1 .239-.15M8.746 9.305a.294.294 0 0 1 .281.441l-.75 1.31a.3.3 0 0 1-.406.112.295.295 0 0 1-.113-.404l.75-1.31a.3.3 0 0 1 .238-.15m3.01 0a.294.294 0 0 1 .281.441l-.75 1.31a.3.3 0 0 1-.406.112.295.295 0 0 1-.113-.404l.75-1.31a.3.3 0 0 1 .238-.15" style="fill:#8cc162"/></svg>