<svg xmlns="http://www.w3.org/2000/svg" id="svg2" width="16" height="16" version="1.2"><style id="style1">.s1{fill:#8cc162}</style><g id="Layer 1"><path id="path1" d="M4.2 1c-1.1 0-1.7 0-2.1.2q-.6.3-.9.9c-.2.4-.2 1-.2 2.1V9c0 1.4 0 2.1.3 2.6.2.5.6.9 1.1 1.1.5.3 1.2.3 2.6.3h3.3l-1.9-1.9c-.6-.6-.9-.9-1.1-1.3a2.5 2.5 0 0 1 0-1c.1-.3.5-.7 1.1-1.3l2-2.1c.6-.6 1-.9 1.3-1.1a2.5 2.5 0 0 1 1 0c.4.1.7.5 1.4 1.1L14 7.3V7c0-1.4 0-2.1-.3-2.6-.2-.5-.6-.9-1.1-1.1C12.1 3 11.4 3 10 3H8.1q-.1 0-.2-.1l-.1-.1-.6-.6c-.5-.5-.7-.7-.9-.8a4 4 0 0 0-.8-.3C5.3 1 5 1 4.3 1Z" style="fill:#8080a0"/><path id="path1 copy" fill-rule="evenodd" d="M10.1 5.4c-.1 0-.2.1-.4.3l-.7.7c-.2.2-.3.3-.3.4q-.1.1 0 .3c0 .1.1.2.3.4l.7.7c.2.2.3.3.4.3q.2.1.3 0c.1 0 .2-.1.4-.3l.7-.7c.2-.2.3-.3.3-.4q.1-.2 0-.3c0-.2-.1-.3-.3-.5l-.7-.6-.4-.4q-.2 0-.3.1" class="s1"/><path id="path1 copy 2" fill-rule="evenodd" d="M8 7.5c-.2 0-.3.1-.5.3l-.6.7-.4.4q0 .2.1.3c0 .1.1.2.3.4l.7.7c.2.2.3.3.4.3q.2.1.3 0c.1 0 .2-.1.4-.3l.7-.7c.2-.2.3-.3.3-.4q.1-.2 0-.3c0-.1-.1-.2-.3-.4l-.7-.7c-.2-.2-.3-.3-.4-.3q-.2-.1-.3 0" class="s1"/><path id="path1 copy 3" fill-rule="evenodd" d="M10.1 9.7c-.1 0-.2.2-.4.4l-.7.6c-.2.2-.3.3-.3.4q-.1.2 0 .4c0 .1.1.2.3.4l.7.6.4.4h.3c.1-.1.3-.2.4-.4l.7-.6c.2-.2.3-.4.3-.5q.1-.1 0-.3c0-.1-.1-.2-.3-.4l-.7-.7c-.2-.2-.3-.3-.4-.3z" class="s1"/><path id="path1 copy 4" fill-rule="evenodd" d="M12.3 7.5c-.2.1-.3.2-.5.4l-.6.6c-.2.2-.3.4-.4.5q0 .1.1.3c0 .1.1.2.3.4l.7.7c.2.2.3.3.4.3h.3c.1 0 .2-.2.4-.4l.7-.6c.2-.2.3-.3.3-.4q.1-.2 0-.4c0-.1-.1-.2-.3-.4l-.7-.6-.4-.4z" class="s1"/></g></svg>