<svg version="1.2" xmlns="http://www.w3.org/2000/svg" viewBox="0 0 16 16" width="16" height="16">
	<title>docker-svg</title>
	<style>
		.s0 { fill: #f86b72 } 
	</style>
	<g id="Layer 1">
		<path class="s0" d="m12 4.5l0.5-0.5 0.3 0.3c0.4 0.4 0.7 1.1 0.7 1.7 0.6 0 1.3 0.3 1.7 0.7l0.3 0.3-0.5 0.5c-0.8 0.8-2.2 0.8-3 0-0.8-0.8-0.8-2.2 0-3z"/>
		<path class="s0" d="m9 8v1l4-1v-1l-1-0.5c0 0.8-0.7 1.5-1.5 1.5z"/>
		<path class="s0" d="m8.5 5h1c0.3 0 0.5 0.2 0.5 0.5v1c0 0.3-0.2 0.5-0.5 0.5h-1c-0.3 0-0.5-0.2-0.5-0.5v-1c0-0.3 0.2-0.5 0.5-0.5z"/>
		<path class="s0" d="m5.5 5h1c0.3 0 0.5 0.2 0.5 0.5v1c0 0.3-0.2 0.5-0.5 0.5h-1c-0.3 0-0.5-0.2-0.5-0.5v-1c0-0.3 0.2-0.5 0.5-0.5z"/>
		<path class="s0" d="m2.5 5h1c0.3 0 0.5 0.2 0.5 0.5v1c0 0.3-0.2 0.5-0.5 0.5h-1c-0.3 0-0.5-0.2-0.5-0.5v-1c0-0.3 0.2-0.5 0.5-0.5z"/>
		<path class="s0" d="m4 2h1c0.3 0 0.5 0.2 0.5 0.5v1c0 0.3-0.2 0.5-0.5 0.5h-1c-0.3 0-0.5-0.2-0.5-0.5v-1c0-0.3 0.2-0.5 0.5-0.5z"/>
		<path class="s0" d="m7 2h1c0.3 0 0.5 0.2 0.5 0.5v1c0 0.3-0.2 0.5-0.5 0.5h-1c-0.3 0-0.5-0.2-0.5-0.5v-1c0-0.3 0.2-0.5 0.5-0.5z"/>
		<path fill-rule="evenodd" class="s0" d="m0 9v0.5c0 2.8 2.2 5 5 5h1.5l1.1-0.2c3.1-0.4 5.4-3.1 5.4-6.3h-12c-0.6 0-1 0.4-1 1zm3 2c0 0.6 0.4 1 1 1 0.6 0 1-0.4 1-1 0-0.6-0.4-1-1-1-0.6 0-1 0.4-1 1z"/>
	</g>
</svg>