<svg version="1.2" xmlns="http://www.w3.org/2000/svg" viewBox="0 0 16 16" width="16" height="16">
	<title>file-svg</title>
	<style>
		.s0 { fill: #8080a0 } 
		.s1 { opacity: .2;fill: #ffffff } 
	</style>
	<g id="Layer 1">
		<path fill-rule="evenodd" class="s0" d="m2.5 3c-0.3 0.5-0.3 1.1-0.3 2.3v6.2c0 1.2 0 1.8 0.3 2.3 0.2 0.4 0.5 0.7 1 1 0.4 0.2 1 0.2 2.3 0.2h4.7c1.2 0 1.8 0 2.3-0.2 0.4-0.3 0.7-0.6 1-1 0.2-0.5 0.2-1.1 0.2-2.3v-4.1c0-0.7 0-1.1-0.1-1.4q-0.1-0.5-0.3-0.9c-0.2-0.3-0.5-0.5-1-1l-0.9-0.9c-0.5-0.6-0.8-0.8-1.1-1q-0.4-0.2-0.8-0.3c-0.3-0.1-0.7-0.1-1.4-0.1h-2.6c-1.3 0-1.9 0-2.3 0.2-0.5 0.2-0.8 0.6-1 1zm2.7 3.9h5.9c0.4 0 0.7 0.3 0.7 0.8v0.7c0 0.4-0.3 0.7-0.7 0.7h-5.9c-0.4 0-0.7-0.3-0.7-0.7v-0.7c0-0.5 0.3-0.8 0.7-0.8zm0 3.7h2.9c0.4 0 0.8 0.3 0.8 0.7v0.8c0 0.4-0.4 0.7-0.8 0.7h-2.9c-0.4 0-0.7-0.3-0.7-0.7v-0.8c0-0.4 0.3-0.7 0.7-0.7z"/>
		<path fill-rule="evenodd" class="s1" d="m2.5 3c-0.3 0.5-0.3 1.1-0.3 2.3v6.2c0 1.2 0 1.8 0.3 2.3 0.2 0.4 0.5 0.7 1 1 0.4 0.2 1 0.2 2.3 0.2h4.7c1.2 0 1.8 0 2.3-0.2 0.4-0.3 0.7-0.6 1-1 0.2-0.5 0.2-1.1 0.2-2.3v-4.1c0-0.7 0-1.1-0.1-1.4q-0.1-0.5-0.3-0.9c-0.2-0.3-0.5-0.5-1-1l-0.9-0.9c-0.5-0.6-0.8-0.8-1.1-1q-0.4-0.2-0.8-0.3c-0.3-0.1-0.7-0.1-1.4-0.1h-2.6c-1.3 0-1.9 0-2.3 0.2-0.5 0.2-0.8 0.6-1 1zm2.7 3.9h5.9c0.4 0 0.7 0.3 0.7 0.8v0.7c0 0.4-0.3 0.7-0.7 0.7h-5.9c-0.4 0-0.7-0.3-0.7-0.7v-0.7c0-0.5 0.3-0.8 0.7-0.8zm0 3.7h2.9c0.4 0 0.8 0.3 0.8 0.7v0.8c0 0.4-0.4 0.7-0.8 0.7h-2.9c-0.4 0-0.7-0.3-0.7-0.7v-0.8c0-0.4 0.3-0.7 0.7-0.7z"/>
	</g>
</svg>