<?xml version="1.0" encoding="UTF-8" standalone="no"?>
<svg
   version="1.2"
   viewBox="0 0 16 16"
   width="16"
   height="16"
   id="svg2"
   xmlns="http://www.w3.org/2000/svg"
   xmlns:svg="http://www.w3.org/2000/svg">
  <defs
     id="defs2" />
  <style
     id="style1">.a{fill:#F1667F}</style>
  <path
     id="path1"
     class="a"
     d="m 6,2 c -1.4,0 -2.0996094,7.813e-4 -2.5996094,0.3007812 -0.5,0.2 -0.8996093,0.5996094 -1.0996094,1.0996094 C 2.0007813,3.9003906 2,4.6 2,6 v 4 c 0,1.4 7.813e-4,2.099609 0.3007812,2.599609 0.2,0.5 0.5996094,0.89961 1.0996094,1.09961 C 3.9003906,13.999219 4.6,14 6,14 h 4 c 1.4,0 2.099609,-7.81e-4 2.599609,-0.300781 0.5,-0.2 0.89961,-0.59961 1.09961,-1.09961 C 13.999219,12.099609 14,11.4 14,10 V 6 c 0,-1.4 -7.81e-4,-2.0996094 -0.300781,-2.5996094 -0.2,-0.5 -0.59961,-0.8996093 -1.09961,-1.0996094 C 12.099609,2.0007812 11.4,2 10,2 Z M 6.3007812,3.8007812 C 6.4007813,3.8007813 6.5,3.9003906 6.5,3.9003906 6.5,4.1003906 6.5996094,4.6 6.5996094,5 c 0,0.1 -3.906e-4,0.1 0.099609,0 0.5,-0.7 1.0999999,-1.0996094 2,-1.0996094 1.8000006,0 2.7011726,1.0988281 2.7011726,2.7988282 0,1.0999999 -0.39961,2.0015625 -1.09961,2.6015624 -0.6000002,0.6 -1.3015626,0.7988278 -2.1015626,0.7988278 -0.7000001,0 -1.1996094,-0.2992184 -1.5996094,-0.6992184 v 1.9003904 c 0,1.1 0.1011718,1.099219 1.2011718,1.199219 0.1000001,0 0.1,0.400391 0,0.400391 H 6 4.4003906 V 12.5 C 5.2003906,12.4 5.5,12.400781 5.5,11.300781 V 5.5996094 c 0,-0.8 -0.2996094,-0.9 -1.0996094,-1 V 4.1992188 c 1,-0.1000001 1.5003906,-0.1984375 1.9003906,-0.3984376 z m 2,0.6992188 c -0.4999999,0 -1.1003906,0.5 -1.4003906,1 -0.2,0.2 -0.3007812,0.5007813 -0.3007812,0.8007812 v 1.8984376 c 0.1,0.7999999 0.9996094,1.4003906 1.5996094,1.4003906 1.1999999,0 2.0000002,-0.9 2.0000002,-2.5 C 10.199219,5.4996094 9.7007813,4.5 8.3007812,4.5 Z" />
</svg>
