<svg version="1.2" xmlns="http://www.w3.org/2000/svg" viewBox="0 0 24 24" width="24" height="24">
	<title>properties-svg</title>
	<style>
		.s0 { fill: #ffd553 } 
	</style>
	<g id="Layer 1">
		<path class="s0" d="m19 3h-4.2c-0.4-1.2-1.5-2-2.8-2-1.3 0-2.4 0.8-2.8 2h-4.2q-0.4 0-0.8 0.2-0.3 0.1-0.6 0.4-0.3 0.3-0.4 0.6-0.2 0.4-0.2 0.8v14q0 0.4 0.2 0.8 0.1 0.3 0.4 0.6 0.3 0.3 0.6 0.4 0.4 0.2 0.8 0.2h14q0.4 0 0.8-0.2 0.3-0.1 0.6-0.4 0.3-0.3 0.4-0.6 0.2-0.4 0.2-0.8v-14q0-0.4-0.2-0.8-0.1-0.3-0.4-0.6-0.3-0.3-0.6-0.4-0.4-0.2-0.8-0.2zm-2 10h-10v-2h10m-3 6h-7v-2h7m-2-12q0.2 0 0.4 0.1 0.2 0.1 0.3 0.2 0.1 0.1 0.2 0.3 0.1 0.2 0.1 0.4 0 0.2-0.1 0.4-0.1 0.2-0.2 0.3-0.1 0.1-0.3 0.2-0.2 0.1-0.4 0.1-0.2 0-0.4-0.1-0.2-0.1-0.3-0.2-0.1-0.1-0.2-0.3-0.1-0.2-0.1-0.4 0-0.2 0.1-0.4 0.1-0.2 0.2-0.3 0.1-0.1 0.3-0.2 0.2-0.1 0.4-0.1zm5 6h-10v-2h10"/>
	</g>
</svg>