<svg version="1.2" xmlns="http://www.w3.org/2000/svg" viewBox="0 0 16 16" width="16" height="16">
	<title>database-svg</title>
	<style>
		.s0 { fill: #ff845d } 
		.s1 { opacity: .2;fill: #ffffff } 
	</style>
	<g id="Layer 1">
		<path fill-rule="evenodd" class="s0" d="m14 9.9v1.3c0 1.5-1.2 2.5-2.2 3-1.1 0.5-2.4 0.8-3.9 0.8-1.4 0-2.8-0.3-3.9-0.8-1-0.5-2.2-1.5-2.2-3v-1.3q0.5 0.4 1 0.7c1.4 0.9 3.2 1.4 5.1 1.4 1.9 0 3.7-0.5 5.1-1.4q0.5-0.3 1-0.7zm0-3.3v-1.5c0-1.5-1.2-2.5-2.2-3-1.1-0.5-2.4-0.8-3.9-0.8-1.4 0-2.8 0.3-3.9 0.8-1 0.5-2.2 1.5-2.2 3v1.5c0 2.1 2.7 3.8 6.1 3.8 3.4 0 6.1-1.7 6.1-3.8zm-6.1 0.8c-2.5 0-4.6-1-4.6-2.3 0-1.3 2.1-2.3 4.6-2.3 2.5 0 4.6 1 4.6 2.3 0 1.3-2.1 2.3-4.6 2.3z"/>
		<path fill-rule="evenodd" class="s1" d="m14 9.9v1.3c0 1.5-1.2 2.5-2.2 3-1.1 0.5-2.4 0.8-3.9 0.8-1.4 0-2.8-0.3-3.9-0.8-1-0.5-2.2-1.5-2.2-3v-1.3q0.5 0.4 1 0.7c1.4 0.9 3.2 1.4 5.1 1.4 1.9 0 3.7-0.5 5.1-1.4q0.5-0.3 1-0.7zm0-3.3v-1.5c0-1.5-1.2-2.5-2.2-3-1.1-0.5-2.4-0.8-3.9-0.8-1.4 0-2.8 0.3-3.9 0.8-1 0.5-2.2 1.5-2.2 3v1.5c0 2.1 2.7 3.8 6.1 3.8 3.4 0 6.1-1.7 6.1-3.8zm-6.1 0.8c-2.5 0-4.6-1-4.6-2.3 0-1.3 2.1-2.3 4.6-2.3 2.5 0 4.6 1 4.6 2.3 0 1.3-2.1 2.3-4.6 2.3z"/>
	</g>
</svg>