<svg version="1.2" xmlns="http://www.w3.org/2000/svg" viewBox="0 0 16 16" width="16" height="16">
	<title>xml-svg</title>
	<defs>
		<clipPath clipPathUnits="userSpaceOnUse" id="cp1">
			<path d="m13.39 1.96q0.2 0.09 0.36 0.24 0.15 0.16 0.23 0.36 0.09 0.2 0.09 0.42v9.93q0.01 0.23-0.07 0.44-0.08 0.21-0.23 0.38-0.16 0.16-0.37 0.25-0.21 0.09-0.44 0.09h-9.92q-0.23 0-0.44-0.09-0.21-0.09-0.37-0.25-0.15-0.17-0.23-0.38-0.08-0.21-0.07-0.44v-9.93q0-0.22 0.09-0.42 0.08-0.2 0.23-0.36 0.16-0.15 0.36-0.24 0.21-0.08 0.43-0.08h9.92q0.22 0 0.43 0.08zm-4.51 3.84l2.65 2.2-2.65 2.21v1.76l3.53-3.08v-1.77l-3.53-3.09zm-5.29 1.32v1.77l3.53 3.09v-1.77l-2.65-2.2 2.65-2.21v-1.76z"/>
		</clipPath>
	</defs>
	<style>
		.s0 { fill: #52a3f5 } 
	</style>
	<g id="&lt;Clip Group&gt;" clip-path="url(#cp1)">
		<path id="path1" fill-rule="evenodd" class="s0" d="m2 6c0-1.4 0-2.1 0.3-2.6 0.2-0.5 0.6-0.9 1.1-1.1 0.5-0.3 1.2-0.3 2.6-0.3h4c1.4 0 2.1 0 2.6 0.3 0.5 0.2 0.9 0.6 1.1 1.1 0.3 0.5 0.3 1.2 0.3 2.6v4c0 1.4 0 2.1-0.3 2.6-0.2 0.5-0.6 0.9-1.1 1.1-0.5 0.3-1.2 0.3-2.6 0.3h-4c-1.4 0-2.1 0-2.6-0.3-0.5-0.2-0.9-0.6-1.1-1.1-0.3-0.5-0.3-1.2-0.3-2.6z"/>
	</g>
</svg>