<svg version="1.2" xmlns="http://www.w3.org/2000/svg" viewBox="0 0 16 16" width="16" height="16">
	<title>asset</title>
	<style>
		.s0 { fill: #ffab5d } 
		.s1 { fill: #f5aa52 } 
		.s2 { fill: #8080a0 } 
	</style>
	<path class="s0" d="m7.1 7.9l-0.7 1.2c-0.5 0.8-0.7 1.2-0.7 1.5 0.1 0.3 0.2 0.5 0.5 0.7 0.2 0.2 0.7 0.2 1.6 0.2h1.4c0.9 0 1.4 0 1.6-0.2 0.3-0.2 0.4-0.4 0.5-0.7 0-0.3-0.2-0.7-0.7-1.5l-0.7-1.2c-0.5-0.8-0.7-1.2-1-1.3-0.3-0.1-0.5-0.1-0.8 0-0.3 0.1-0.5 0.5-1 1.3z"/>
	<path fill-rule="evenodd" class="s1" d="m9.4 13c0.5 0.9 1.5 1.5 2.6 1.5 1.7 0 3-1.3 3-3 0-1.7-1.3-3-3-3q0 0 0 0 0.3 0.5 0.5 0.9c0.1 0.3 0.3 0.8 0.2 1.4l-1.4-0.2c0-0.3-0.2-0.7-0.7-1.5l-0.1-0.2c-0.9 0.5-1.5 1.5-1.5 2.6m0.4 1.5q0.6 0 1 0c0.3-0.1 0.9-0.1 1.3-0.5l-0.9-1.2 0.9 1.2c0.6-0.4 1-1 1-1.7l-1.4-0.2c-0.1 0.3-0.2 0.5-0.5 0.7-0.2 0.2-0.7 0.2-1.6 0.2h-0.2"/>
	<path fill-rule="evenodd" class="s2" d="m1 4.2v4.8c0 1.4 0 2.1 0.3 2.6 0.2 0.5 0.6 0.9 1.1 1.1 0.5 0.3 1.2 0.3 2.6 0.3h2.2q-0.2-0.1-0.4-0.1l-0.9-0.3q-0.2 0-0.3 0c-1.2-0.4-1.8-1.8-1.2-2.9q0-0.1 0.1-0.2l2.2-3.5c0.1-0.2 0.2-0.3 0.2-0.4 0.8-1.1 2.4-1.1 3.2 0 0.1 0.1 0.1 0.2 0.3 0.4v0.1c0.4 0.6 1 0.9 1.7 0.9 0.7 0 1.3 0.2 1.9 0.5v-0.5c0-1.4 0-2.1-0.3-2.6-0.2-0.5-0.6-0.9-1.1-1.1-0.5-0.3-1.2-0.3-2.6-0.3h-1.7q-0.1 0-0.2 0-0.1 0-0.2-0.1 0 0-0.1-0.1l-0.6-0.6c-0.5-0.5-0.7-0.7-0.9-0.8q-0.4-0.2-0.8-0.3c-0.2-0.1-0.5-0.1-1.2-0.1h-0.1c-1.1 0-1.7 0-2.1 0.2q-0.6 0.3-0.9 0.9c-0.2 0.4-0.2 1-0.2 2.1z"/>
</svg>