<?xml version="1.0" encoding="UTF-8" standalone="no"?>
<svg
   version="1.2"
   viewBox="0 0 16 16"
   width="16"
   height="16"
   id="svg2"
   sodipodi:docname="job.svg"
   inkscape:version="1.4 (e7c3feb100, 2024-10-09)"
   xmlns:inkscape="http://www.inkscape.org/namespaces/inkscape"
   xmlns:sodipodi="http://sodipodi.sourceforge.net/DTD/sodipodi-0.dtd"
   xmlns="http://www.w3.org/2000/svg"
   xmlns:svg="http://www.w3.org/2000/svg">
  <defs
     id="defs2" />
  <sodipodi:namedview
     id="namedview2"
     pagecolor="#505050"
     bordercolor="#eeeeee"
     borderopacity="1"
     inkscape:showpageshadow="0"
     inkscape:pageopacity="0"
     inkscape:pagecheckerboard="0"
     inkscape:deskcolor="#505050"
     inkscape:zoom="37.75"
     inkscape:cx="7.986755"
     inkscape:cy="8"
     inkscape:window-width="1316"
     inkscape:window-height="755"
     inkscape:window-x="20"
     inkscape:window-y="20"
     inkscape:window-maximized="0"
     inkscape:current-layer="svg2" />
  <title
     id="title1">app</title>
  <style
     id="style1">
		.s0 { fill: #8080a0 }
		.s1 { fill: #A67CF8 }
		.s2 { fill: none;stroke: #A67CF8;stroke-miterlimit:100 }
	</style>
  <g
     id="Layer 1">
    <path
       fill-rule="evenodd"
       class="s0"
       d="m1 4.2v4.8c0 1.4 0 2.1 0.3 2.6 0.2 0.5 0.6 0.9 1.1 1.1 0.5 0.3 1.2 0.3 2.6 0.3h0.5v-2.9c0-2 0-2.9 0.4-3.7 0.3-0.6 0.9-1.2 1.5-1.5 0.8-0.4 1.7-0.4 3.7-0.4h2.7q0-0.1-0.1-0.1c-0.2-0.5-0.6-0.9-1.1-1.1-0.5-0.3-1.2-0.3-2.6-0.3h-1.7q-0.1 0-0.2 0-0.1 0-0.2-0.1 0 0-0.1-0.1l-0.6-0.6c-0.5-0.5-0.7-0.7-0.9-0.8q-0.4-0.2-0.8-0.3c-0.2-0.1-0.5-0.1-1.2-0.1h-0.1c-1.1 0-1.7 0-2.1 0.2q-0.6 0.3-0.9 0.9c-0.2 0.4-0.2 1-0.2 2.1z"
       id="path1" />
  </g>
  <path
     id="path2"
     fill-rule="evenodd"
     class="s1"
     d="m7.2 9.9c0-0.6 0-0.9 0.1-1.1q0.2-0.3 0.5-0.5c0.2-0.1 0.5-0.1 1.1-0.1h3.8c0.6 0 0.9 0 1.1 0.1q0.3 0.2 0.5 0.5c0.1 0.2 0.1 0.5 0.1 1.1v1.8c0 0.6 0 0.9-0.1 1.1q-0.2 0.3-0.5 0.4c-0.2 0.1-0.5 0.1-1.1 0.1h-3.8c-0.6 0-0.9 0-1.1-0.1q-0.3-0.1-0.5-0.4c-0.1-0.2-0.1-0.5-0.1-1.1z" />
  <path
     id="Forma 1"
     fill-rule="evenodd"
     class="s2"
     d="m 9.0675497,9.8417219 v -1.7 c 0,0 0.1234958,-1.2044313 0.87351,-1.4827815 0.4213093,-0.1563589 1.0437823,-0.3635467 1.7000003,0.1589404 0,0 0.82649,0.5238411 0.82649,1.3238411 0.1,0.8 0,1.7 0,1.7 z"
     sodipodi:nodetypes="ccscccc" />
</svg>
