<svg version="1.2" xmlns="http://www.w3.org/2000/svg" viewBox="0 0 16 16" width="16" height="16">
	<title>dist</title>
	<style>
		.s0 { fill: #8080a0 }
		.s1 { fill: #7380f9 }
	</style>
	<path fill-rule="evenodd" class="s0" d="m1 9v-4.8c0-1.1 0-1.7 0.2-2.1q0.3-0.6 0.9-0.9c0.4-0.2 1-0.2 2.1-0.2h0.1c0.7 0 1 0 1.2 0.1q0.4 0.1 0.8 0.3c0.2 0.1 0.4 0.3 0.9 0.8l0.6 0.6q0.1 0.1 0.1 0.1 0.1 0.1 0.2 0.1 0.1 0 0.2 0h1.7c1.4 0 2.1 0 2.6 0.3 0.5 0.2 0.9 0.6 1.1 1.1 0.3 0.4 0.3 1 0.3 2.1h-0.1l-2.4-1.4c-0.3-0.1-0.6-0.3-1-0.4q-0.5-0.1-1 0c-0.4 0.1-0.7 0.3-1 0.4l-2.4 1.4h-0.1c-0.2 0.1-0.6 0.3-0.8 0.6q-0.4 0.4-0.6 1c-0.1 0.3-0.1 0.8-0.1 1v0.1 2.6 0.1c0 0.2 0 0.7 0.1 1q0 0.1 0 0.1c-1.1 0-1.7 0-2.2-0.3-0.5-0.2-0.9-0.6-1.1-1.1-0.3-0.5-0.3-1.2-0.3-2.6z"/>
	<path fill-rule="evenodd" class="s1" d="m9.8 6.2c-0.2 0-0.3 0.1-0.6 0.2l-2.4 1.4c-0.3 0.2-0.4 0.2-0.5 0.4q-0.2 0.1-0.3 0.3c0 0.2 0 0.3 0 0.7v2.6c0 0.4 0 0.5 0 0.7q0.1 0.2 0.3 0.3c0.1 0.2 0.2 0.2 0.5 0.4l2.4 1.4c0.3 0.1 0.4 0.2 0.6 0.2q0.2 0.1 0.4 0c0.2 0 0.3-0.1 0.6-0.2l2.4-1.4c0.3-0.2 0.4-0.2 0.5-0.4q0.2-0.1 0.2-0.3c0.1-0.2 0.1-0.3 0.1-0.7v-2.6c0-0.4 0-0.5-0.1-0.7q0-0.2-0.2-0.3c-0.1-0.2-0.2-0.2-0.5-0.4l-2.4-1.4c-0.3-0.1-0.4-0.2-0.6-0.2q-0.2-0.1-0.4 0zm-1.5 2.7c-0.3-0.1-0.7 0-0.9 0.3-0.1 0.3 0 0.7 0.3 0.9l1.7 0.8v2.1c0 0.3 0.3 0.6 0.6 0.6 0.3 0 0.6-0.3 0.6-0.6v-2.1l1.7-0.8c0.3-0.2 0.4-0.6 0.3-0.9-0.2-0.3-0.6-0.4-0.9-0.3l-1.7 0.9z"/>
</svg>