<svg version="1.2" xmlns="http://www.w3.org/2000/svg" viewBox="0 0 16 16" width="16" height="16">
	<title>server</title>
	<style>
		.s0 { fill: #8080a0 }
		.s1 { fill: #F5AA52 }
	</style>
	<g id="Layer 1">
		<path fill-rule="evenodd" class="s0" d="m1 4.2v4.8c0 1.4 0 2.1 0.3 2.6 0.2 0.5 0.6 0.9 1.1 1.1 0.3 0.2 0.6 0.2 1.1 0.3v-3.5c0-1.4 0-2.1 0.3-2.6 0.2-0.5 0.6-0.9 1.1-1.1 0.5-0.3 1.2-0.3 2.6-0.3h6.5c-0.1-0.5-0.1-0.8-0.3-1.1-0.2-0.5-0.6-0.9-1.1-1.1-0.5-0.3-1.2-0.3-2.6-0.3h-1.7q-0.1 0-0.2 0-0.1 0-0.2-0.1 0 0-0.1-0.1l-0.6-0.6c-0.5-0.5-0.7-0.7-0.9-0.8q-0.4-0.2-0.8-0.3c-0.2-0.1-0.5-0.1-1.2-0.1h-0.1c-1.1 0-1.7 0-2.1 0.2q-0.6 0.3-0.9 0.9c-0.2 0.4-0.2 1-0.2 2.1z"/>
		<path fill-rule="evenodd" class="s1" d="m5.1 7.6c-0.1 0.2-0.1 0.4-0.1 0.9 0 0.5 0 0.7 0.1 0.9q0.1 0.4 0.5 0.5c0.2 0.1 0.4 0.1 0.9 0.1h6c0.5 0 0.7 0 0.9-0.1q0.4-0.1 0.5-0.5c0.1-0.2 0.1-0.4 0.1-0.9 0-0.5 0-0.7-0.1-0.9q-0.1-0.4-0.5-0.5c-0.2-0.1-0.4-0.1-0.9-0.1h-6c-0.5 0-0.7 0-0.9 0.1q-0.4 0.1-0.5 0.5zm0 4c-0.1 0.2-0.1 0.4-0.1 0.9 0 0.5 0 0.7 0.1 0.9q0.1 0.4 0.5 0.5c0.2 0.1 0.4 0.1 0.9 0.1h6c0.5 0 0.7 0 0.9-0.1q0.4-0.1 0.5-0.5c0.1-0.2 0.1-0.4 0.1-0.9 0-0.5 0-0.7-0.1-0.9q-0.1-0.4-0.5-0.5c-0.2-0.1-0.4-0.1-0.9-0.1h-6c-0.5 0-0.7 0-0.9 0.1q-0.4 0.1-0.5 0.5zm0.7-3.1c0-0.4 0.3-0.7 0.7-0.7 0.4 0 0.8 0.3 0.8 0.7 0 0.4-0.4 0.8-0.8 0.8-0.4 0-0.7-0.4-0.7-0.8zm0 4c0-0.4 0.3-0.7 0.7-0.7 0.4 0 0.8 0.3 0.8 0.7 0 0.4-0.4 0.8-0.8 0.8-0.4 0-0.7-0.4-0.7-0.8z"/>
	</g>
</svg>