<?xml version="1.0" encoding="UTF-8" standalone="no"?>
<svg
   width="16"
   height="16"
   viewBox="0 0 16 16"
   fill="none"
   version="1.1"
   id="svg1"
   xmlns="http://www.w3.org/2000/svg"
   xmlns:svg="http://www.w3.org/2000/svg">
  <defs
     id="defs1" />
  <path
     fill-rule="evenodd"
     clip-rule="evenodd"
     d="M 6.27094,1.80565 C 6.06072,1.60429 5.95561,1.50362 5.87519,1.46811 5.79435,1.43242 5.73735,1.42182 5.64908,1.42609 5.56127,1.43034 5.47393,1.4669 5.29923,1.54002 4.74506,1.77198 4.22707,2.07317 3.75605,2.43277 3.60545,2.54775 3.53014,2.60525 3.48269,2.67908 3.43495,2.75337 3.41573,2.8078 3.40622,2.8956 3.39678,2.98286 3.43132,3.12415 3.50039,3.40673 3.64792,4.01029 3.57206,4.66943 3.23686,5.25 2.90162,5.83066 2.36861,6.22596 1.77204,6.39993 1.49231,6.48151 1.35244,6.5223 1.28148,6.57426 1.21012,6.6265 1.1725,6.67057 1.13209,6.74924 1.09191,6.82747 1.07997,6.92154 1.05608,7.10968 1.01908,7.40124 1,7.69839 1,8 1,8.30161 1.01908,8.59877 1.05609,8.89033 1.07997,9.07847 1.09191,9.17253 1.13209,9.25077 1.1725,9.32943 1.21012,9.3735 1.28148,9.42575 1.35244,9.4777 1.49231,9.51849 1.77204,9.60007 2.36861,9.77405 2.90162,10.1693 3.23686,10.75 c 0.3352,0.5806 0.41106,1.2397 0.26353,1.8433 -0.06907,0.2826 -0.10361,0.4238 -0.09417,0.5111 0.00951,0.0878 0.02873,0.1422 0.07647,0.2165 0.04745,0.0739 0.12276,0.1314 0.27336,0.2463 0.47102,0.3596 0.98901,0.6608 1.54319,0.8928 0.17469,0.0731 0.26204,0.1097 0.34984,0.1139 0.08827,0.0043 0.14527,-0.0063 0.22611,-0.042 C 5.95561,14.4964 6.06072,14.3957 6.27094,14.1944 6.71997,13.7643 7.32912,13.5 8,13.5 c 0.67088,0 1.28003,0.2643 1.72906,0.6944 0.21022,0.2013 0.31534,0.302 0.39574,0.3375 0.0808,0.0357 0.1379,0.0463 0.2261,0.042 0.0878,-0.0042 0.1752,-0.0408 0.3499,-0.1139 0.5541,-0.232 1.0721,-0.5332 1.5431,-0.8928 0.1507,-0.1149 0.226,-0.1724 0.2734,-0.2463 0.0478,-0.0743 0.067,-0.1287 0.0765,-0.2165 0.0094,-0.0873 -0.0251,-0.2285 -0.0942,-0.5111 C 12.3521,11.9897 12.4279,11.3306 12.7631,10.75 13.0984,10.1693 13.6314,9.77405 14.228,9.60007 14.5077,9.51849 14.6476,9.47771 14.7185,9.42575 14.7899,9.3735 14.8275,9.32944 14.8679,9.25077 14.9081,9.17253 14.92,9.07847 14.9439,8.89033 14.9809,8.59877 15,8.30161 15,8 15,7.69839 14.9809,7.40124 14.9439,7.10968 14.92,6.92154 14.9081,6.82747 14.8679,6.74924 14.8275,6.67057 14.7899,6.6265 14.7185,6.57426 14.6476,6.5223 14.5077,6.48151 14.228,6.39993 13.6314,6.22596 13.0984,5.83066 12.7631,5.25 12.4279,4.66943 12.3521,4.01029 12.4996,3.40673 12.5687,3.12415 12.6032,2.98286 12.5938,2.8956 12.5843,2.8078 12.5651,2.75338 12.5173,2.67908 12.4699,2.60525 12.3946,2.54775 12.2439,2.43277 11.7729,2.07317 11.2549,1.77198 10.7008,1.54002 10.5261,1.4669 10.4387,1.43034 10.3509,1.42609 10.2627,1.42182 10.2056,1.43242 10.1248,1.46811 10.0444,1.50362 9.93928,1.60429 9.72906,1.80565 9.28003,2.23575 8.67088,2.5 8,2.5 7.32912,2.5 6.71997,2.23575 6.27094,1.80565 Z"
     fill="#8080a0"
     id="path1" />
</svg>
