<?xml version="1.0" encoding="UTF-8" standalone="no"?>
<svg
   version="1.2"
   viewBox="0 0 16 16"
   width="16"
   height="16"
   id="svg1"
   sodipodi:docname="ts-def-svg.svg"
   inkscape:version="1.4 (e7c3feb100, 2024-10-09)"
   xmlns:inkscape="http://www.inkscape.org/namespaces/inkscape"
   xmlns:sodipodi="http://sodipodi.sourceforge.net/DTD/sodipodi-0.dtd"
   xmlns="http://www.w3.org/2000/svg"
   xmlns:svg="http://www.w3.org/2000/svg">
  <defs
     id="defs1" />
  <sodipodi:namedview
     id="namedview1"
     pagecolor="#505050"
     bordercolor="#eeeeee"
     borderopacity="1"
     inkscape:showpageshadow="0"
     inkscape:pageopacity="0"
     inkscape:pagecheckerboard="0"
     inkscape:deskcolor="#505050"
     inkscape:zoom="36.8125"
     inkscape:cx="8.0135823"
     inkscape:cy="8.0135823"
     inkscape:window-width="1326"
     inkscape:window-height="755"
     inkscape:window-x="20"
     inkscape:window-y="52"
     inkscape:window-maximized="0"
     inkscape:current-layer="svg1" />
  <title
     id="title1">ts-def-svg</title>
  <style
     id="style1">
		.s0 { fill: #8080a0 } 
	</style>
  <g
     id="g1">
    <path
       fill-rule="evenodd"
       class="s0"
       d="m 0.4,7.9 0.9,3.3 c 0.2,1.1 0.4,1.6 0.7,1.9 0.2666667,0.333333 0.6,0.533333 1,0.6 0.5,0.1 1,0 2.1,-0.3 L 12,11.5 c 0.5,-0.1 0.7,-0.1 0.9,-0.2 0.2,-0.133333 0.366667,-0.266667 0.5,-0.4 0.2,-0.2 0.3,-0.4 0.5,-0.8 L 15.2,8 C 15.7,7 16,6.6 16,6.1 16,5.7 15.9,5.3 15.7,4.9 15.4,4.5 15,4.3 14,3.7 L 11.9,2.5 C 11.5,2.3 11.3,2.1 11.1,2.1 10.9,2.0333333 10.7,2 10.5,2 10.2,2 10,2.1 9.5,2.2 l -7,1.9 C 1.5,4.3 1,4.5 0.6,4.8 0.33333333,5.0666667 0.13333333,5.4 0,5.8 c -0.1,0.5 0.1,1 0.4,2.1 z"
       id="path1"
       sodipodi:nodetypes="sccccccsccsccccsccccs" />
  </g>
</svg>
