<?xml version="1.0" encoding="UTF-8" standalone="no"?>
<svg
   version="1.2"
   viewBox="0 0 16 16"
   width="16"
   height="16"
   id="svg1"
   xmlns="http://www.w3.org/2000/svg"
   xmlns:svg="http://www.w3.org/2000/svg">
  <defs
     id="defs1" />
  <title
     id="title1">cs-svg</title>
  <style
     id="style1">
		.s0 { fill: #8080a0 } 
	</style>
  <g
     id="Layer 1">
    <path
       fill-rule="evenodd"
       class="s0"
       d="m 13,2.8 c 0.7,0.4 1.1,0.6 1.3,0.9 0.266667,0.2666667 0.466667,0.5666667 0.6,0.9 C 15,5 15,5.5 15,6.3 v 3.4 c 0,0.8 0,1.2 -0.2,1.6 -0.06667,0.333333 -0.233333,0.633333 -0.5,0.9 -0.2,0.3 -0.6,0.5 -1.3,0.9 l -3.1,1.8 c -0.7,0.4 -1,0.6 -1.4,0.7 -0.3333333,0.06667 -0.7,0.06667 -1.1,0 C 7.1,15.5 6.7,15.3 6,14.9 L 3,13.2 C 2.3,12.8 1.9,12.6 1.7,12.3 1.4333333,12.033333 1.2333333,11.733333 1.1,11.4 1,11 1,10.5 1,9.7 V 6.3 C 1,5.5 1,5.1 1.2,4.7 1.2666667,4.3666667 1.4333333,4.0666667 1.7,3.8 1.9,3.5 2.3,3.3 3,2.9 L 6.1,1.1 C 6.8,0.7 7.1,0.5 7.5,0.4 7.8333333,0.3333333 8.2,0.3333333 8.6,0.4 8.9,0.5 9.3,0.7 10,1.1 Z"
       id="path1" />
  </g>
</svg>
