<?xml version="1.0" encoding="UTF-8" standalone="no"?>
<svg
   width="16"
   height="16"
   fill="none"
   version="1.1"
   id="svg2"
   xmlns="http://www.w3.org/2000/svg"
   xmlns:svg="http://www.w3.org/2000/svg">
  <defs
     id="defs2" />
  <path
     fill="#8080A0"
     d="M 7.9852274,7.6993035e-5 C 7.2335535,-0.0039907 6.4890736,0.15316135 5.7978455,0.46178917 5.1101081,0.76762259 4.4904552,1.2190085 3.9779431,1.7874972 3.0293299,2.8059515 2.5034837,4.1743186 2.5145838,5.595479 c -0.019445,0.101854 -0.019445,0.2067166 0,0.3085699 0.1749906,1.0879948 0.542471,2.1325612 1.0827546,3.0856995 C 4.8754523,11.446561 6.3421624,13.790998 7.9830414,16 7.9830414,16 13.434,8.6994641 13.434,5.5931932 13.434,4.1097718 12.860906,2.6880642 11.837211,1.6389264 10.807915,0.58697647 9.4249831,-0.00140098 7.9852274,7.6993035e-5 Z"
     id="path1"
     style="stroke-width:2.23601" />
</svg>
