<svg version="1.2" xmlns="http://www.w3.org/2000/svg" viewBox="0 0 16 16" width="16" height="16">
	<title>md-svg</title>
	<style>
		.s0 { fill: #8080a0 } 
	</style>
	<g id="Layer 1">
		<path id="path1" fill-rule="evenodd" class="s0" d="m1 6.2c0-1.1 0-1.7 0.2-2.1q0.3-0.6 0.9-0.9c0.4-0.2 1-0.2 2.1-0.2h7.6c1.1 0 1.7 0 2.1 0.2q0.6 0.3 0.9 0.9c0.2 0.4 0.2 1 0.2 2.1v3.6c0 1.1 0 1.7-0.2 2.1q-0.3 0.6-0.9 0.9c-0.4 0.2-1 0.2-2.1 0.2h-7.6c-1.1 0-1.7 0-2.1-0.2q-0.6-0.3-0.9-0.9c-0.2-0.4-0.2-1-0.2-2.1z"/>
	</g>
</svg>