<svg version="1.2" xmlns="http://www.w3.org/2000/svg" viewBox="0 0 16 16" width="16" height="16">
	<title>template-svg</title>
	<style>
		.s0 { fill: #8080a0 } 
	</style>
	<g id="Layer 1">
		<path id="path1" fill-rule="evenodd" class="s0" d="m2 6c0-1.4 0-2.1 0.3-2.6 0.2-0.5 0.6-0.9 1.1-1.1 0.5-0.3 1.2-0.3 2.6-0.3h4c1.4 0 2.1 0 2.6 0.3 0.5 0.2 0.9 0.6 1.1 1.1 0.3 0.5 0.3 1.2 0.3 2.6v4c0 1.4 0 2.1-0.3 2.6-0.2 0.5-0.6 0.9-1.1 1.1-0.5 0.3-1.2 0.3-2.6 0.3h-4c-1.4 0-2.1 0-2.6-0.3-0.5-0.2-0.9-0.6-1.1-1.1-0.3-0.5-0.3-1.2-0.3-2.6z"/>
	</g>
</svg>