<?xml version="1.0" encoding="UTF-8" standalone="no"?>
<svg
   version="1.2"
   viewBox="0 0 16 16"
   width="16"
   height="16"
   id="svg1"
   xmlns="http://www.w3.org/2000/svg"
   xmlns:svg="http://www.w3.org/2000/svg">
  <defs
     id="defs1" />
  <title
     id="title1">yaml-svg</title>
  <style
     id="style1">
		.s0 { fill: #8080a0 } 
	</style>
  <g
     id="Layer 1">
    <path
       fill-rule="evenodd"
       class="s0"
       d="M 3.2,4.1 C 3,4.5 3,5.1 3,6.2 v 3.6 c 0,1.1 0,1.7 0.2,2.1 0.2,0.4 0.5,0.7 0.9,0.9 0.4,0.2 1,0.2 2.1,0.2 h 3.6 c 1.1,0 1.7,0 2.1,-0.2 0.4,-0.2 0.7,-0.5 0.9,-0.9 C 13,11.5 13,10.9 13,9.8 V 6.2 C 13,5.1 13,4.5 12.8,4.1 12.6,3.7 12.3,3.4 11.9,3.2 11.5,3 10.9,3 9.8,3 H 6.2 C 5.1,3 4.5,3 4.1,3.2 3.7,3.4 3.4,3.7 3.2,4.1 Z"
       id="path1" />
  </g>
</svg>
