<svg width="16" height="16" viewBox="0 0 16 16" fill="none" xmlns="http://www.w3.org/2000/svg">
<path d="m 2.31725,5.48971 0.5052,5.55719 c 0.06449,0.7093 0.09673,1.064 0.23264,1.3679 0.1202,0.2688 0.29826,0.5077 0.52147,0.6997 0.25238,0.2171 0.58302,0.3493 1.2443,0.6138 l 1.99069,0.7963 h 10e-6 c 0.43904,0.1756 0.65857,0.2634 0.88521,0.2982 0.20098,0.0308 0.40549,0.0308 0.60647,0 0.22664,-0.0348 0.44616,-0.1226 0.8852,-0.2982 h 2e-5 l 1.99064,-0.7963 c 0.6613,-0.2645 0.992,-0.3967 1.2444,-0.6138 0.2232,-0.192 0.4012,-0.4309 0.5214,-0.6997 0.1359,-0.3039 0.1682,-0.6586 0.2327,-1.3679 L 13.6828,5.48972 C 13.7928,4.27933 13.8478,3.67414 13.6459,3.20686 13.4686,2.79635 13.1588,2.45711 12.766,2.24334 12.319,2 11.7113,2 10.4959,2 H 5.50411 C 4.28874,2 3.68105,2 3.23397,2.24334 2.8412,2.45711 2.5314,2.79635 2.35406,3.20686 2.1522,3.67414 2.20722,4.27933 2.31725,5.48971 Z" fill="#8080A0"/>
</svg>