<?xml version="1.0" encoding="UTF-8" standalone="no"?>
<svg
   version="1.2"
   viewBox="0 0 16 16"
   width="16"
   height="16"
   id="svg1"
   xmlns="http://www.w3.org/2000/svg"
   xmlns:svg="http://www.w3.org/2000/svg">
  <defs
     id="defs1" />
  <title
     id="title1">file-svg</title>
  <style
     id="style1">
		.s0 { fill: #7380f9 } 
		.s1 { fill: #f973e8 } 
	</style>
  <g
     id="Layer 1">
    <path
       id="path1"
       class="s0"
       d="M 7,2 C 5.6,2 4.9003906,2.0007814 4.4003906,2.3007812 3.9003906,2.5007814 3.5007814,2.9003906 3.3007812,3.4003906 3.0007815,3.9003906 3,4.6 3,6 v 5 c 0,1.4 7.814e-4,2.099609 0.3007812,2.599609 0.2000003,0.5 0.5996094,0.89961 1.0996094,1.09961 C 4.9003906,14.999219 5.6,15 7,15 h 3 c 1.4,0 2.099609,-7.81e-4 2.599609,-0.300781 0.5,-0.2 0.89961,-0.59961 1.09961,-1.09961 C 13.999219,13.099609 14,12.4 14,11 V 7.3007812 c 0,-0.4999999 3.91e-4,-0.7003906 -0.09961,-0.9003906 0,-0.2 -0.06784,-0.3996093 -0.201172,-0.5996094 -0.1,-0.1999998 -0.29961,-0.4011718 -0.59961,-0.7011718 L 10.900391,2.9003906 c -0.3,-0.3 -0.501172,-0.4996093 -0.701172,-0.5996094 C 9.9992183,2.167448 9.7996094,2.0996094 9.5996094,2.0996094 9.3996094,1.9996094 9.1992188,2 8.6992188,2 Z M 5.5,6 h 4 C 9.5,6 10,6.2 10,6.5 10,6.8 9.5,7 9.5,7 h -4 C 5.5,7 5,6.8 5,6.5 5,6.2 5.5,6 5.5,6 Z m 0,2 h 6 C 11.8,8 12,8.2 12,8.5 12,8.8 11.8,9 11.5,9 h -6 C 5.2,9 5,8.8 5,8.5 5,8.2 5.2,8 5.5,8 Z m 0,2 h 6 c 0.3,0 0.5,0.2 0.5,0.5 0,0.3 -0.2,0.5 -0.5,0.5 h -6 C 5.2,11 5,10.8 5,10.5 5,10.2 5.2,10 5.5,10 Z" />
  </g>
</svg>
