<?xml version="1.0" encoding="UTF-8" standalone="no"?>
<svg
   version="1.2"
   viewBox="0 0 16 16"
   width="16"
   height="16"
   id="svg2"
   xmlns="http://www.w3.org/2000/svg"
   xmlns:svg="http://www.w3.org/2000/svg">
  <defs
     id="defs2" />
  <style
     id="style1">.a{fill:#7380F9}</style>
  <path
     id="path1"
     class="a"
     d="m 6,2 c -1.4,0 -2.0996094,7.813e-4 -2.5996094,0.3007812 -0.5,0.2 -0.8996093,0.5996094 -1.0996094,1.0996094 C 2.0007813,3.9003906 2,4.6 2,6 v 4 c 0,1.4 7.813e-4,2.099609 0.3007812,2.599609 0.2,0.5 0.5996094,0.89961 1.0996094,1.09961 C 3.9003906,13.999219 4.6,14 6,14 h 4 c 1.4,0 2.099609,-7.81e-4 2.599609,-0.300781 0.5,-0.2 0.89961,-0.59961 1.09961,-1.09961 C 13.999219,12.099609 14,11.4 14,10 V 6 c 0,-1.4 -7.81e-4,-2.0996094 -0.300781,-2.5996094 -0.2,-0.5 -0.59961,-0.8996093 -1.09961,-1.0996094 C 12.099609,2.0007812 11.4,2 10,2 Z M 4.1992188,5 h 1.1015624 1.2988282 c 0.1,0 0.1,0.3003906 0,0.4003906 C 5.9996094,5.5003906 5.9,5.4992187 6,6.1992188 l 0.6992188,2.6015624 c 0.1,0.5 0.2003906,0.5 0.4003906,0 L 8,6.5996094 8.5996094,6.5 l 1,2.8007812 c 0.2,0.3000001 0.2007812,0.1984376 0.3007812,-0.1015624 l 0.7988284,-3 c 0.1,-0.4 0.101172,-0.6988282 -0.7988284,-0.7988282 -0.1,-0.1 -0.1,-0.4003906 0,-0.4003906 H 11.199219 12 c 0.1,0 0.1,0.3003906 0,0.4003906 -0.5,0.1 -0.600781,0.3003907 -0.800781,0.9003906 L 10,10.900391 c -0.1,0.2 -0.2007813,0.298828 -0.3007812,0.298828 -0.1,0 -0.1988282,-0.09883 -0.2988282,-0.298828 L 8.0996094,7.8007812 8,7.6992188 6.6992188,10.900391 c -0.1,0.2 -0.1988282,0.298828 -0.2988282,0.298828 -0.1,0 -0.2007812,-0.09883 -0.3007812,-0.298828 L 4.9003906,6.1992188 c -0.2,-0.7000001 -0.3011718,-0.6988282 -0.7011718,-0.7988282 -0.1,-0.1 -0.1,-0.4003906 0,-0.4003906 z" />
</svg>
