<svg version="1.2" xmlns="http://www.w3.org/2000/svg" viewBox="0 0 16 16" width="16" height="16">
	<title>dart-svg</title>
	<style>
		.s0 { fill: #5bafd4 } 
		.s1 { fill: #7380f9 } 
	</style>
	<g id="Layer 1">
		<path class="s0" d="m10.8 2.8l2.2 2.2h-9v-1l2.9-1.7c0.7-0.5 1.1-0.7 1.5-0.8q0.5 0 1 0.2c0.4 0.1 0.7 0.4 1.4 1.1z"/>
		<path class="s1" d="m15 13h-2-8l-2.2-2.2c-0.7-0.7-1-1-1.1-1.4q-0.2-0.5-0.2-1c0.1-0.4 0.3-0.8 0.8-1.5l1.7-2.9h6.7c0.5 0 0.7 0 0.9 0.1q0.3 0 0.6 0.2c0.2 0.1 0.4 0.3 0.7 0.6l2.1 2.1z"/>
		<path class="s0" d="m13 13l-9-9v6.7c0 0.5 0 0.7 0.1 0.9q0 0.3 0.2 0.6c0.1 0.2 0.3 0.4 0.6 0.7l2.1 2.1h6z"/>
	</g>
</svg>