<svg version="1.2" xmlns="http://www.w3.org/2000/svg" viewBox="0 0 16 16" width="16" height="16">
	<title>template-svg</title>
	<style>
		.s0 { fill: #5bafd4 } 
	</style>
	<path id="path1" fill-rule="evenodd" class="s0" d="m3.7 3h5.2c2 0 3.6 1.6 3.6 3.7v2c0 0.4 0.3 0.7 0.7 0.7 0.4 0 0.7-0.3 0.7-0.7v-2.9c0-0.3 0.2-0.5 0.5-0.5h1.1c0.3 0 0.5 0.2 0.5 0.5v3.3c0 1.4-1.1 2.6-2.6 2.6h-1.4c-0.7 0-1.4-0.3-2-0.8q-0.1-0.1-0.3 0-0.1 0-0.1 0.2v2.5q0 0.2-0.2 0.2h-2.3q-0.1 0-0.1-0.2v-1.9c0-0.3-0.3-0.5-0.5-0.5h-2.2c-0.3 0-0.5 0.2-0.5 0.5v1.9q0 0.2-0.2 0.2h-2.2q-0.2 0-0.2-0.2v-2.3q0-0.3-0.1-0.4c-0.7-0.7-1.1-1.6-1.1-2.6v-1.7c0-2 1.7-3.6 3.7-3.6z"/>
</svg>