<svg version="1.2" xmlns="http://www.w3.org/2000/svg" viewBox="0 0 16 16" width="16" height="16">
	<title>gradle-svg</title>
	<style>
		.s0 { fill: #5bafd4 } 
	</style>
	<g id="Layer 1">
		<path fill-rule="evenodd" class="s0" d="m16 1.4v0.8c0 2.9-2.1 5.2-5 5.3v6.9c0 0.3-0.2 0.4-0.5 0.4h-1.4v-1.9c0-0.3-0.3-0.5-0.6-0.5-0.3 0-0.5 0.3-0.5 0.5v2h-2v-2c0-0.3-0.2-0.5-0.5-0.5-0.3 0-0.5 0.3-0.5 0.5v1.5q0 0.4 0 0.4h-2v-1.9c0-0.3-0.2-0.5-0.5-0.5-0.3 0-0.5 0.3-0.5 0.5v2h-1.5c-0.3 0-0.5-0.2-0.5-0.5v-4.7c0-1.9 1.2-3.5 2.8-4.1q0 0.2-0.1 0.6c-0.1 1 0.4 2.1 1.1 2.9 0.7 0.6 1.6 1 2.5 1q0.1 0 0.2 0c1 0 1.9-0.4 2.6-1.1 0.2-0.2 0.2-0.6 0-0.7-0.2-0.2-0.5-0.2-0.7 0-0.5 0.5-1.2 0.8-2 0.8-0.7 0.1-1.4-0.2-1.9-0.7-0.6-0.6-0.9-1.4-0.8-2.2q0.1-1 0.8-1.5l0.8-0.7h6.3c1.4 0 2.4-1.3 2.4-2.5 0-0.3 0.2-0.5 0.5-0.5h1c0.3 0 0.5 0.2 0.5 0.4z"/>
	</g>
</svg>