<svg version="1.2" xmlns="http://www.w3.org/2000/svg" viewBox="0 0 16 16" width="16" height="16"><style>.a{fill:#5bafd4}</style><path fill-rule="evenodd" class="a" d="m8 15c-3.9 0-7-3.1-7-7 0-3.9 3.1-7 7-7 3.9 0 7 3.1 7 7 0 3.9-3.1 7-7 7zm-1.2-6.2q0.1 0.9 0.2 1.7 0 0.3 0.1 0.5c0.3 1 0.6 1.6 0.9 1.6 0.3 0 0.6-0.6 0.9-1.6q0.1-0.2 0.1-0.5 0.1-0.8 0.2-1.7zm2.2-1.6h-2.2q0-0.9 0.1-1.7 0.1-0.3 0.1-0.5c0.2-1 0.5-1.6 0.9-1.6 0.4 0 0.7 0.6 0.9 1.6q0 0.2 0.1 0.5 0.1 0.8 0.1 1.7zm2 1.6q0 1.7-0.3 3-0.1 0.3-0.3 0.6c1.3-0.7 2.3-2.1 2.5-3.6zm1.9-1.6h-1.9c-0.1-1.1-0.2-2.1-0.4-3q0-0.3-0.1-0.6c1.3 0.7 2.1 2.1 2.4 3.6zm-8.1 0h-1.9c0.3-1.5 1.1-2.9 2.4-3.6q0 0.3-0.1 0.6c-0.2 0.9-0.3 1.9-0.4 3zm0.4 4.6q0.1 0.3 0.1 0.6c-1.3-0.7-2.1-2.1-2.4-3.6h1.9c0.1 1.1 0.2 2.1 0.4 3z"/></svg>