<svg version="1.2" xmlns="http://www.w3.org/2000/svg" viewBox="0 0 16 16" width="16" height="16"><style>.a{fill:#f5aa52}.b{fill:#8080a0}</style><path fill-rule="evenodd" class="a" d="m8.3 3.5q-0.1-0.3-0.1-0.5h2.8c1.4 0 2.1 0 2.6 0.3 0.5 0.2 0.9 0.6 1.1 1.1 0.3 0.5 0.3 1.2 0.3 2.6v4c0 1.4 0 2.1-0.3 2.6-0.2 0.5-0.6 0.9-1.1 1.1-0.5 0.3-1.2 0.3-2.6 0.3h-4c-1.4 0-2.1 0-2.6-0.3-0.5-0.2-0.9-0.6-1.1-1.1-0.3-0.5-0.3-1.2-0.3-2.6v-2.8q0.2 0 0.5 0c2.6 0 4.8-2.1 4.8-4.7zm1.7 6.3c0-1 0.8-1.8 1.7-1.8h0.3c1.1 0 2 0.9 2 2h-1c0-0.6-0.4-1-1-1h-0.3c-0.4 0-0.7 0.3-0.7 0.8 0 0.4 0.3 0.7 0.7 0.7h0.5c1 0 1.8 0.8 1.8 1.8 0 0.9-0.8 1.7-1.8 1.7h-0.2c-1.1 0-2-0.9-2-2h1c0 0.6 0.4 1 1 1h0.2c0.5 0 0.8-0.3 0.8-0.8 0-0.4-0.3-0.7-0.8-0.7h-0.5c-0.9 0-1.7-0.8-1.7-1.8zm-3.5-0.7h1.5v3c0 0.6-0.4 1-1 1-0.6 0-1-0.4-1-1v-0.5h-1v0.5c0 1.1 0.9 2 2 2 1.1 0 2-0.9 2-2v-3.5-0.5h-0.5-2z"/><path fill-rule="evenodd" class="b" d="m2.7 0.2q-0.1-0.2-0.2-0.2 0 0-0.1 0-0.1 0-0.2 0.1-0.4 0.1-0.8 0.4-0.1 0.1-0.1 0.1-0.1 0.1-0.1 0.2 0 0 0.1 0.2c0.1 0.3 0 0.7-0.1 1-0.2 0.3-0.5 0.5-0.8 0.6q-0.2 0-0.3 0.1 0 0 0 0-0.1 0.1-0.1 0.2 0 0.3 0 0.5 0 0.2 0 0.4 0 0.2 0.1 0.2 0 0.1 0 0.1 0.1 0.1 0.3 0.1c0.3 0.1 0.6 0.3 0.8 0.6 0.1 0.3 0.2 0.6 0.1 1q-0.1 0.2-0.1 0.2 0 0.1 0.1 0.1 0 0.1 0.1 0.2 0.4 0.2 0.8 0.4 0.1 0.1 0.2 0.1 0.1 0 0.1 0 0.1-0.1 0.2-0.2c0.2-0.2 0.6-0.4 0.9-0.4 0.4 0 0.7 0.2 0.9 0.4q0.1 0.1 0.2 0.2 0.1 0 0.1 0 0.1 0 0.2-0.1 0.4-0.2 0.8-0.4 0.1-0.1 0.1-0.2 0.1 0 0.1-0.1 0 0-0.1-0.2c-0.1-0.4 0-0.7 0.2-1 0.1-0.3 0.4-0.5 0.7-0.6q0.2 0 0.3-0.1 0 0 0-0.1 0.1 0 0.1-0.2 0-0.2 0-0.4 0-0.2 0-0.5 0-0.1-0.1-0.2 0 0 0 0-0.1-0.1-0.3-0.1c-0.3-0.1-0.6-0.3-0.7-0.6-0.2-0.3-0.3-0.7-0.2-1q0.1-0.2 0.1-0.2 0-0.1-0.1-0.2 0 0-0.1-0.1-0.4-0.3-0.8-0.4-0.1-0.1-0.2-0.1 0 0-0.1 0-0.1 0-0.2 0.2c-0.2 0.2-0.5 0.4-0.9 0.4-0.3 0-0.7-0.2-0.9-0.4zm0.9 4.2c-0.6 0-1-0.4-1-1 0-0.6 0.4-1 1-1 0.6 0 1 0.4 1 1 0 0.6-0.4 1-1 1z"/></svg>