<svg version="1.2" xmlns="http://www.w3.org/2000/svg" viewBox="0 0 16 16" width="16" height="16">
	<title>js-config-svg</title>
	<style>
		.s0 { fill: #f5aa52 } 
		.s1 { fill: #5bafd4 } 
	</style>
	<g id="Layer 1">
		<path id="path1" class="s0" d="m8 3q0 0.2 0 0.5c0 2.5-2 4.5-4.5 4.5q-0.3 0-0.5 0v3c0 1.4 0 2.1 0.3 2.6 0.2 0.5 0.6 0.9 1.1 1.1 0.5 0.3 1.2 0.3 2.6 0.3h4c1.4 0 2.1 0 2.6-0.3 0.5-0.2 0.9-0.6 1.1-1.1 0.3-0.5 0.3-1.2 0.3-2.6v-4c0-1.4 0-2.1-0.3-2.6-0.2-0.5-0.6-0.9-1.1-1.1-0.5-0.3-1.2-0.3-2.6-0.3zm-0.1 5.4q0.7 0 0.7 0.9v2.4q0 0.9-0.3 1.4-0.3 0.5-0.8 0.8-0.5 0.2-1.1 0.2-0.6 0-1.1-0.2-0.5-0.2-0.8-0.6-0.3-0.4-0.3-1.1 0-0.3 0.2-0.4 0.2-0.2 0.5-0.2 0.3 0 0.5 0.2 0.2 0.2 0.3 0.6 0 0.2 0.1 0.4l0.2 0.2h0.4q0.2 0 0.4-0.1 0.2-0.1 0.3-0.4 0.1-0.4 0.1-0.9v-2.3q0-0.9 0.7-0.9zm4.4 0q0.5 0 1 0.1 0.4 0.1 0.8 0.4l0.3 0.3q0.1 0.2 0.1 0.4 0 0.2-0.2 0.4-0.2 0.1-0.4 0.1-0.3 0-0.5-0.1-0.1-0.1-0.3-0.2-0.1-0.2-0.3-0.3-0.2-0.1-0.5-0.1-0.3 0-0.5 0.1-0.1 0-0.2 0.2-0.1 0.1-0.1 0.2 0 0.2 0.2 0.4 0.3 0.2 0.9 0.3 0.6 0.2 1.1 0.4 0.4 0.2 0.7 0.5 0.3 0.4 0.3 0.9 0 0.5-0.3 0.9-0.4 0.4-0.9 0.6-0.5 0.2-1.3 0.2-0.6 0-1.1-0.2-0.5-0.1-0.8-0.4-0.4-0.3-0.4-0.7 0-0.2 0.1-0.4 0.1-0.2 0.4-0.2 0.3 0 0.5 0.1 0.2 0.1 0.3 0.3 0.2 0.2 0.5 0.3 0.2 0.1 0.6 0.1h0.4q0.2-0.1 0.3-0.2 0.2-0.2 0.2-0.3 0-0.3-0.3-0.5-0.3-0.1-0.9-0.2-1.1-0.3-1.6-0.7-0.4-0.5-0.4-1.2 0-0.4 0.3-0.8 0.3-0.3 0.8-0.5 0.6-0.2 1.2-0.2z"/>
	</g>
	<path id="path2" fill-rule="evenodd" class="s1" d="m3.5 0c-1.9 0-3.5 1.6-3.5 3.5 0 1.9 1.6 3.5 3.5 3.5 1.9 0 3.5-1.6 3.5-3.5 0-1.9-1.6-3.5-3.5-3.5zm0.5 1.7h0.3 0.2c0.1 0 0.2 0.1 0.3 0.1l0.6 0.4c0.4 0.2 0.5 0.2 0.6 0.4q0.1 0.2 0.1 0.3c0 0.2-0.1 0.3-0.3 0.6l-0.4 0.7c-0.1 0.1-0.1 0.2-0.1 0.2l-0.2 0.2h-0.3l-2.1 0.6c-0.4 0.1-0.5 0.2-0.7 0.1q-0.2 0-0.3-0.2c-0.1-0.1-0.2-0.2-0.2-0.6l-0.3-1c-0.1-0.3-0.2-0.5-0.1-0.6q0-0.2 0.2-0.4c0.1-0.1 0.2-0.1 0.5-0.2z"/>
</svg>