<?xml version="1.0" encoding="UTF-8" standalone="no"?>
<svg
   version="1.2"
   viewBox="0 0 16 16"
   width="16"
   height="16"
   id="svg1"
   sodipodi:docname="md.svg"
   inkscape:version="1.4 (e7c3feb100, 2024-10-09)"
   xmlns:inkscape="http://www.inkscape.org/namespaces/inkscape"
   xmlns:sodipodi="http://sodipodi.sourceforge.net/DTD/sodipodi-0.dtd"
   xmlns="http://www.w3.org/2000/svg"
   xmlns:svg="http://www.w3.org/2000/svg">
  <defs
     id="defs1" />
  <sodipodi:namedview
     id="namedview1"
     pagecolor="#505050"
     bordercolor="#eeeeee"
     borderopacity="1"
     inkscape:showpageshadow="0"
     inkscape:pageopacity="0"
     inkscape:pagecheckerboard="0"
     inkscape:deskcolor="#505050"
     inkscape:zoom="36.8125"
     inkscape:cx="8.0135823"
     inkscape:cy="8.0135823"
     inkscape:window-width="1326"
     inkscape:window-height="755"
     inkscape:window-x="1300"
     inkscape:window-y="52"
     inkscape:window-maximized="0"
     inkscape:current-layer="svg1" />
  <title
     id="title1">tiny-square-svg</title>
  <style
     id="style1">
		.s0 { fill: #7380f9 } 
		.s1 { fill: #000000 } 
	</style>
  <path
     id="path1"
     class="s0"
     d="M 6.1992188 3 C 5.0992188 3 4.4996094 2.9992187 4.0996094 3.1992188 C 3.6996094 3.3992188 3.3992187 3.6996094 3.1992188 4.0996094 C 2.9992187 4.4996094 3 5.0992188 3 6.1992188 L 3 9.8007812 C 3 10.900781 2.9992187 11.500391 3.1992188 11.900391 C 3.3992187 12.300391 3.6996094 12.600781 4.0996094 12.800781 C 4.4996094 13.000781 5.0992188 13 6.1992188 13 L 9.8007812 13 C 10.900781 13 11.500391 13.000781 11.900391 12.800781 C 12.300391 12.600781 12.600781 12.300391 12.800781 11.900391 C 13.000781 11.500391 13 10.900781 13 9.8007812 L 13 6.1992188 C 13 5.0992188 13.000781 4.4996094 12.800781 4.0996094 C 12.600781 3.6996094 12.300391 3.3992188 11.900391 3.1992188 C 11.500391 2.9992187 10.900781 3 9.8007812 3 L 6.1992188 3 z M 6.6992188 4.6992188 C 6.9658854 4.6992188 7.2003906 4.7670573 7.4003906 4.9003906 C 7.6003906 5.033724 7.6992188 5.266276 7.6992188 5.5996094 L 8.0996094 7.8007812 L 8.5 5.5996094 C 8.5 5.266276 8.6007812 5.033724 8.8007812 4.9003906 C 9.0007812 4.7670573 9.2333333 4.6992188 9.5 4.6992188 C 9.7 4.6992188 9.8666667 4.7341146 10 4.8007812 C 10.2 4.8674479 10.333724 4.966276 10.400391 5.0996094 C 10.467057 5.2329427 10.532943 5.3996094 10.599609 5.5996094 L 10.599609 6 C 10.599609 6.2 10.632552 6.4325521 10.699219 6.6992188 L 10.699219 7.5 C 10.765885 7.8333333 10.800781 8.133724 10.800781 8.4003906 C 10.867448 8.733724 10.900391 9.0341146 10.900391 9.3007812 L 10.900391 9.9003906 L 10.900391 10.300781 C 10.900391 10.500781 10.832552 10.667448 10.699219 10.800781 C 10.565885 11.000781 10.399219 11.099609 10.199219 11.099609 C 9.6658854 11.099609 9.4003906 10.766276 9.4003906 10.099609 L 9.3007812 7 L 8.8007812 9.4003906 C 8.7341146 9.6670573 8.666276 9.8666667 8.5996094 10 C 8.466276 10.133333 8.2996094 10.199219 8.0996094 10.199219 C 7.8996094 10.199219 7.7329427 10.133333 7.5996094 10 C 7.5329427 9.8666667 7.4670573 9.6670573 7.4003906 9.4003906 L 6.9003906 7 L 6.8007812 10.099609 C 6.8007813 10.432943 6.7329427 10.667448 6.5996094 10.800781 C 6.466276 11.000781 6.2666667 11.099609 6 11.099609 C 5.8 11.099609 5.6333333 11.000781 5.5 10.800781 C 5.3 10.667448 5.1992187 10.500781 5.1992188 10.300781 L 5.1992188 9.9003906 C 5.2658854 9.7003906 5.3007813 9.4658854 5.3007812 9.1992188 C 5.3007812 8.9325521 5.333724 8.6670573 5.4003906 8.4003906 C 5.4003906 8.0670573 5.4333333 7.7666667 5.5 7.5 L 5.5 6.6992188 C 5.5666667 6.4325521 5.5996094 6.2 5.5996094 6 L 5.5996094 5.5996094 C 5.666276 5.3996094 5.7341146 5.2329427 5.8007812 5.0996094 C 5.8674479 4.966276 5.966276 4.8674479 6.0996094 4.8007812 C 6.2996094 4.7341146 6.4992188 4.6992188 6.6992188 4.6992188 z " />
</svg>
