<svg version="1.2" xmlns="http://www.w3.org/2000/svg" viewBox="0 0 32 32" width="32" height="32">
	<title>prisma-svg</title>
	<style>
		.s0 { fill: #5bafd4 } 
	</style>
	<g id="Layer 1">
		<path class="s0" d="m27.8 22.6l-0.5-0.9-8.9-18.4q-0.1-0.3-0.3-0.5-0.2-0.3-0.5-0.4-0.2-0.2-0.5-0.3-0.3-0.1-0.6-0.1 0 0 0 0 0 0-0.1 0 0 0 0 0 0 0 0 0-0.3 0-0.6 0.1-0.3 0-0.5 0.2-0.2 0.1-0.5 0.3-0.2 0.2-0.3 0.4l-10.2 16.1q-0.1 0.2-0.2 0.5-0.1 0.3-0.1 0.7 0 0.3 0.1 0.6 0.1 0.3 0.3 0.6l4.9 7.5q0.2 0.2 0.4 0.4 0.2 0.2 0.5 0.3 0.2 0.2 0.5 0.2 0.3 0.1 0.6 0.1 0.1 0 0.2 0 0 0 0.1 0 0.1 0 0.2-0.1 0.1 0 0.1 0l14.4-4.1q0.3-0.1 0.5-0.2 0.2-0.1 0.4-0.3 0.2-0.2 0.3-0.4 0.2-0.2 0.3-0.4 0.1-0.2 0.1-0.4 0.1-0.3 0.1-0.5 0-0.3-0.1-0.5 0-0.3-0.1-0.5zm-3.6 0.6l-11.2 3.3 4-19.1 7.6 15.7-0.4 0.1z"/>
	</g>
</svg>