<svg version="1.2" xmlns="http://www.w3.org/2000/svg" viewBox="0 0 16 16" width="16" height="16">
	<title>react-ts-svg</title>
	<style>
		.s0 { fill: #7380f9 } 
		.s1 { fill: #8080a0 } 
	</style>
	<path class="s0" d="m8 10c-1.1 0-2-0.9-2-2 0-1.1 0.9-2 2-2 1.1 0 2 0.9 2 2 0 1.1-0.9 2-2 2z"/>
	<path fill-rule="evenodd" class="s0" d="m8.2 3.4q0-0.8-0.2-1.6v0.1c0.7-0.5 1.3-0.9 2-1 0.6-0.2 1.3-0.2 2 0.2 0.7 0.3 1 1 1.2 1.6 0.2 0.7 0.2 1.4 0.1 2.2v0.1c0.8 0.3 1.4 0.6 1.9 1.1 0.4 0.5 0.8 1.1 0.8 1.9 0 0.8-0.4 1.4-0.8 1.9-0.5 0.5-1.1 0.8-1.9 1.1v0.1c0.1 0.8 0.1 1.5-0.1 2.2-0.2 0.6-0.5 1.3-1.2 1.6-0.7 0.4-1.4 0.4-2 0.2-0.7-0.1-1.3-0.5-2-1-0.7 0.5-1.3 0.9-2 1-0.6 0.2-1.3 0.2-2-0.2-0.7-0.3-1-1-1.2-1.6-0.2-0.7-0.2-1.4-0.1-2.2v-0.1c-0.8-0.3-1.4-0.6-1.9-1.1-0.4-0.5-0.8-1.1-0.8-1.9q0-0.6 0.2-1 0.4 0.3 0.9 0.6-0.1 0.2-0.1 0.4c0 0.8 0.7 1.5 1.9 2q0.2-0.8 0.5-1.8h0.1q0.6 0 1.2-0.1 0.3 0.7 0.7 1.4 0.4 0.8 0.9 1.4 0.8 0.1 1.7 0.1 0.9 0 1.7-0.1 0.5-0.6 0.9-1.4 0.4-0.8 0.8-1.5-0.4-0.7-0.8-1.5-0.4-0.8-0.9-1.4-0.8-0.1-1.7-0.1 0.2-0.5 0.2-1 0.3 0 0.6 0-0.3-0.3-0.6-0.6zm3.7 3.3q-0.2-0.3-0.4-0.7-0.2-0.4-0.5-0.7 0.6 0.1 1.2 0.3-0.1 0.5-0.3 1.1zm0 2.6q-0.2 0.3-0.4 0.7-0.2 0.4-0.5 0.7 0.6-0.1 1.2-0.3-0.1-0.5-0.3-1.1zm1.2 0.7q-0.2-0.9-0.6-2 0.4-1.1 0.6-2c1.2 0.5 1.9 1.2 1.9 2 0 0.8-0.7 1.5-1.9 2zm-0.8 1.4q-0.9 0.3-2.1 0.5-0.7 0.9-1.4 1.6c1 0.7 2 1 2.7 0.6 0.7-0.4 1-1.4 0.8-2.7zm-4.3 1.4q0.4-0.4 0.8-0.8-0.4 0-0.8 0-0.4 0-0.8 0 0.4 0.4 0.8 0.8zm-3-2.1q-0.3-0.3-0.5-0.7-0.2-0.4-0.4-0.7-0.2 0.6-0.3 1.1 0.6 0.2 1.2 0.3zm0.8 1.2q0.7 0.9 1.4 1.6c-1 0.7-2 1-2.7 0.6-0.7-0.4-1-1.4-0.8-2.7q0.9 0.3 2.1 0.5zm4.4-7.8q-0.7-0.9-1.4-1.6c1-0.7 2-1 2.7-0.6 0.7 0.4 1 1.4 0.8 2.7q-0.9-0.3-2.1-0.5z"/>
	<path id="path2" fill-rule="evenodd" class="s1" d="m3.5 0c-1.9 0-3.5 1.6-3.5 3.5 0 1.9 1.6 3.5 3.5 3.5 1.9 0 3.5-1.6 3.5-3.5 0-1.9-1.6-3.5-3.5-3.5zm-1.2 1h0.2 0.1l0.1 0.1q0.3 0.3 0.7 0.3 0.4 0 0.6-0.3 0.1-0.1 0.2-0.1h0.1 0.1l0.6 0.4q0.1 0 0.1 0.1v0.1 0.2q-0.1 0.3 0.1 0.6 0.2 0.4 0.5 0.5 0.2 0 0.2 0.1h0.1v0.2 0.3 0.3 0.2h-0.1q0 0.1-0.2 0.1-0.3 0.1-0.5 0.4-0.2 0.4-0.1 0.7v0.2 0.1l-0.1 0.1q-0.3 0.2-0.6 0.3l-0.1 0.1h-0.1l-0.2-0.2q-0.2-0.2-0.6-0.2-0.4 0-0.7 0.2-0.1 0.1-0.1 0.2h-0.1q-0.1 0-0.2-0.1-0.3-0.1-0.5-0.3l-0.1-0.1q-0.1 0-0.1-0.1l0.1-0.2q0.1-0.3-0.1-0.7-0.2-0.3-0.6-0.4-0.1 0-0.2-0.1-0.1-0.1-0.1-0.2v-0.3-0.3q0-0.1 0.1-0.2 0.1-0.1 0.2-0.1 0.4-0.1 0.6-0.5 0.2-0.3 0.1-0.6l-0.1-0.2q0-0.1 0.1-0.1 0-0.1 0.1-0.1 0.2-0.2 0.5-0.4z"/>
</svg>