<svg version="1.2" xmlns="http://www.w3.org/2000/svg" viewBox="0 0 16 16" width="16" height="16">
	<title>doc-svg</title>
	<style>
		.s0 { fill: #7380f9 } 
	</style>
	<g id="Layer 1">
		<path fill-rule="evenodd" class="s0" d="m14 3.7c0-0.9 0-1.3-0.2-1.6q-0.2-0.5-0.6-0.7c-0.4-0.2-0.8-0.2-1.6-0.2h-4.9c-1.8 0-2.6 0-3.3 0.4-0.6 0.2-1 0.7-1.3 1.3-0.3 0.6-0.3 1.5-0.3 3.2v4c0 1.7 0 2.6 0.3 3.2 0.3 0.6 0.7 1.1 1.3 1.4 0.7 0.3 1.5 0.3 3.3 0.3h5.8c0.8 0 1.5-0.7 1.5-1.5 0-0.5-0.3-0.8-0.8-0.8h-8c-0.6 0-1.2-0.5-1.2-1.1 0-0.7 0.6-1.2 1.2-1.2h7.6c0.4 0 0.6 0 0.8-0.1q0.2-0.1 0.3-0.3c0.1-0.2 0.1-0.4 0.1-0.8z"/>
	</g>
</svg>