<?xml version="1.0" encoding="UTF-8" standalone="no"?>
<svg
   version="1.2"
   viewBox="0 0 16 16"
   width="16"
   height="16"
   id="svg1"
   xmlns="http://www.w3.org/2000/svg"
   xmlns:svg="http://www.w3.org/2000/svg">
  <defs
     id="defs1" />
  <title
     id="title1">template-svg</title>
  <style
     id="style1">
		.s0 { fill: #8cc162 } 
		.s1 { fill: #f1667f } 
	</style>
  <g
     id="Layer 1">
    <path
       id="path1"
       class="s0"
       d="M 6,2 C 4.6,2 3.9003906,2.0007814 3.4003906,2.3007812 2.9003906,2.5007816 2.5007814,2.9003906 2.3007812,3.4003906 2.0007816,3.9003906 2,4.6 2,6 v 4 c 0,1.4 7.814e-4,2.099609 0.3007812,2.599609 0.2000004,0.5 0.5996094,0.89961 1.0996094,1.09961 C 3.9003906,13.999219 4.6,14 6,14 h 4 c 1.4,0 2.099609,-7.81e-4 2.599609,-0.300781 0.5,-0.2 0.89961,-0.59961 1.09961,-1.09961 C 13.999219,12.099609 14,11.4 14,10 V 6 c 0,-1.4 -7.81e-4,-2.0996094 -0.300781,-2.5996094 -0.2,-0.5 -0.59961,-0.8996092 -1.09961,-1.0996094 C 12.099609,2.0007816 11.4,2 10,2 Z M 5,4 H 6 C 6.6,4 7,4.4 7,5 7,5.6 6.6,6 6,6 H 5 C 4.4,6 4,5.6 4,5 4,4.4 4.4,4 5,4 Z m 5,0 h 1 c 0.6,0 1,0.4 1,1 0,0.6 -0.4,1 -1,1 H 10 C 9.4,6 9,5.6 9,5 9,4.4 9.4,4 10,4 Z M 5,7 H 6 C 6.6,7 7,7.4 7,8 7,8.6 6.6,9 6,9 H 5 C 4.4,9 4,8.6 4,8 4,7.4 4.4,7 5,7 Z m 5,0 h 1 c 0.6,0 1,0.4 1,1 0,0.6 -0.4,1 -1,1 H 10 C 9.4,9 9,8.6 9,8 9,7.4 9.4,7 10,7 Z m -5,3 h 1 c 0.6,0 1,0.4 1,1 0,0.6 -0.4,1 -1,1 H 5 C 4.4,12 4,11.6 4,11 4,10.4 4.4,10 5,10 Z m 5,0 h 1 c 0.6,0 1,0.4 1,1 0,0.6 -0.4,1 -1,1 H 10 C 9.4,12 9,11.6 9,11 9,10.4 9.4,10 10,10 Z" />
  </g>
</svg>
