<?xml version="1.0" encoding="UTF-8" standalone="no"?>
<svg
   version="1.2"
   viewBox="0 0 16 16"
   width="16"
   height="16"
   id="svg2"
   sodipodi:docname="template-svg.svg"
   xmlns:inkscape="http://www.inkscape.org/namespaces/inkscape"
   xmlns:sodipodi="http://sodipodi.sourceforge.net/DTD/sodipodi-0.dtd"
   xmlns="http://www.w3.org/2000/svg"
   xmlns:svg="http://www.w3.org/2000/svg">
  <defs
     id="defs2" />
  <sodipodi:namedview
     id="namedview2"
     pagecolor="#ffffff"
     bordercolor="#000000"
     borderopacity="0.25"
     inkscape:showpageshadow="2"
     inkscape:pageopacity="0.0"
     inkscape:pagecheckerboard="0"
     inkscape:deskcolor="#d1d1d1">
    <inkscape:page
       x="0"
       y="0"
       width="16"
       height="16"
       id="page2"
       margin="0"
       bleed="0" />
  </sodipodi:namedview>
  <style
     id="style1">.a{fill:#8cc162}</style>
  <path
     id="path1"
     class="a"
     d="m 6,2 c -1.4,0 -2.0996094,7.813e-4 -2.5996094,0.3007812 -0.5,0.2 -0.8996093,0.5996094 -1.0996094,1.0996094 C 2.0007813,3.9003906 2,4.6 2,6 v 4 c 0,1.4 7.813e-4,2.099609 0.3007812,2.599609 0.2,0.5 0.5996094,0.89961 1.0996094,1.09961 C 3.9003906,13.999219 4.6,14 6,14 h 4 c 1.4,0 2.099609,-7.81e-4 2.599609,-0.300781 0.5,-0.2 0.89961,-0.59961 1.09961,-1.09961 C 13.999219,12.099609 14,11.4 14,10 V 6 c 0,-1.4 -7.81e-4,-2.0996094 -0.300781,-2.5996094 -0.2,-0.5 -0.59961,-0.8996093 -1.09961,-1.0996094 C 12.099609,2.0007812 11.4,2 10,2 Z M 4.6992188,5 H 6 7.5 v 0.4003906 c -0.6,0.1 -0.7996094,0.2 -0.5996094,0.5 L 8,7.3007812 c 0.1,0.2 0.2007813,0.099609 0.3007812,0.099609 l 1.0996094,-1.5 c 0.3,-0.4 -3.906e-4,-0.4 -0.4003906,-0.5 C 8.9,5.3003906 8.9,5 9,5 h 1.199219 1.201172 V 5.4003906 C 10.900391,5.5003906 10.5,5.4996094 10,6.0996094 L 8.5996094,7.6992188 V 7.9003906 L 10.099609,9.8007812 C 10.699609,10.500781 11,10.499609 11.5,10.599609 c 0,0 0.1,0.300391 0,0.400391 H 10.199219 8.6992188 c -0.1000001,-0.1 -0.1,-0.400391 0,-0.400391 C 9.0992188,10.499609 9.4,10.500391 9,9.9003906 L 7.9003906,8.5996094 c -0.1,-0.1 -0.1011719,-0.1003906 -0.2011718,0.099609 L 6.5996094,10.099609 c -0.3,0.4 3.906e-4,0.4 0.4003906,0.5 C 7.1,10.599609 7.1,10.9 7,11 H 5.6992188 4.5996094 c 0,-0.1 -0.1,-0.400391 0,-0.400391 0.5,-0.1 0.8007812,-0.09922 1.3007812,-0.6992184 l 1.5,-1.7011718 c 0,0 3.906e-4,-0.099609 -0.099609,-0.099609 l -1.4003906,-2 c -0.4,-0.5 -0.8011718,-0.5992188 -1.2011718,-0.6992188 -0.1,-0.1 -0.1,-0.4003906 -4e-7,-0.400391 z" />
</svg>
